GeoramaSemiCondensed-Regular.ufo
<glyph name="exclam" format="2">
  <advance width="183.076"/>
  <unicode hex="0021"/>
  <outline>
    <contour>
      <point x="57.97800000000001" y="262.45" type="line"/>
      <point x="125.03599999999999" y="262.45" type="line"/>
      <point x="130.244" y="740.0" type="line"/>
      <point x="53.514" y="740.0" type="line"/>
    </contour>
    <contour>
      <point x="48.294" y="44.652" type="curve" smooth="yes"/>
      <point x="48.294" y="9.618"/>
      <point x="58.85600000000001" y="-3.162"/>
      <point x="91.538" y="-3.162" type="curve" smooth="yes"/>
      <point x="124.91000000000001" y="-3.162"/>
      <point x="134.782" y="9.618"/>
      <point x="134.782" y="44.652" type="curve" smooth="yes"/>
      <point x="134.782" y="79.99600000000001"/>
      <point x="124.91000000000001" y="92.77600000000001"/>
      <point x="91.538" y="92.77600000000001" type="curve" smooth="yes"/>
      <point x="58.16600000000001" y="92.77600000000001"/>
      <point x="48.294" y="79.99600000000001"/>
    </contour>
  </outline>
</glyph>
<glyph name="numbersign" format="2">
  <advance width="449.952"/>
  <unicode hex="0023"/>
  <outline>
    <contour>
      <point x="57.804" y="454.554" type="line"/>
      <point x="127.11200000000001" y="454.554" type="line"/>
      <point x="96.44600000000001" y="241.234" type="line"/>
      <point x="31.217999999999996" y="241.234" type="line"/>
      <point x="31.217999999999996" y="178.234" type="line"/>
      <point x="90.174" y="178.234" type="line"/>
      <point x="66.216" y="0.0" type="line"/>
      <point x="130.23600000000002" y="0.0" type="line"/>
      <point x="154.19400000000002" y="178.234" type="line"/>
      <point x="253.472" y="178.234" type="line"/>
      <point x="229.514" y="0.0" type="line"/>
      <point x="293.534" y="0.0" type="line"/>
      <point x="317.492" y="178.234" type="line"/>
      <point x="392.21000000000004" y="178.234" type="line"/>
      <point x="392.21000000000004" y="241.234" type="line"/>
      <point x="323.764" y="241.234" type="line"/>
      <point x="354.43" y="454.554" type="line"/>
      <point x="418.796" y="454.554" type="line"/>
      <point x="418.796" y="517.926" type="line"/>
      <point x="361.054" y="517.926" type="line"/>
      <point x="386.02599999999995" y="700.0" type="line"/>
      <point x="322.00600000000003" y="700.0" type="line"/>
      <point x="297.03400000000005" y="517.926" type="line"/>
      <point x="197.756" y="517.926" type="line"/>
      <point x="222.728" y="700.0" type="line"/>
      <point x="158.708" y="700.0" type="line"/>
      <point x="133.73600000000002" y="517.926" type="line"/>
      <point x="57.804" y="517.926" type="line"/>
    </contour>
    <contour>
      <point x="191.13199999999998" y="454.554" type="line"/>
      <point x="290.40999999999997" y="454.554" type="line"/>
      <point x="259.744" y="241.234" type="line"/>
      <point x="160.46599999999998" y="241.234" type="line"/>
    </contour>
  </outline>
</glyph>
<glyph name="dollar" format="2">
  <advance width="449.952"/>
  <unicode hex="0024"/>
  <outline>
    <contour>
      <point x="205.12800000000001" y="-10.0" type="curve" smooth="yes"/>
      <point x="322.692" y="-10.744"/>
      <point x="403.768" y="43.36"/>
      <point x="403.768" y="158.808" type="curve" smooth="yes"/>
      <point x="403.768" y="267.16"/>
      <point x="342.48799999999994" y="325.524"/>
      <point x="260.692" y="377.81600000000003" type="curve" smooth="yes"/>
      <point x="186.492" y="426.076"/>
      <point x="136.144" y="472.11600000000004"/>
      <point x="136.144" y="545.8439999999999" type="curve" smooth="yes"/>
      <point x="136.144" y="606.1039999999999"/>
      <point x="175.056" y="640.76"/>
      <point x="245.00400000000002" y="640.76" type="curve" smooth="yes"/>
      <point x="285.20400000000006" y="640.76"/>
      <point x="329.72800000000007" y="632.312"/>
      <point x="364.23999999999995" y="619.5000000000001" type="curve"/>
      <point x="380.76800000000003" y="684.164" type="line"/>
      <point x="343.836" y="699.5200000000001"/>
      <point x="288.456" y="710.0"/>
      <point x="237.29999999999998" y="710.0" type="curve" smooth="yes"/>
      <point x="127.03200000000001" y="709.724"/>
      <point x="60.391999999999996" y="648.1320000000001"/>
      <point x="60.391999999999996" y="543.7359999999999" type="curve" smooth="yes"/>
      <point x="60.391999999999996" y="438.58"/>
      <point x="117.948" y="376.568"/>
      <point x="195.108" y="323.59999999999997" type="curve" smooth="yes"/>
      <point x="273.69599999999997" y="271.812"/>
      <point x="328.71200000000005" y="226.50400000000002"/>
      <point x="328.71200000000005" y="153.556" type="curve" smooth="yes"/>
      <point x="328.71200000000005" y="93.64800000000001"/>
      <point x="287.408" y="57.808"/>
      <point x="211.332" y="57.808" type="curve" smooth="yes"/>
      <point x="166.08800000000002" y="57.808"/>
      <point x="110.27199999999999" y="68.248"/>
      <point x="62.284" y="86.27200000000002" type="curve"/>
      <point x="46.308" y="21.372" type="line"/>
      <point x="89.98400000000001" y="3.0240000000000005"/>
      <point x="153.11200000000002" y="-9.751999999999999"/>
    </contour>
    <contour>
      <point x="198.032" y="-105.0" type="line"/>
      <point x="264.284" y="-105.0" type="line"/>
      <point x="264.284" y="6.619999999999999" type="line"/>
      <point x="198.032" y="0.512" type="line"/>
    </contour>
    <contour>
      <point x="198.032" y="695.092" type="line"/>
      <point x="264.284" y="700.288" type="line"/>
      <point x="264.284" y="804.504" type="line"/>
      <point x="198.032" y="804.504" type="line"/>
    </contour>
  </outline>
</glyph>
<glyph name="ampersand" format="2">
  <advance width="525.2379999999999"/>
  <unicode hex="0026"/>
  <outline>
    <contour>
      <point x="439.922" y="-9.888" type="line"/>
      <point x="521.4839999999999" y="-1.7659999999999996" type="line"/>
      <point x="203.86399999999998" y="413.69800000000004" type="line" smooth="yes"/>
      <point x="168.742" y="462.106"/>
      <point x="155.678" y="502.42600000000004"/>
      <point x="155.678" y="541.658" type="curve" smooth="yes"/>
      <point x="155.678" y="607.882"/>
      <point x="185.834" y="642.26"/>
      <point x="243.702" y="642.26" type="curve" smooth="yes"/>
      <point x="298.88599999999997" y="642.26"/>
      <point x="325.51" y="607.116"/>
      <point x="325.51" y="545.944" type="curve" smooth="yes"/>
      <point x="325.51" y="500.73600000000005"/>
      <point x="314.306" y="466.51"/>
      <point x="283.004" y="441.628" type="curve"/>
      <point x="314.52200000000005" y="402.42400000000004" type="line"/>
      <point x="369.66400000000004" y="438.424"/>
      <point x="392.94" y="491.68199999999996"/>
      <point x="392.94" y="559.724" type="curve" smooth="yes"/>
      <point x="392.94" y="657.462"/>
      <point x="341.032" y="710.0"/>
      <point x="242.152" y="710.0" type="curve" smooth="yes"/>
      <point x="132.54" y="710.0"/>
      <point x="79.258" y="649.396"/>
      <point x="79.258" y="542.2780000000001" type="curve" smooth="yes"/>
      <point x="79.258" y="487.7219999999999"/>
      <point x="98.264" y="432.43"/>
      <point x="139.416" y="374.44800000000004" type="curve" smooth="yes"/>
    </contour>
    <contour>
      <point x="220.868" y="-10.0" type="curve" smooth="yes"/>
      <point x="293.54600000000005" y="-10.0"/>
      <point x="348.07800000000003" y="20.034"/>
      <point x="387.34200000000004" y="77.58200000000001" type="curve"/>
      <point x="351.7" y="128.67600000000002" type="line"/>
      <point x="324.684" y="80.33999999999999"/>
      <point x="289.44599999999997" y="53.4"/>
      <point x="228.61799999999997" y="53.4" type="curve" smooth="yes"/>
      <point x="149.06" y="53.4"/>
      <point x="99.5" y="110.146"/>
      <point x="99.5" y="190.704" type="curve" smooth="yes"/>
      <point x="99.5" y="262.858"/>
      <point x="124.072" y="306.15400000000005"/>
      <point x="177.344" y="349.51400000000007" type="curve"/>
      <point x="143.00600000000003" y="398.31" type="line"/>
      <point x="62.736000000000004" y="346.48"/>
      <point x="27.110000000000003" y="279.778"/>
      <point x="27.110000000000003" y="183.574" type="curve" smooth="yes"/>
      <point x="27.110000000000003" y="68.316"/>
      <point x="99.48599999999999" y="-10.0"/>
    </contour>
    <contour>
      <point x="424.33599999999996" y="111.22399999999999" type="line"/>
      <point x="455.208" y="167.28799999999995"/>
      <point x="473.928" y="236.316"/>
      <point x="473.928" y="312.50199999999995" type="curve" smooth="yes"/>
      <point x="473.928" y="335.11"/>
      <point x="472.39" y="352.572"/>
      <point x="469.01" y="371.186" type="curve"/>
      <point x="407.23" y="368.81199999999995" type="line"/>
      <point x="410.3" y="352.368"/>
      <point x="411.452" y="337.842"/>
      <point x="411.142" y="319.322" type="curve" smooth="yes"/>
      <point x="410.832" y="260.466"/>
      <point x="400.15400000000005" y="209.52200000000002"/>
      <point x="381.88" y="172.606" type="curve"/>
    </contour>
  </outline>
</glyph>
<glyph name="quotesingle" format="2">
  <advance width="155.844"/>
  <unicode hex="0027"/>
  <outline>
    <contour>
      <point x="47.68" y="427.0" type="line"/>
      <point x="107.41999999999999" y="427.0" type="line"/>
      <point x="113.722" y="700.0" type="line"/>
      <point x="42.122" y="700.0" type="line"/>
    </contour>
  </outline>
</glyph>
<glyph name="parenleft" format="2">
  <advance width="248.97199999999998"/>
  <unicode hex="0028"/>
  <outline>
    <contour>
      <point x="55.370000000000005" y="265.0" type="curve" smooth="yes"/>
      <point x="55.370000000000005" y="-5.308"/>
      <point x="114.888" y="-193.55"/>
      <point x="237.18000000000004" y="-220.55200000000002" type="curve"/>
      <point x="237.18000000000004" y="-154.39200000000002" type="line"/>
      <point x="159.85999999999999" y="-120.192"/>
      <point x="119.998" y="16.564"/>
      <point x="119.998" y="265.0" type="curve" smooth="yes"/>
      <point x="119.998" y="513.436"/>
      <point x="159.85999999999999" y="650.192"/>
      <point x="237.18000000000004" y="684.3919999999999" type="curve"/>
      <point x="237.18000000000004" y="750.552" type="line"/>
      <point x="114.888" y="723.55"/>
      <point x="55.370000000000005" y="535.3080000000001"/>
    </contour>
  </outline>
</glyph>
<glyph name="parenright" format="2">
  <advance width="248.97199999999998"/>
  <unicode hex="0029"/>
  <outline>
    <contour>
      <point x="11.792" y="-154.39200000000002" type="curve"/>
      <point x="11.792" y="-220.55200000000002" type="line"/>
      <point x="134.08400000000003" y="-193.55"/>
      <point x="193.602" y="-5.308"/>
      <point x="193.602" y="265.0" type="curve" smooth="yes"/>
      <point x="193.602" y="535.3080000000001"/>
      <point x="134.08400000000003" y="723.55"/>
      <point x="11.792" y="750.552" type="curve"/>
      <point x="11.792" y="684.3919999999999" type="line"/>
      <point x="89.112" y="650.192"/>
      <point x="128.974" y="513.436"/>
      <point x="128.974" y="265.0" type="curve" smooth="yes"/>
      <point x="128.974" y="16.564"/>
      <point x="89.112" y="-120.192"/>
    </contour>
  </outline>
</glyph>
<glyph name="asterisk" format="2">
  <advance width="280.092"/>
  <unicode hex="002A"/>
  <outline>
    <contour>
      <point x="75.02600000000001" y="386.242" type="line"/>
      <point x="140.184" y="480.378" type="line"/>
      <point x="204.79000000000002" y="386.104" type="line"/>
      <point x="237.12199999999999" y="408.366" type="line"/>
      <point x="177.87400000000002" y="509.78799999999995" type="line"/>
      <point x="275.942" y="555.5000000000001" type="line"/>
      <point x="262.95599999999996" y="592.1940000000001" type="line"/>
      <point x="164.016" y="555.798" type="line"/>
      <point x="160.358" y="676.7280000000001" type="line"/>
      <point x="120.01" y="676.7280000000001" type="line"/>
      <point x="116.352" y="555.798" type="line"/>
      <point x="17.136" y="592.1940000000001" type="line"/>
      <point x="4.15" y="555.5000000000001" type="line"/>
      <point x="102.49400000000001" y="509.78799999999995" type="line"/>
      <point x="42.556000000000004" y="408.642" type="line"/>
    </contour>
  </outline>
</glyph>
<glyph name="plus" format="2">
  <advance width="434.164"/>
  <unicode hex="002B"/>
  <outline>
    <contour>
      <point x="182.716" y="95.498" type="line"/>
      <point x="251.386" y="95.498" type="line"/>
      <point x="251.386" y="268.15" type="line"/>
      <point x="389.806" y="268.15" type="line"/>
      <point x="389.806" y="334.34000000000003" type="line"/>
      <point x="251.386" y="334.34000000000003" type="line"/>
      <point x="251.386" y="506.93" type="line"/>
      <point x="182.716" y="506.93" type="line"/>
      <point x="182.716" y="334.34000000000003" type="line"/>
      <point x="44.358000000000004" y="334.34000000000003" type="line"/>
      <point x="44.358000000000004" y="268.15" type="line"/>
      <point x="182.716" y="268.15" type="line"/>
    </contour>
  </outline>
</glyph>
<glyph name="comma" format="2">
  <advance width="153.958"/>
  <unicode hex="002C"/>
  <outline>
    <contour>
      <point x="39.794000000000004" y="57.042" type="line"/>
      <point x="46.65" y="31.71"/>
      <point x="49.748000000000005" y="6.119999999999999"/>
      <point x="49.748000000000005" y="-11.026000000000002" type="curve" smooth="yes"/>
      <point x="49.748000000000005" y="-69.56"/>
      <point x="30.278000000000002" y="-135.10000000000002"/>
      <point x="-12.085999999999997" y="-174.972" type="curve"/>
      <point x="41.962" y="-196.504" type="line"/>
      <point x="99.41" y="-147.546"/>
      <point x="121.704" y="-73.19999999999999"/>
      <point x="121.704" y="-9.944000000000003" type="curve" smooth="yes"/>
      <point x="121.704" y="16.285999999999998"/>
      <point x="117.48400000000001" y="40.49199999999999"/>
      <point x="110.366" y="62.458000000000006" type="curve"/>
    </contour>
  </outline>
</glyph>
<glyph name="hyphen" format="2">
  <advance width="269.284"/>
  <unicode hex="002D"/>
  <outline>
    <contour>
      <point x="27.706000000000003" y="248.49" type="line"/>
      <point x="241.578" y="248.49" type="line"/>
      <point x="241.578" y="318.338" type="line"/>
      <point x="27.706000000000003" y="318.338" type="line"/>
    </contour>
  </outline>
</glyph>
<glyph name="period" format="2">
  <advance width="154.95000000000002"/>
  <unicode hex="002E"/>
  <outline>
    <contour>
      <point x="34.300000000000004" y="45.396" type="curve" smooth="yes"/>
      <point x="34.300000000000004" y="10.362"/>
      <point x="44.862" y="-2.418"/>
      <point x="77.544" y="-2.418" type="curve" smooth="yes"/>
      <point x="110.91600000000001" y="-2.418"/>
      <point x="120.78799999999998" y="10.362"/>
      <point x="120.78799999999998" y="45.396" type="curve" smooth="yes"/>
      <point x="120.78799999999998" y="80.74"/>
      <point x="110.91600000000001" y="93.52"/>
      <point x="77.544" y="93.52" type="curve" smooth="yes"/>
      <point x="44.172000000000004" y="93.52"/>
      <point x="34.300000000000004" y="80.74"/>
    </contour>
  </outline>
</glyph>
<glyph name="slash" format="2">
  <advance width="302.58599999999996"/>
  <unicode hex="002F"/>
  <outline>
    <contour>
      <point x="0.6240000000000003" y="-210.0" type="line"/>
      <point x="65.05" y="-210.0" type="line"/>
      <point x="301.962" y="740.0" type="line"/>
      <point x="237.288" y="740.0" type="line"/>
    </contour>
  </outline>
</glyph>
<glyph name="zero" format="2">
  <advance width="449.952"/>
  <unicode hex="0030"/>
  <outline>
    <contour>
      <point x="21.856" y="350.0" type="curve" smooth="yes"/>
      <point x="21.856" y="73.272"/>
      <point x="96.596" y="-10.0"/>
      <point x="224.976" y="-10.0" type="curve" smooth="yes"/>
      <point x="352.73600000000005" y="-10.0"/>
      <point x="428.096" y="74.264"/>
      <point x="428.096" y="350.0" type="curve" smooth="yes"/>
      <point x="428.096" y="626.536"/>
      <point x="356.4560000000001" y="710.0"/>
      <point x="224.976" y="710.0" type="curve" smooth="yes"/>
      <point x="95.85199999999999" y="710.0"/>
      <point x="21.856" y="628.52"/>
    </contour>
    <contour>
      <point x="99.14399999999999" y="346.776" type="curve" smooth="yes"/>
      <point x="99.14399999999999" y="588.464"/>
      <point x="148.73200000000003" y="642.88"/>
      <point x="224.976" y="642.88" type="curve" smooth="yes"/>
      <point x="301.344" y="642.88"/>
      <point x="350.932" y="588.712"/>
      <point x="350.932" y="346.776" type="curve" smooth="yes"/>
      <point x="350.932" y="113.57600000000001"/>
      <point x="302.088" y="57.12"/>
      <point x="224.976" y="57.12" type="curve" smooth="yes"/>
      <point x="147.988" y="57.12"/>
      <point x="99.14399999999999" y="113.328"/>
    </contour>
  </outline>
</glyph>
<glyph name="one" format="2">
  <advance width="449.952"/>
  <unicode hex="0031"/>
  <outline>
    <contour>
      <point x="46.934" y="0.0" type="line"/>
      <point x="426.95599999999996" y="0.0" type="line"/>
      <point x="426.95599999999996" y="66.5" type="line"/>
      <point x="286.93600000000004" y="66.5" type="line"/>
      <point x="286.93600000000004" y="701.38" type="line"/>
      <point x="247.16000000000003" y="701.38" type="line"/>
      <point x="32.55" y="584.074" type="line"/>
      <point x="51.376000000000005" y="515.272" type="line"/>
      <point x="210.392" y="606.256" type="line"/>
      <point x="210.392" y="66.5" type="line"/>
      <point x="46.934" y="66.5" type="line"/>
    </contour>
  </outline>
</glyph>
<glyph name="two" format="2">
  <advance width="450.4"/>
  <unicode hex="0032"/>
  <outline>
    <contour>
      <point x="42.910000000000004" y="57.919999999999995" type="curve"/>
      <point x="46.515" y="0.0" type="line"/>
      <point x="415.78499999999997" y="0.0" type="line"/>
      <point x="415.78499999999997" y="66.81" type="line"/>
      <point x="140.555" y="66.81" type="line"/>
      <point x="330.58500000000004" y="307.345"/>
      <point x="372.065" y="406.54499999999996"/>
      <point x="372.065" y="515.84" type="curve" smooth="yes"/>
      <point x="372.065" y="644.065"/>
      <point x="310.695" y="710.0"/>
      <point x="204.665" y="710.0" type="curve" smooth="yes"/>
      <point x="144.55500000000004" y="710.0"/>
      <point x="88.135" y="691.5550000000001"/>
      <point x="40.16000000000001" y="651.245" type="curve"/>
      <point x="68.59000000000002" y="583.375" type="line"/>
      <point x="107.17500000000001" y="614.5000000000001"/>
      <point x="146.35" y="627.9150000000001"/>
      <point x="188.39" y="627.9150000000001" type="curve" smooth="yes"/>
      <point x="253.055" y="627.9150000000001"/>
      <point x="292.615" y="589.58"/>
      <point x="292.615" y="498.99999999999994" type="curve" smooth="yes"/>
      <point x="292.615" y="406.225"/>
      <point x="241.545" y="300.68500000000006"/>
    </contour>
  </outline>
</glyph>
<glyph name="three" format="2">
  <advance width="450.4"/>
  <unicode hex="0033"/>
  <outline>
    <contour>
      <point x="17.959999999999997" y="42.294999999999995" type="line"/>
      <point x="69.605" y="5.949999999999999"/>
      <point x="120.205" y="-10.0"/>
      <point x="193.215" y="-10.0" type="curve" smooth="yes"/>
      <point x="324.84" y="-10.0"/>
      <point x="403.09" y="68.61999999999999"/>
      <point x="403.09" y="202.35999999999999" type="curve" smooth="yes"/>
      <point x="403.09" y="287.59000000000003"/>
      <point x="365.245" y="348.695"/>
      <point x="293.69" y="370.77500000000003" type="curve"/>
      <point x="349.81" y="396.89"/>
      <point x="381.24" y="456.425"/>
      <point x="381.24" y="532.225" type="curve" smooth="yes"/>
      <point x="381.24" y="641.5000000000001"/>
      <point x="315.11999999999995" y="710.0"/>
      <point x="198.76499999999996" y="710.0" type="curve" smooth="yes"/>
      <point x="135.31500000000003" y="710.0"/>
      <point x="77.94500000000001" y="694.21"/>
      <point x="35.83" y="666.0100000000001" type="curve"/>
      <point x="59.815" y="604.5799999999999" type="line"/>
      <point x="98.13999999999999" y="625.44"/>
      <point x="141.26" y="635.13"/>
      <point x="184.66" y="635.13" type="curve" smooth="yes"/>
      <point x="264.11" y="635.13"/>
      <point x="305.44" y="588.2700000000001"/>
      <point x="305.44" y="513.6250000000001" type="curve" smooth="yes"/>
      <point x="305.44" y="442.205"/>
      <point x="269.14" y="394.34499999999997"/>
      <point x="206.03" y="394.34499999999997" type="curve" smooth="yes"/>
      <point x="119.435" y="394.34499999999997" type="line"/>
      <point x="119.435" y="331.71999999999997" type="line"/>
      <point x="194.20000000000002" y="331.71999999999997" type="line" smooth="yes"/>
      <point x="280.32" y="331.71999999999997"/>
      <point x="326.205" y="290.57000000000005"/>
      <point x="326.205" y="207.32" type="curve" smooth="yes"/>
      <point x="326.205" y="115.255"/>
      <point x="274.95000000000005" y="61.46"/>
      <point x="185.81000000000003" y="61.46" type="curve" smooth="yes"/>
      <point x="128.45999999999998" y="61.46"/>
      <point x="86.875" y="74.445"/>
      <point x="45.87499999999999" y="101.485" type="curve"/>
    </contour>
  </outline>
</glyph>
<glyph name="four" format="2">
  <advance width="450.4"/>
  <unicode hex="0034"/>
  <outline>
    <contour>
      <point x="22.02" y="159.10999999999999" type="line"/>
      <point x="271.51" y="159.10999999999999" type="line"/>
      <point x="271.51" y="0.0" type="line"/>
      <point x="349.17" y="0.0" type="line"/>
      <point x="349.17" y="159.10999999999999" type="line"/>
      <point x="433.60999999999996" y="159.10999999999999" type="line"/>
      <point x="433.60999999999996" y="224.99" type="line"/>
      <point x="349.17" y="224.99" type="line"/>
      <point x="349.17" y="699.31" type="line"/>
      <point x="274.03000000000003" y="703.45" type="line"/>
      <point x="18.0" y="222.92" type="line"/>
    </contour>
    <contour>
      <point x="85.66" y="224.99" type="line"/>
      <point x="273.98999999999995" y="581.26" type="line"/>
      <point x="273.98999999999995" y="224.99" type="line"/>
    </contour>
  </outline>
</glyph>
<glyph name="five" format="2">
  <advance width="450.324"/>
  <unicode hex="0035"/>
  <outline>
    <contour>
      <point x="30.380000000000003" y="41.25900000000001" type="line"/>
      <point x="78.06" y="7.900000000000001"/>
      <point x="127.01400000000001" y="-9.924"/>
      <point x="198.33599999999996" y="-9.924" type="curve" smooth="yes"/>
      <point x="330.481" y="-9.924"/>
      <point x="414.163" y="67.626"/>
      <point x="414.163" y="210.08999999999997" type="curve" smooth="yes"/>
      <point x="414.163" y="337.50600000000003"/>
      <point x="354.164" y="400.959"/>
      <point x="240.07700000000006" y="402.044" type="curve" smooth="yes"/>
      <point x="137.192" y="402.35400000000004" type="line"/>
      <point x="154.31700000000004" y="629.6249999999999" type="line"/>
      <point x="386.16900000000004" y="629.6249999999999" type="line"/>
      <point x="386.16900000000004" y="700.0" type="line"/>
      <point x="93.385" y="700.0" type="line"/>
      <point x="63.410000000000004" y="350.57400000000007" type="line"/>
      <point x="73.1" y="339.264" type="line"/>
      <point x="204.998" y="339.264" type="line" smooth="yes"/>
      <point x="297.618" y="339.264"/>
      <point x="336.503" y="294.822"/>
      <point x="336.503" y="207.61" type="curve" smooth="yes"/>
      <point x="336.503" y="115.74399999999999"/>
      <point x="289.645" y="62.466"/>
      <point x="191.671" y="62.466" type="curve" smooth="yes"/>
      <point x="127.77699999999999" y="62.466"/>
      <point x="89.923" y="80.433"/>
      <point x="54.449" y="103.00500000000001" type="curve"/>
    </contour>
  </outline>
</glyph>
<glyph name="six" format="2">
  <advance width="450.324"/>
  <unicode hex="0036"/>
  <outline>
    <contour>
      <point x="231.749" y="-10.0" type="curve" smooth="yes"/>
      <point x="354.902" y="-10.0"/>
      <point x="423.62500000000006" y="73.30399999999999"/>
      <point x="423.62500000000006" y="218.014" type="curve" smooth="yes"/>
      <point x="423.62500000000006" y="347.88000000000005"/>
      <point x="363.163" y="423.05899999999997"/>
      <point x="258.817" y="423.05899999999997" type="curve" smooth="yes"/>
      <point x="189.415" y="423.05899999999997"/>
      <point x="124.119" y="386.532"/>
      <point x="93.40500000000002" y="332.701" type="curve"/>
      <point x="97.01" y="267.653" type="line"/>
      <point x="125.69399999999999" y="324.743"/>
      <point x="178.24900000000002" y="361.668"/>
      <point x="235.88299999999995" y="361.668" type="curve" smooth="yes"/>
      <point x="305.7540000000001" y="361.668"/>
      <point x="348.44500000000005" y="309.07099999999997"/>
      <point x="348.44500000000005" y="214.77700000000002" type="curve" smooth="yes"/>
      <point x="348.44500000000005" y="113.83600000000001"/>
      <point x="304.544" y="55.736999999999995"/>
      <point x="234.08" y="55.736999999999995" type="curve" smooth="yes"/>
      <point x="148.06799999999998" y="55.736999999999995"/>
      <point x="104.131" y="124.18600000000002"/>
      <point x="104.131" y="338.224" type="curve" smooth="yes"/>
      <point x="104.131" y="543.5200000000001"/>
      <point x="148.005" y="640.8530000000002"/>
      <point x="266.285" y="640.8530000000002" type="curve" smooth="yes"/>
      <point x="309.805" y="640.8530000000002"/>
      <point x="345.583" y="629.321"/>
      <point x="384.88100000000003" y="611.6400000000001" type="curve"/>
      <point x="408.82199999999995" y="673.9910000000001" type="line"/>
      <point x="366.98" y="696.839"/>
      <point x="314.188" y="710.0"/>
      <point x="256.973" y="710.0" type="curve" smooth="yes"/>
      <point x="103.075" y="710.0"/>
      <point x="25.230999999999998" y="595.852"/>
      <point x="25.230999999999998" y="329.678" type="curve" smooth="yes"/>
      <point x="25.230999999999998" y="86.42199999999998"/>
      <point x="92.85600000000001" y="-10.0"/>
    </contour>
  </outline>
</glyph>
<glyph name="seven" format="2">
  <advance width="450.324"/>
  <unicode hex="0037"/>
  <outline>
    <contour>
      <point x="144.39300000000003" y="0.0" type="curve"/>
      <point x="222.82799999999997" y="0.0" type="line"/>
      <point x="223.907" y="132.86400000000003"/>
      <point x="247.44199999999998" y="236.248"/>
      <point x="297.548" y="358.69399999999996" type="curve" smooth="yes"/>
      <point x="414.93499999999995" y="645.6450000000001" type="line"/>
      <point x="414.93499999999995" y="700.0" type="line"/>
      <point x="33.799" y="700.0" type="line"/>
      <point x="33.799" y="627.455" type="line"/>
      <point x="328.46700000000004" y="627.455" type="line"/>
      <point x="232.752" y="401.67400000000004" type="line" smooth="yes"/>
      <point x="167.32000000000002" y="247.11900000000003"/>
      <point x="144.39300000000003" y="137.982"/>
    </contour>
  </outline>
</glyph>
<glyph name="eight" format="2">
  <advance width="450.4"/>
  <unicode hex="0038"/>
  <outline>
    <contour>
      <point x="250.87500000000003" y="378.58500000000004" type="curve"/>
      <point x="298.22" y="351.60499999999996" type="line"/>
      <point x="380.91499999999996" y="403.585"/>
      <point x="412.48499999999996" y="465.73999999999995"/>
      <point x="412.48499999999996" y="540.78" type="curve" smooth="yes"/>
      <point x="412.48499999999996" y="648.66"/>
      <point x="346.68500000000006" y="710.0"/>
      <point x="229.25" y="710.0" type="curve" smooth="yes"/>
      <point x="109.37" y="710.0"/>
      <point x="40.705" y="646.78"/>
      <point x="40.705" y="533.91" type="curve" smooth="yes"/>
      <point x="40.705" y="298.82"/>
      <point x="354.205" y="372.08000000000004"/>
      <point x="354.205" y="173.92499999999998" type="curve" smooth="yes"/>
      <point x="354.205" y="96.07000000000001"/>
      <point x="309.27500000000003" y="53.709999999999994"/>
      <point x="227.145" y="53.709999999999994" type="curve" smooth="yes"/>
      <point x="141.64" y="53.709999999999994"/>
      <point x="94.955" y="100.105"/>
      <point x="94.955" y="184.63" type="curve" smooth="yes"/>
      <point x="94.955" y="260.165"/>
      <point x="125.34499999999998" y="311.82"/>
      <point x="192.885" y="351.06500000000005" type="curve"/>
      <point x="145.125" y="382.8" type="line"/>
      <point x="57.55" y="333.00499999999994"/>
      <point x="19.155" y="264.79499999999996"/>
      <point x="19.155" y="178.375" type="curve" smooth="yes"/>
      <point x="19.155" y="57.93"/>
      <point x="91.25" y="-10.0"/>
      <point x="222.45999999999998" y="-10.0" type="curve" smooth="yes"/>
      <point x="358.62999999999994" y="-10.0"/>
      <point x="431.55499999999995" y="56.015"/>
      <point x="431.55499999999995" y="177.955" type="curve" smooth="yes"/>
      <point x="431.55499999999995" y="427.12"/>
      <point x="114.025" y="353.485"/>
      <point x="114.025" y="536.6" type="curve" smooth="yes"/>
      <point x="114.025" y="605.0550000000001"/>
      <point x="154.73" y="644.965"/>
      <point x="226.30499999999998" y="644.965" type="curve" smooth="yes"/>
      <point x="301.51500000000004" y="644.965"/>
      <point x="341.335" y="605.3850000000001"/>
      <point x="341.335" y="529.86" type="curve" smooth="yes"/>
      <point x="341.335" y="466.07"/>
      <point x="320.4650000000001" y="421.54"/>
    </contour>
  </outline>
</glyph>
<glyph name="nine" format="2">
  <advance width="450.324"/>
  <unicode hex="0039"/>
  <outline>
    <contour>
      <point x="192.80100000000002" y="-10.0" type="curve" smooth="yes"/>
      <point x="346.699" y="-10.0"/>
      <point x="422.397" y="103.838"/>
      <point x="422.397" y="369.392" type="curve" smooth="yes"/>
      <point x="422.397" y="612.958"/>
      <point x="358.80199999999996" y="710.0"/>
      <point x="220.779" y="710.0" type="curve" smooth="yes"/>
      <point x="96.09999999999998" y="710.0"/>
      <point x="24.002999999999997" y="627.1519999999999"/>
      <point x="24.002999999999997" y="482.06199999999995" type="curve" smooth="yes"/>
      <point x="24.002999999999997" y="351.956"/>
      <point x="85.079" y="276.941"/>
      <point x="190.361" y="276.941" type="curve" smooth="yes"/>
      <point x="257.903" y="276.941"/>
      <point x="322.88899999999995" y="313.14599999999996"/>
      <point x="354.22300000000007" y="366.9769999999999" type="curve"/>
      <point x="355.232" y="438.16499999999996" type="line"/>
      <point x="323.931" y="373.248"/>
      <point x="269.069" y="338.332"/>
      <point x="211.74499999999998" y="338.332" type="curve" smooth="yes"/>
      <point x="143.558" y="338.332"/>
      <point x="98.87299999999999" y="391.075"/>
      <point x="98.87299999999999" y="485.60900000000004" type="curve" smooth="yes"/>
      <point x="98.87299999999999" y="586.9300000000001"/>
      <point x="146.458" y="644.2629999999999"/>
      <point x="218.758" y="644.2629999999999" type="curve" smooth="yes"/>
      <point x="303.59" y="644.2629999999999"/>
      <point x="343.497" y="575.814"/>
      <point x="343.497" y="361.77599999999995" type="curve" smooth="yes"/>
      <point x="343.497" y="156.48000000000002"/>
      <point x="301.459" y="59.14699999999999"/>
      <point x="183.489" y="59.14699999999999" type="curve" smooth="yes"/>
      <point x="139.65900000000002" y="59.14699999999999"/>
      <point x="102.045" y="70.679"/>
      <point x="62.747" y="88.36" type="curve"/>
      <point x="38.806000000000004" y="26.629000000000005" type="line"/>
      <point x="80.64799999999998" y="3.7810000000000006"/>
      <point x="135.586" y="-10.0"/>
    </contour>
  </outline>
</glyph>
<glyph name="less" format="2">
  <advance width="434.164"/>
  <unicode hex="003C"/>
  <outline>
    <contour>
      <point x="394.462" y="86.736" type="line"/>
      <point x="394.462" y="151.442" type="line"/>
      <point x="109.702" y="297.05400000000003" type="line"/>
      <point x="394.462" y="443.68" type="line"/>
      <point x="394.462" y="507.02" type="line"/>
      <point x="39.702" y="329.808" type="line"/>
      <point x="39.702" y="264.11400000000003" type="line"/>
    </contour>
  </outline>
</glyph>
<glyph name="equal" format="2">
  <advance width="429.204"/>
  <unicode hex="003D"/>
  <outline>
    <contour>
      <point x="384.846" y="223.908" type="line"/>
      <point x="44.358000000000004" y="223.908" type="line"/>
      <point x="44.358000000000004" y="157.718" type="line"/>
      <point x="384.846" y="157.718" type="line"/>
    </contour>
    <contour>
      <point x="384.846" y="437.666" type="line"/>
      <point x="44.358000000000004" y="437.666" type="line"/>
      <point x="44.358000000000004" y="371.476" type="line"/>
      <point x="384.846" y="371.476" type="line"/>
    </contour>
  </outline>
</glyph>
<glyph name="greater" format="2">
  <advance width="434.164"/>
  <unicode hex="003E"/>
  <outline>
    <contour>
      <point x="394.462" y="263.562" type="line"/>
      <point x="394.462" y="329.256" type="line"/>
      <point x="39.702" y="507.02" type="line"/>
      <point x="39.702" y="442.438" type="line"/>
      <point x="324.462" y="296.502" type="line"/>
      <point x="39.702" y="150.338" type="line"/>
      <point x="39.702" y="86.736" type="line"/>
    </contour>
  </outline>
</glyph>
<glyph name="question" format="2">
  <advance width="356.49600000000004"/>
  <unicode hex="003F"/>
  <outline>
    <contour>
      <point x="129.536" y="262.03599999999994" type="line"/>
      <point x="196.842" y="262.03599999999994" type="line"/>
      <point x="196.966" y="335.032" type="line"/>
      <point x="293.90200000000004" y="397.568"/>
      <point x="338.84400000000005" y="454.67999999999995"/>
      <point x="338.84400000000005" y="562.41" type="curve" smooth="yes"/>
      <point x="338.84400000000005" y="692.11"/>
      <point x="260.422" y="749.7520000000001"/>
      <point x="166.48" y="749.7520000000001" type="curve" smooth="yes"/>
      <point x="109.88600000000001" y="749.7520000000001"/>
      <point x="50.879999999999995" y="727.5939999999999"/>
      <point x="8.924" y="691.972" type="curve"/>
      <point x="36.705999999999996" y="629.054" type="line"/>
      <point x="77.624" y="662.0379999999999"/>
      <point x="118.5" y="674.876"/>
      <point x="156.126" y="674.876" type="curve" smooth="yes"/>
      <point x="212.95600000000002" y="674.876"/>
      <point x="260.012" y="631.394"/>
      <point x="260.012" y="553.284" type="curve" smooth="yes"/>
      <point x="260.012" y="481.63399999999996"/>
      <point x="231.976" y="430.584"/>
      <point x="128.10999999999999" y="369.736" type="curve"/>
    </contour>
    <contour>
      <point x="120.39" y="44.652" type="curve" smooth="yes"/>
      <point x="120.39" y="9.618"/>
      <point x="131.80800000000002" y="-3.162"/>
      <point x="164.186" y="-3.162" type="curve" smooth="yes"/>
      <point x="196.758" y="-3.162"/>
      <point x="207.42999999999998" y="9.618"/>
      <point x="207.42999999999998" y="44.652" type="curve" smooth="yes"/>
      <point x="207.42999999999998" y="79.99600000000001"/>
      <point x="196.758" y="92.77600000000001"/>
      <point x="164.186" y="92.77600000000001" type="curve" smooth="yes"/>
      <point x="130.566" y="92.77600000000001"/>
      <point x="120.39" y="79.99600000000001"/>
    </contour>
  </outline>
</glyph>
<glyph name="at" format="2">
  <advance width="639.564"/>
  <unicode hex="0040"/>
  <outline>
    <contour>
      <point x="322.208" y="-123.62" type="curve" smooth="yes"/>
      <point x="388.164" y="-123.62"/>
      <point x="454.632" y="-97.64"/>
      <point x="490.984" y="-68.0" type="curve"/>
      <point x="474.664" y="-33.888" type="line"/>
      <point x="436.51199999999994" y="-61.04"/>
      <point x="383.7" y="-81.41199999999999"/>
      <point x="324.068" y="-81.41199999999999" type="curve" smooth="yes"/>
      <point x="171.316" y="-81.41199999999999"/>
      <point x="78.324" y="6.812"/>
      <point x="78.324" y="266.816" type="curve" smooth="yes"/>
      <point x="78.324" y="499.352"/>
      <point x="150.84000000000003" y="669.9559999999999"/>
      <point x="329.128" y="669.9559999999999" type="curve" smooth="yes"/>
      <point x="504.54400000000004" y="669.9559999999999"/>
      <point x="564.52" y="556.6880000000001"/>
      <point x="564.52" y="344.428" type="curve" smooth="yes"/>
      <point x="564.52" y="212.16799999999998"/>
      <point x="541.0600000000001" y="107.032"/>
      <point x="495.85999999999996" y="107.032" type="curve" smooth="yes"/>
      <point x="466.85200000000003" y="107.032"/>
      <point x="442.36" y="130.248"/>
      <point x="449.03600000000006" y="248.60799999999998" type="curve" smooth="yes"/>
      <point x="465.508" y="516.032" type="line"/>
      <point x="421.72400000000005" y="532.944"/>
      <point x="381.184" y="542.328"/>
      <point x="339.988" y="542.328" type="curve" smooth="yes"/>
      <point x="218.264" y="542.328"/>
      <point x="168.944" y="414.19599999999997"/>
      <point x="168.944" y="265.756" type="curve" smooth="yes"/>
      <point x="168.944" y="113.264"/>
      <point x="211.32" y="59.108000000000004"/>
      <point x="275.00800000000004" y="59.108000000000004" type="curve" smooth="yes"/>
      <point x="337.452" y="59.108000000000004"/>
      <point x="368.99199999999996" y="110.12"/>
      <point x="391.964" y="192.268" type="curve"/>
      <point x="397.25199999999995" y="92.22"/>
      <point x="423.132" y="54.496"/>
      <point x="483.88" y="54.496" type="curve" smooth="yes"/>
      <point x="572.884" y="54.496"/>
      <point x="610.236" y="187.95600000000002"/>
      <point x="610.236" y="348.892" type="curve" smooth="yes"/>
      <point x="610.236" y="592.3880000000001"/>
      <point x="521.932" y="709.924"/>
      <point x="334.708" y="709.924" type="curve" smooth="yes"/>
      <point x="121.72" y="709.924"/>
      <point x="30.176000000000002" y="524.48"/>
      <point x="30.176000000000002" y="270.04" type="curve" smooth="yes"/>
      <point x="30.176000000000002" y="-15.355999999999998"/>
      <point x="139.332" y="-123.62"/>
    </contour>
    <contour>
      <point x="299.92" y="126.772" type="curve" smooth="yes"/>
      <point x="268.972" y="126.772"/>
      <point x="244.372" y="160.728"/>
      <point x="244.372" y="265.632" type="curve" smooth="yes"/>
      <point x="244.372" y="372.588"/>
      <point x="273.89200000000005" y="487.912"/>
      <point x="338.12" y="487.912" type="curve" smooth="yes"/>
      <point x="354.696" y="487.912"/>
      <point x="374.37200000000007" y="483.38000000000005"/>
      <point x="394.296" y="475.84" type="curve"/>
      <point x="385.48" y="360.86" type="line" smooth="yes"/>
      <point x="367.25600000000003" y="157.792"/>
      <point x="340.824" y="126.772"/>
    </contour>
  </outline>
</glyph>
<glyph name="A" format="2">
  <advance width="467.07599999999996"/>
  <unicode hex="0041"/>
  <anchor x="453.91200000000003" y="0.0" name="ogonek"/>
  <anchor x="232.788" y="0.0" name="bottom"/>
  <anchor x="233.90400000000002" y="700.0" name="top"/>
  <outline>
    <contour>
      <point x="13.287999999999998" y="0.0" type="line"/>
      <point x="92.34" y="0.0" type="line"/>
      <point x="135.624" y="180.77599999999995" type="line"/>
      <point x="329.1240000000001" y="180.77599999999995" type="line"/>
      <point x="372.552" y="0.0" type="line"/>
      <point x="453.91200000000003" y="0.0" type="line"/>
      <point x="280.336" y="706.9" type="line"/>
      <point x="186.452" y="706.9" type="line"/>
    </contour>
    <contour>
      <point x="148.55999999999997" y="254.088" type="line"/>
      <point x="232.76" y="627.5120000000001" type="line"/>
      <point x="316.264" y="254.088" type="line"/>
    </contour>
  </outline>
</glyph>
<glyph name="B" format="2">
  <advance width="468.02000000000004"/>
  <unicode hex="0042"/>
  <anchor x="228.32000000000002" y="700.0" name="top"/>
  <anchor x="228.32000000000002" y="0.0" name="bottom"/>
  <outline>
    <contour>
      <point x="53.46900000000001" y="-0.9789999999999996" type="line"/>
      <point x="138.98" y="-8.383"/>
      <point x="164.21200000000002" y="-10.0"/>
      <point x="226.25600000000003" y="-10.0" type="curve" smooth="yes"/>
      <point x="380.24800000000005" y="-10.0"/>
      <point x="442.74300000000005" y="51.471000000000004"/>
      <point x="442.74300000000005" y="192.528" type="curve" smooth="yes"/>
      <point x="442.74300000000005" y="283.33700000000005"/>
      <point x="399.986" y="348.033"/>
      <point x="327.54200000000003" y="369.45500000000004" type="curve"/>
      <point x="327.54200000000003" y="370.99600000000004" type="line"/>
      <point x="382.916" y="395.178"/>
      <point x="416.11699999999996" y="457.671"/>
      <point x="416.11699999999996" y="536.316" type="curve" smooth="yes"/>
      <point x="416.11699999999996" y="657.0"/>
      <point x="359.607" y="710.0"/>
      <point x="223.42000000000002" y="710.0" type="curve" smooth="yes"/>
      <point x="177.89800000000002" y="710.0"/>
      <point x="127.021" y="706.7630000000001"/>
      <point x="53.46900000000001" y="699.7510000000001" type="curve"/>
    </contour>
    <contour>
      <point x="131.12900000000002" y="386.296" type="line"/>
      <point x="131.12900000000002" y="636.4789999999999" type="line"/>
      <point x="175.04200000000003" y="640.783"/>
      <point x="186.562" y="641.783"/>
      <point x="221.04299999999998" y="641.783" type="curve" smooth="yes"/>
      <point x="308.267" y="641.783"/>
      <point x="344.192" y="602.241"/>
      <point x="344.192" y="516.3210000000001" type="curve" smooth="yes"/>
      <point x="344.192" y="440.319"/>
      <point x="306.276" y="386.296"/>
      <point x="246.551" y="386.296" type="curve" smooth="yes"/>
    </contour>
    <contour>
      <point x="131.12900000000002" y="63.287" type="curve"/>
      <point x="131.12900000000002" y="323.05100000000004" type="line"/>
      <point x="248.68499999999997" y="323.05100000000004" type="line" smooth="yes"/>
      <point x="324.252" y="323.05100000000004"/>
      <point x="364.61799999999994" y="275.089"/>
      <point x="364.61799999999994" y="195.16" type="curve" smooth="yes"/>
      <point x="364.61799999999994" y="97.902"/>
      <point x="326.319" y="58.445"/>
      <point x="223.25900000000004" y="58.445" type="curve" smooth="yes"/>
      <point x="199.45600000000002" y="58.445"/>
      <point x="178.854" y="59.907000000000004"/>
    </contour>
  </outline>
</glyph>
<glyph name="C" format="2">
  <advance width="436.882"/>
  <unicode hex="0043"/>
  <anchor x="254.07399999999996" y="700.0" name="top"/>
  <anchor x="254.51399999999998" y="0.0" name="bottom"/>
  <outline>
    <contour>
      <point x="32.616" y="339.05199999999996" type="curve" smooth="yes"/>
      <point x="32.616" y="72.806"/>
      <point x="113.71" y="-10.0"/>
      <point x="261.97" y="-10.0" type="curve" smooth="yes"/>
      <point x="319.162" y="-10.0"/>
      <point x="373.816" y="-2.4919999999999995"/>
      <point x="416.48" y="12.174000000000001" type="curve"/>
      <point x="402.53200000000004" y="79.30000000000001" type="line"/>
      <point x="366.478" y="68.1"/>
      <point x="313.482" y="60.666"/>
      <point x="274.116" y="60.666" type="curve" smooth="yes"/>
      <point x="167.636" y="60.666"/>
      <point x="110.71" y="125.19"/>
      <point x="110.71" y="338.494" type="curve" smooth="yes"/>
      <point x="110.71" y="571.238"/>
      <point x="169.278" y="638.72"/>
      <point x="278.85" y="638.72" type="curve" smooth="yes"/>
      <point x="317.982" y="638.72"/>
      <point x="351.146" y="634.1759999999999"/>
      <point x="391.226" y="622.942" type="curve"/>
      <point x="406.786" y="689.64" type="line"/>
      <point x="364.548" y="703.9680000000001"/>
      <point x="323.01800000000003" y="710.0"/>
      <point x="270.672" y="710.0" type="curve" smooth="yes"/>
      <point x="112.36200000000001" y="710.0"/>
      <point x="32.616" y="610.5540000000001"/>
    </contour>
  </outline>
</glyph>
<glyph name="D" format="2">
  <advance width="496.27000000000004"/>
  <unicode hex="0044"/>
  <anchor x="238.46600000000004" y="700.0" name="top"/>
  <outline>
    <contour>
      <point x="221.156" y="-10.0" type="curve" smooth="yes"/>
      <point x="387.668" y="-10.0"/>
      <point x="463.56100000000004" y="95.00900000000001"/>
      <point x="463.56100000000004" y="349.70199999999994" type="curve" smooth="yes"/>
      <point x="463.56100000000004" y="605.836"/>
      <point x="394.844" y="710.0"/>
      <point x="218.15900000000002" y="710.0" type="curve" smooth="yes"/>
      <point x="163.35500000000002" y="710.0"/>
      <point x="112.918" y="707.4590000000001"/>
      <point x="53.46900000000001" y="701.526" type="curve"/>
      <point x="53.46900000000001" y="-3.3740000000000006" type="line"/>
      <point x="105.672" y="-7.380000000000001"/>
      <point x="163.34" y="-10.0"/>
    </contour>
    <contour>
      <point x="220.468" y="57.28699999999999" type="curve" smooth="yes"/>
      <point x="195.772" y="57.28699999999999"/>
      <point x="158.558" y="58.901"/>
      <point x="130.974" y="61.284" type="curve"/>
      <point x="130.974" y="637.7919999999999" type="line"/>
      <point x="158.99599999999998" y="640.096"/>
      <point x="194.86" y="641.634"/>
      <point x="218.775" y="641.634" type="curve" smooth="yes"/>
      <point x="336.3740000000001" y="641.634"/>
      <point x="383.1960000000001" y="570.4560000000001"/>
      <point x="383.1960000000001" y="348.848" type="curve" smooth="yes"/>
      <point x="383.1960000000001" y="132.717"/>
      <point x="334.45" y="57.28699999999999"/>
    </contour>
  </outline>
</glyph>
<glyph name="E" format="2">
  <advance width="418.115"/>
  <unicode hex="0045"/>
  <anchor x="398.80799999999994" y="0.0" name="ogonek"/>
  <anchor x="226.25099999999998" y="0.0" name="bottom"/>
  <anchor x="222.81000000000003" y="700.0" name="top"/>
  <outline>
    <contour>
      <point x="53.46900000000001" y="0.0" type="line"/>
      <point x="399.11799999999994" y="0.0" type="line"/>
      <point x="399.11799999999994" y="73.00999999999999" type="line"/>
      <point x="131.439" y="73.00999999999999" type="line"/>
      <point x="131.439" y="326.30400000000003" type="line"/>
      <point x="364.71700000000004" y="326.30400000000003" type="line"/>
      <point x="364.71700000000004" y="396.995" type="line"/>
      <point x="131.439" y="396.995" type="line"/>
      <point x="131.439" y="626.215" type="line"/>
      <point x="385.039" y="626.215" type="line"/>
      <point x="385.039" y="700.0" type="line"/>
      <point x="53.46900000000001" y="700.0" type="line"/>
    </contour>
  </outline>
</glyph>
<glyph name="F" format="2">
  <advance width="395.884"/>
  <unicode hex="0046"/>
  <outline>
    <contour>
      <point x="53.46900000000001" y="0.0" type="line"/>
      <point x="131.594" y="0.0" type="line"/>
      <point x="131.594" y="296.82800000000003" type="line"/>
      <point x="345.44000000000005" y="296.82800000000003" type="line"/>
      <point x="345.44000000000005" y="369.534" type="line"/>
      <point x="130.974" y="369.534" type="line"/>
      <point x="130.974" y="625.595" type="line"/>
      <point x="383.954" y="625.595" type="line"/>
      <point x="383.954" y="700.0" type="line"/>
      <point x="53.46900000000001" y="700.0" type="line"/>
    </contour>
  </outline>
</glyph>
<glyph name="G" format="2">
  <advance width="470.594"/>
  <unicode hex="0047"/>
  <anchor x="252.43000000000004" y="700.0" name="top"/>
  <anchor x="253.77" y="0.0" name="bottom"/>
  <outline>
    <contour>
      <point x="32.616" y="339.54799999999994" type="curve" smooth="yes"/>
      <point x="32.616" y="100.158"/>
      <point x="103.182" y="-10.0"/>
      <point x="253.222" y="-10.0" type="curve" smooth="yes"/>
      <point x="323.20799999999997" y="-10.0"/>
      <point x="385.462" y="0.7960000000000005"/>
      <point x="428.882" y="22.4" type="curve"/>
      <point x="428.882" y="359.736" type="line"/>
      <point x="243.10999999999999" y="359.736" type="line"/>
      <point x="243.10999999999999" y="292.3" type="line"/>
      <point x="357.79400000000004" y="292.3" type="line"/>
      <point x="357.79400000000004" y="70.37599999999999" type="line"/>
      <point x="332.152" y="61.436"/>
      <point x="299.586" y="57.194"/>
      <point x="258.982" y="57.194" type="curve" smooth="yes"/>
      <point x="159.186" y="57.194"/>
      <point x="110.214" y="141.058"/>
      <point x="110.214" y="336.758" type="curve" smooth="yes"/>
      <point x="110.214" y="548.266"/>
      <point x="162.97" y="639.216"/>
      <point x="273.8" y="639.216" type="curve" smooth="yes"/>
      <point x="313.72400000000005" y="639.216"/>
      <point x="356.704" y="632.9759999999999"/>
      <point x="397.14400000000006" y="620.9" type="curve"/>
      <point x="411.52599999999995" y="687.818" type="line"/>
      <point x="370.262" y="701.9399999999999"/>
      <point x="318.75600000000003" y="710.0"/>
      <point x="266.86199999999997" y="710.0" type="curve" smooth="yes"/>
      <point x="108.27" y="710.0"/>
      <point x="32.616" y="594.7379999999999"/>
    </contour>
  </outline>
</glyph>
<glyph name="H" format="2">
  <advance width="513.154"/>
  <unicode hex="0048"/>
  <anchor x="256.77000000000004" y="700.0" name="top"/>
  <outline>
    <contour>
      <point x="53.43800000000001" y="0.0" type="line"/>
      <point x="130.47799999999998" y="0.0" type="line"/>
      <point x="130.47799999999998" y="270.278" type="line"/>
      <point x="382.676" y="270.278" type="line"/>
      <point x="382.676" y="0.0" type="line"/>
      <point x="459.71599999999995" y="0.0" type="line"/>
      <point x="459.71599999999995" y="700.0" type="line"/>
      <point x="382.676" y="700.0" type="line"/>
      <point x="382.676" y="344.286" type="line"/>
      <point x="130.47799999999998" y="344.286" type="line"/>
      <point x="130.47799999999998" y="700.0" type="line"/>
      <point x="53.43800000000001" y="700.0" type="line"/>
    </contour>
  </outline>
</glyph>
<glyph name="I" format="2">
  <advance width="183.916"/>
  <unicode hex="0049"/>
  <anchor x="130.47799999999998" y="0.0" name="ogonek"/>
  <anchor x="92.082" y="0.0" name="bottom"/>
  <anchor x="92.082" y="700.0" name="top"/>
  <outline>
    <contour>
      <point x="53.43800000000001" y="0.0" type="line"/>
      <point x="130.47799999999998" y="0.0" type="line"/>
      <point x="130.47799999999998" y="700.0" type="line"/>
      <point x="53.43800000000001" y="700.0" type="line"/>
    </contour>
  </outline>
</glyph>
<glyph name="J" format="2">
  <advance width="352.174"/>
  <unicode hex="004A"/>
  <anchor x="175.808" y="700.0" name="top"/>
  <outline>
    <contour>
      <point x="7.506" y="12.357999999999999" type="line"/>
      <point x="48.608000000000004" y="-1.638"/>
      <point x="97.11000000000001" y="-10.138"/>
      <point x="141.488" y="-10.138" type="curve" smooth="yes"/>
      <point x="260.432" y="-10.138"/>
      <point x="306.56600000000003" y="54.622"/>
      <point x="306.56600000000003" y="166.278" type="curve" smooth="yes"/>
      <point x="306.56600000000003" y="700.0" type="line"/>
      <point x="38.84199999999999" y="700.0" type="line"/>
      <point x="38.84199999999999" y="627.17" type="line"/>
      <point x="229.526" y="627.17" type="line"/>
      <point x="229.526" y="184.772" type="line" smooth="yes"/>
      <point x="229.526" y="92.12799999999999"/>
      <point x="192.81400000000002" y="60.646"/>
      <point x="119.97400000000002" y="60.646" type="curve" smooth="yes"/>
      <point x="92.19200000000001" y="60.646"/>
      <point x="55.756" y="66.05199999999999"/>
      <point x="22.192" y="76.08" type="curve"/>
    </contour>
  </outline>
</glyph>
<glyph name="K" format="2">
  <advance width="468.27"/>
  <unicode hex="004B"/>
  <anchor x="235.16000000000003" y="700.0" name="top"/>
  <anchor x="241.64000000000001" y="0.0" name="bottom"/>
  <outline>
    <contour>
      <point x="440.56" y="-10.0" type="curve" smooth="yes"/>
      <point x="445.73" y="-10.0"/>
      <point x="451.65999999999997" y="-10.0"/>
      <point x="459.52" y="-8.0" type="curve"/>
      <point x="459.52" y="78.53" type="line"/>
      <point x="455.9" y="78.15"/>
      <point x="451.78" y="78.15"/>
      <point x="448.65999999999997" y="78.15" type="curve" smooth="yes"/>
      <point x="421.09" y="78.34"/>
      <point x="396.63" y="90.98"/>
      <point x="333.61" y="173.75" type="curve" smooth="yes"/>
      <point x="131.35999999999999" y="440.01" type="line"/>
      <point x="131.35999999999999" y="700.0" type="line"/>
      <point x="53.699999999999996" y="700.0" type="line"/>
      <point x="53.699999999999996" y="0.0" type="line"/>
      <point x="131.35999999999999" y="0.0" type="line"/>
      <point x="131.35999999999999" y="317.81" type="line"/>
      <point x="305.45" y="90.33" type="line" smooth="yes"/>
      <point x="359.37" y="19.85"/>
      <point x="395.93" y="-10.0"/>
    </contour>
    <contour>
      <point x="213.43" y="294.2" type="line"/>
      <point x="300.93" y="377.19"/>
      <point x="397.6" y="504.34999999999997"/>
      <point x="444.21" y="679.64" type="curve"/>
      <point x="380.14" y="703.31" type="line"/>
      <point x="332.29" y="537.1"/>
      <point x="236.04" y="417.89"/>
      <point x="168.01999999999998" y="349.59" type="curve"/>
    </contour>
  </outline>
</glyph>
<glyph name="L" format="2">
  <advance width="380.19"/>
  <unicode hex="004C"/>
  <anchor x="190.288" y="350.0" name="center"/>
  <anchor x="92.082" y="700.0" name="top"/>
  <anchor x="247.04" y="700.0" name="topright"/>
  <anchor x="210.818" y="0.0" name="bottom"/>
  <outline>
    <contour>
      <point x="53.43800000000001" y="0.0" type="line"/>
      <point x="369.33" y="0.0" type="line"/>
      <point x="369.33" y="72.27199999999999" type="line"/>
      <point x="130.726" y="72.27199999999999" type="line"/>
      <point x="130.726" y="700.0" type="line"/>
      <point x="53.43800000000001" y="700.0" type="line"/>
    </contour>
  </outline>
</glyph>
<glyph name="M" format="2">
  <advance width="576.624"/>
  <unicode hex="004D"/>
  <outline>
    <contour>
      <point x="53.638000000000005" y="0.0" type="line"/>
      <point x="124.664" y="0.0" type="line"/>
      <point x="124.664" y="564.568" type="line"/>
      <point x="267.486" y="231.02" type="line"/>
      <point x="307.332" y="231.02" type="line"/>
      <point x="451.96000000000004" y="565.6220000000001" type="line"/>
      <point x="451.96000000000004" y="0.0" type="line"/>
      <point x="522.986" y="0.0" type="line"/>
      <point x="522.986" y="700.0" type="line"/>
      <point x="444.64" y="700.0" type="line"/>
      <point x="289.80400000000003" y="341.548" type="line"/>
      <point x="134.964" y="700.0" type="line"/>
      <point x="53.638000000000005" y="700.0" type="line"/>
    </contour>
  </outline>
</glyph>
<glyph name="N" format="2">
  <advance width="509.795"/>
  <unicode hex="004E"/>
  <anchor x="255.07" y="700.0" name="top"/>
  <anchor x="255.07" y="0.0" name="bottom"/>
  <outline>
    <contour>
      <point x="53.545" y="0.0" type="line"/>
      <point x="123.455" y="0.0" type="line"/>
      <point x="123.455" y="542.1550000000001" type="line"/>
      <point x="379.64" y="-0.62" type="line"/>
      <point x="456.24999999999994" y="-0.62" type="line"/>
      <point x="456.24999999999994" y="700.0" type="line"/>
      <point x="386.34" y="700.0" type="line"/>
      <point x="386.34" y="150.02500000000003" type="line"/>
      <point x="130.12" y="701.38" type="line"/>
      <point x="53.545" y="701.38" type="line"/>
    </contour>
  </outline>
</glyph>
<glyph name="O" format="2">
  <advance width="514.715"/>
  <unicode hex="004F"/>
  <anchor x="309.41" y="2.79" name="ogonek"/>
  <anchor x="256.59000000000003" y="700.0" name="top"/>
  <anchor x="381.41499999999996" y="687.84" name="topright"/>
  <anchor x="256.745" y="0.0" name="bottom"/>
  <outline>
    <contour>
      <point x="256.59000000000003" y="57.79" type="curve" smooth="yes"/>
      <point x="172.415" y="57.79"/>
      <point x="111.68500000000002" y="115.13"/>
      <point x="111.68500000000002" y="349.155" type="curve" smooth="yes"/>
      <point x="111.68500000000002" y="586.595"/>
      <point x="172.105" y="642.83"/>
      <point x="256.59000000000003" y="642.83" type="curve" smooth="yes"/>
      <point x="342.38500000000005" y="642.83"/>
      <point x="402.68499999999995" y="586.9399999999999"/>
      <point x="402.68499999999995" y="349.62" type="curve" smooth="yes"/>
      <point x="402.68499999999995" y="114.3"/>
      <point x="342.38500000000005" y="57.79"/>
    </contour>
    <contour>
      <point x="256.745" y="-10.0" type="curve" smooth="yes"/>
      <point x="394.585" y="-10.0"/>
      <point x="481.62" y="66.55999999999999"/>
      <point x="481.62" y="351.08500000000004" type="curve" smooth="yes"/>
      <point x="481.62" y="633.4399999999999"/>
      <point x="394.565" y="710.0"/>
      <point x="256.59000000000003" y="710.0" type="curve" smooth="yes"/>
      <point x="118.92500000000001" y="710.0"/>
      <point x="33.095" y="632.63"/>
      <point x="33.095" y="349.31" type="curve" smooth="yes"/>
      <point x="33.095" y="68.51"/>
      <point x="120.32000000000002" y="-10.0"/>
    </contour>
  </outline>
</glyph>
<glyph name="P" format="2">
  <advance width="458.39"/>
  <unicode hex="0050"/>
  <outline>
    <contour>
      <point x="53.43800000000001" y="0.0" type="line"/>
      <point x="130.726" y="0.0" type="line"/>
      <point x="130.726" y="246.63" type="line"/>
      <point x="175.528" y="244.286"/>
      <point x="192.43800000000002" y="244.14799999999997"/>
      <point x="234.52999999999997" y="244.14799999999997" type="curve" smooth="yes"/>
      <point x="376.41400000000004" y="244.14799999999997"/>
      <point x="436.268" y="313.68199999999996"/>
      <point x="436.268" y="485.058" type="curve" smooth="yes"/>
      <point x="436.268" y="648.3839999999999"/>
      <point x="388.586" y="710.0"/>
      <point x="217.29800000000003" y="710.0" type="curve" smooth="yes"/>
      <point x="187.872" y="710.0"/>
      <point x="137.808" y="708.1859999999999"/>
      <point x="53.43800000000001" y="702.7040000000001" type="curve"/>
    </contour>
    <contour>
      <point x="130.974" y="638.3499999999999" type="line"/>
      <point x="177.906" y="642.102"/>
      <point x="199.898" y="642.9300000000001"/>
      <point x="222.5" y="642.9300000000001" type="curve" smooth="yes"/>
      <point x="332.222" y="642.9300000000001"/>
      <point x="358.546" y="597.956"/>
      <point x="358.546" y="486.316" type="curve" smooth="yes"/>
      <point x="358.546" y="358.862"/>
      <point x="323.188" y="311.764"/>
      <point x="218.156" y="311.764" type="curve" smooth="yes"/>
      <point x="185.022" y="311.764"/>
      <point x="165.03000000000003" y="312.24"/>
      <point x="130.974" y="313.95" type="curve"/>
    </contour>
  </outline>
</glyph>
<glyph name="Q" format="2">
  <advance width="514.8080000000001"/>
  <unicode hex="0051"/>
  <outline>
    <contour>
      <point x="313.872" y="19.244" type="curve"/>
      <point x="251.1" y="3.5919999999999996" type="line"/>
      <point x="277.596" y="-139.6"/>
      <point x="311.80400000000003" y="-197.286"/>
      <point x="382.27" y="-197.286" type="curve" smooth="yes"/>
      <point x="404.494" y="-197.286"/>
      <point x="430.036" y="-191.596"/>
      <point x="455.854" y="-181.278" type="curve"/>
      <point x="444.89" y="-112.322" type="line"/>
      <point x="427.102" y="-120.652"/>
      <point x="409.83" y="-125.156"/>
      <point x="395.19" y="-125.156" type="curve" smooth="yes"/>
      <point x="355.12199999999996" y="-125.156"/>
      <point x="334.59" y="-86.006"/>
    </contour>
    <component base="O"/>
  </outline>
</glyph>
<glyph name="R" format="2">
  <advance width="485.24"/>
  <unicode hex="0052"/>
  <anchor x="234.32999999999998" y="700.0" name="top"/>
  <anchor x="242.3" y="0.0" name="bottom"/>
  <outline>
    <contour>
      <point x="451.95" y="-10.0" type="curve" smooth="yes"/>
      <point x="463.65" y="-10.0"/>
      <point x="471.94" y="-7.5"/>
      <point x="478.22999999999996" y="-6.0" type="curve"/>
      <point x="475.84999999999997" y="72.14" type="line"/>
      <point x="472.97" y="71.75999999999999"/>
      <point x="465.34999999999997" y="71.07"/>
      <point x="463.34999999999997" y="71.07" type="curve" smooth="yes"/>
      <point x="428.49" y="71.07"/>
      <point x="387.62" y="108.03999999999999"/>
      <point x="314.0" y="295.14" type="curve"/>
      <point x="391.16" y="320.27000000000004"/>
      <point x="432.84999999999997" y="386.34999999999997"/>
      <point x="432.84999999999997" y="505.15000000000003" type="curve" smooth="yes"/>
      <point x="432.84999999999997" y="656.01"/>
      <point x="368.36" y="710.0"/>
      <point x="216.64999999999998" y="710.0" type="curve" smooth="yes"/>
      <point x="163.92" y="710.0"/>
      <point x="115.87" y="707.38"/>
      <point x="53.699999999999996" y="702.26" type="curve"/>
      <point x="53.699999999999996" y="0.0" type="line"/>
      <point x="130.74" y="0.0" type="line"/>
      <point x="130.74" y="272.71" type="line"/>
      <point x="154.2" y="271.52"/>
      <point x="181.01999999999998" y="271.33"/>
      <point x="205.35999999999999" y="271.33" type="curve" smooth="yes"/>
      <point x="215.89999999999998" y="271.33"/>
      <point x="231.64000000000001" y="272.02"/>
      <point x="241.99" y="273.21" type="curve"/>
      <point x="334.92" y="33.879999999999995"/>
      <point x="386.62" y="-10.0"/>
    </contour>
    <contour>
      <point x="215.97" y="339.69" type="curve" smooth="yes"/>
      <point x="187.29" y="339.69"/>
      <point x="161.66" y="340.5"/>
      <point x="130.74" y="342.0" type="curve"/>
      <point x="130.74" y="638.33" type="line"/>
      <point x="166.57" y="641.83"/>
      <point x="185.04" y="642.52"/>
      <point x="217.03" y="642.52" type="curve" smooth="yes"/>
      <point x="321.49" y="642.52"/>
      <point x="353.64" y="601.34"/>
      <point x="353.64" y="494.16" type="curve" smooth="yes"/>
      <point x="353.64" y="382.8"/>
      <point x="310.2" y="339.69"/>
    </contour>
  </outline>
</glyph>
<glyph name="S" format="2">
  <advance width="430.19"/>
  <unicode hex="0053"/>
  <anchor x="220.855" y="700.0" name="top"/>
  <anchor x="212.76999999999998" y="0.0" name="bottom"/>
  <outline>
    <contour>
      <point x="379.45500000000004" y="684.04" type="line"/>
      <point x="346.15" y="697.555"/>
      <point x="283.715" y="710.0"/>
      <point x="229.61" y="710.0" type="curve" smooth="yes"/>
      <point x="99.88999999999999" y="710.0"/>
      <point x="32.82" y="637.2750000000001"/>
      <point x="32.82" y="538.505" type="curve" smooth="yes"/>
      <point x="32.82" y="441.15000000000003"/>
      <point x="83.16000000000001" y="381.03"/>
      <point x="177.445" y="326.02000000000004" type="curve" smooth="yes"/>
      <point x="273.91" y="271.34000000000003"/>
      <point x="327.435" y="228.255"/>
      <point x="327.435" y="158.635" type="curve" smooth="yes"/>
      <point x="327.435" y="91.32"/>
      <point x="274.8" y="57.74"/>
      <point x="195.805" y="57.74" type="curve" smooth="yes"/>
      <point x="146.65500000000003" y="57.74"/>
      <point x="82.83" y="68.82499999999999"/>
      <point x="35.51500000000001" y="86.77000000000001" type="curve"/>
      <point x="17.904999999999998" y="22.39" type="line"/>
      <point x="63.63000000000001" y="2.845"/>
      <point x="138.505" y="-10.0"/>
      <point x="195.03" y="-10.0" type="curve" smooth="yes"/>
      <point x="325.24" y="-10.0"/>
      <point x="405.285" y="54.005"/>
      <point x="405.285" y="164.235" type="curve" smooth="yes"/>
      <point x="405.285" y="264.535"/>
      <point x="351.53499999999997" y="322.26000000000005"/>
      <point x="251.48000000000002" y="377.22" type="curve" smooth="yes"/>
      <point x="157.54500000000002" y="429.17999999999995"/>
      <point x="111.28999999999999" y="471.28"/>
      <point x="111.28999999999999" y="540.21" type="curve" smooth="yes"/>
      <point x="111.28999999999999" y="604.16"/>
      <point x="158.52499999999998" y="641.5899999999999"/>
      <point x="232.86499999999998" y="641.5899999999999" type="curve" smooth="yes"/>
      <point x="276.74000000000007" y="641.5899999999999"/>
      <point x="325.595" y="633.5899999999999"/>
      <point x="362.19000000000005" y="619.765" type="curve"/>
    </contour>
  </outline>
</glyph>
<glyph name="T" format="2">
  <advance width="409.952"/>
  <unicode hex="0054"/>
  <anchor x="204.976" y="700.0" name="top"/>
  <anchor x="204.976" y="0.0" name="bottom"/>
  <outline>
    <contour>
      <point x="401.714" y="626.874" type="line"/>
      <point x="401.714" y="700.0" type="line"/>
      <point x="8.238" y="700.0" type="line"/>
      <point x="8.238" y="626.874" type="line"/>
      <point x="166.57999999999998" y="626.874" type="line"/>
      <point x="166.57999999999998" y="0.0" type="line"/>
      <point x="243.62" y="0.0" type="line"/>
      <point x="243.62" y="626.874" type="line"/>
    </contour>
  </outline>
</glyph>
<glyph name="U" format="2">
  <advance width="496.46000000000004"/>
  <unicode hex="0055"/>
  <anchor x="298.622" y="0.496" name="ogonek"/>
  <anchor x="248.63000000000002" y="700.0" name="top"/>
  <anchor x="450.85200000000003" y="700.0" name="topright"/>
  <anchor x="248.63000000000002" y="0.0" name="bottom"/>
  <outline>
    <contour>
      <point x="45.608" y="184.06399999999996" type="line"/>
      <point x="45.608" y="32.36"/>
      <point x="137.032" y="-10.0"/>
      <point x="248.13400000000001" y="-10.0" type="curve" smooth="yes"/>
      <point x="360.97200000000004" y="-10.0"/>
      <point x="450.85200000000003" y="32.36"/>
      <point x="450.85200000000003" y="184.06399999999996" type="curve" smooth="yes"/>
      <point x="450.85200000000003" y="700.0" type="line"/>
      <point x="373.812" y="700.0" type="line"/>
      <point x="373.812" y="179.84800000000004" type="line" smooth="yes"/>
      <point x="373.812" y="80.43199999999999"/>
      <point x="311.91200000000003" y="58.422"/>
      <point x="248.32000000000002" y="58.422" type="curve" smooth="yes"/>
      <point x="185.40999999999997" y="58.422"/>
      <point x="122.152" y="79.874"/>
      <point x="122.152" y="179.84800000000004" type="curve" smooth="yes"/>
      <point x="122.152" y="700.0" type="line"/>
      <point x="45.608" y="700.0" type="line"/>
    </contour>
  </outline>
</glyph>
<glyph name="V" format="2">
  <advance width="456.26599999999996"/>
  <unicode hex="0056"/>
  <outline>
    <contour>
      <point x="183.38199999999998" y="0.0" type="line"/>
      <point x="274.93" y="0.0" type="line"/>
      <point x="449.606" y="698.93" type="line"/>
      <point x="369.17199999999997" y="702.132" type="line"/>
      <point x="229.28" y="91.0" type="line"/>
      <point x="87.28" y="702.132" type="line"/>
      <point x="6.66" y="698.93" type="line"/>
    </contour>
  </outline>
</glyph>
<glyph name="W" format="2">
  <advance width="611.48"/>
  <unicode hex="0057"/>
  <anchor x="305.49" y="700.0" name="top"/>
  <anchor x="305.49" y="0.0" name="bottom"/>
  <outline>
    <contour>
      <point x="490.92400000000004" y="0.0" type="line"/>
      <point x="604.952" y="699.306" type="line"/>
      <point x="522.2739999999999" y="701.756" type="line"/>
      <point x="448.292" y="106.82600000000001" type="line"/>
      <point x="340.062" y="678.612" type="line"/>
      <point x="274.58" y="678.612" type="line"/>
      <point x="165.296" y="106.578" type="line"/>
      <point x="88.834" y="701.756" type="line"/>
      <point x="6.5280000000000005" y="699.306" type="line"/>
      <point x="119.816" y="0.0" type="line"/>
      <point x="199.22" y="0.0" type="line"/>
      <point x="303.874" y="543.17" type="line"/>
      <point x="406.238" y="0.0" type="line"/>
    </contour>
  </outline>
</glyph>
<glyph name="X" format="2">
  <advance width="462.84"/>
  <unicode hex="0058"/>
  <outline>
    <contour>
      <point x="14.459999999999999" y="2.0700000000000003" type="line"/>
      <point x="101.52" y="-3.4499999999999997" type="line"/>
      <point x="230.07500000000002" y="297.355" type="line"/>
      <point x="359.15" y="-3.4499999999999997" type="line"/>
      <point x="446.795" y="2.0700000000000003" type="line"/>
      <point x="283.34" y="359.53499999999997" type="line"/>
      <point x="437.225" y="697.3949999999999" type="line"/>
      <point x="352.215" y="702.605" type="line"/>
      <point x="235.055" y="420.27" type="line"/>
      <point x="114.62" y="702.605" type="line"/>
      <point x="26.665000000000003" y="697.3949999999999" type="line"/>
      <point x="181.86" y="358.76" type="line"/>
    </contour>
  </outline>
</glyph>
<glyph name="Y" format="2">
  <advance width="448.2"/>
  <unicode hex="0059"/>
  <anchor x="224.652" y="700.0" name="top"/>
  <anchor x="225.06600000000003" y="0.0" name="bottom"/>
  <outline>
    <contour>
      <point x="186.97400000000002" y="0.0" type="line"/>
      <point x="264.014" y="0.0" type="line"/>
      <point x="264.014" y="282.67" type="line"/>
      <point x="440.084" y="697.2399999999999" type="line"/>
      <point x="356.57200000000006" y="702.7600000000001" type="line"/>
      <point x="225.742" y="342.39199999999994" type="line"/>
      <point x="89.66799999999999" y="702.7600000000001" type="line"/>
      <point x="5.9079999999999995" y="697.2399999999999" type="line"/>
      <point x="186.97400000000002" y="282.67" type="line"/>
    </contour>
  </outline>
</glyph>
<glyph name="Z" format="2">
  <advance width="431.47600000000006"/>
  <unicode hex="005A"/>
  <anchor x="220.30200000000002" y="350.0" name="center"/>
  <anchor x="220.30200000000002" y="0.0" name="bottom"/>
  <anchor x="220.77599999999998" y="700.0" name="top"/>
  <outline>
    <contour>
      <point x="19.45" y="0.0" type="line"/>
      <point x="416.622" y="0.0" type="line"/>
      <point x="416.622" y="69.296" type="line"/>
      <point x="103.50200000000001" y="69.296" type="line"/>
      <point x="103.50200000000001" y="70.986" type="line"/>
      <point x="399.184" y="632.92" type="line"/>
      <point x="399.184" y="700.0" type="line"/>
      <point x="36.092" y="700.0" type="line"/>
      <point x="36.092" y="631.014" type="line"/>
      <point x="315.132" y="631.014" type="line"/>
      <point x="315.132" y="629.014" type="line"/>
      <point x="19.45" y="67.39000000000001" type="line"/>
    </contour>
  </outline>
</glyph>
<glyph name="bracketleft" format="2">
  <advance width="248.97199999999998"/>
  <unicode hex="005B"/>
  <outline>
    <contour>
      <point x="115.034" y="-149.7" type="line"/>
      <point x="115.034" y="679.7" type="line"/>
      <point x="234.972" y="679.7" type="line"/>
      <point x="234.972" y="740.0" type="line"/>
      <point x="53.99" y="740.0" type="line"/>
      <point x="53.99" y="-210.0" type="line"/>
      <point x="234.972" y="-210.0" type="line"/>
      <point x="234.972" y="-149.7" type="line"/>
    </contour>
  </outline>
</glyph>
<glyph name="backslash" format="2">
  <advance width="302.58599999999996"/>
  <unicode hex="005C"/>
  <outline>
    <contour>
      <point x="65.298" y="740.0" type="line"/>
      <point x="0.6240000000000003" y="740.0" type="line"/>
      <point x="237.536" y="-210.0" type="line"/>
      <point x="301.962" y="-210.0" type="line"/>
    </contour>
  </outline>
</glyph>
<glyph name="bracketright" format="2">
  <advance width="248.97199999999998"/>
  <unicode hex="005D"/>
  <outline>
    <contour>
      <point x="14.000000000000002" y="-149.7" type="line"/>
      <point x="14.000000000000002" y="-210.0" type="line"/>
      <point x="194.982" y="-210.0" type="line"/>
      <point x="194.982" y="740.0" type="line"/>
      <point x="14.000000000000002" y="740.0" type="line"/>
      <point x="14.000000000000002" y="679.7" type="line"/>
      <point x="133.938" y="679.7" type="line"/>
      <point x="133.938" y="-149.7" type="line"/>
    </contour>
  </outline>
</glyph>
<glyph name="asciicircum" format="2">
  <advance width="434.164"/>
  <unicode hex="005E"/>
  <outline>
    <contour>
      <point x="41.61" y="264.63599999999997" type="line"/>
      <point x="101.94599999999998" y="264.63599999999997" type="line"/>
      <point x="217.082" y="627.646" type="line"/>
      <point x="332.52799999999996" y="264.63599999999997" type="line"/>
      <point x="392.55400000000003" y="264.63599999999997" type="line"/>
      <point x="253.494" y="706.9" type="line"/>
      <point x="180.67" y="706.9" type="line"/>
    </contour>
  </outline>
</glyph>
<glyph name="underscore" format="2">
  <advance width="693.344"/>
  <unicode hex="005F"/>
  <outline>
    <contour>
      <point x="6.2" y="-158.692" type="line"/>
      <point x="687.144" y="-158.692" type="line"/>
      <point x="687.144" y="-92.812" type="line"/>
      <point x="6.2" y="-92.812" type="line"/>
    </contour>
  </outline>
</glyph>
<glyph name="a" format="2">
  <advance width="406.76"/>
  <unicode hex="0061"/>
  <anchor x="405.64000000000004" y="5.2" name="ogonek"/>
  <anchor x="196.35" y="0.0" name="bottom"/>
  <anchor x="195.75" y="536.2" name="top"/>
  <outline>
    <contour>
      <point x="18.659999999999997" y="126.36" type="curve" smooth="yes"/>
      <point x="18.659999999999997" y="42.279999999999994"/>
      <point x="61.95" y="-10.0"/>
      <point x="135.06" y="-10.0" type="curve" smooth="yes"/>
      <point x="194.63" y="-10.0"/>
      <point x="238.43" y="16.11"/>
      <point x="275.28999999999996" y="49.49" type="curve"/>
      <point x="282.73" y="10.209999999999999"/>
      <point x="306.38" y="-10.0"/>
      <point x="346.94" y="-10.0" type="curve" smooth="yes"/>
      <point x="369.71999999999997" y="-10.0"/>
      <point x="388.04" y="-4.590000000000001"/>
      <point x="405.64000000000004" y="5.51" type="curve"/>
      <point x="396.97" y="67.77" type="line"/>
      <point x="387.95" y="63.38999999999999"/>
      <point x="379.07" y="62.01"/>
      <point x="371.31" y="62.01" type="curve" smooth="yes"/>
      <point x="355.65000000000003" y="62.01"/>
      <point x="345.7" y="71.53"/>
      <point x="345.7" y="105.38" type="curve" smooth="yes"/>
      <point x="345.7" y="390.14000000000004" type="line" smooth="yes"/>
      <point x="345.7" y="491.71"/>
      <point x="295.38" y="546.2"/>
      <point x="183.5" y="546.2" type="curve" smooth="yes"/>
      <point x="142.74999999999997" y="546.2"/>
      <point x="92.16" y="537.72"/>
      <point x="46.44" y="521.86" type="curve"/>
      <point x="62.24" y="455.81" type="line"/>
      <point x="107.77" y="470.55"/>
      <point x="148.10999999999999" y="474.74"/>
      <point x="177.48999999999998" y="474.74" type="curve" smooth="yes"/>
      <point x="237.4" y="474.74"/>
      <point x="269.78000000000003" y="443.97"/>
      <point x="269.78000000000003" y="388.59" type="curve" smooth="yes"/>
      <point x="269.78000000000003" y="301.34" type="line"/>
      <point x="109.91" y="280.44"/>
      <point x="18.659999999999997" y="248.51000000000002"/>
    </contour>
    <contour>
      <point x="94.77" y="134.14999999999998" type="curve" smooth="yes"/>
      <point x="94.77" y="216.42999999999998"/>
      <point x="170.32" y="237.75"/>
      <point x="269.78000000000003" y="250.1" type="curve"/>
      <point x="269.78000000000003" y="103.08" type="line"/>
      <point x="242.39000000000001" y="73.45"/>
      <point x="201.36" y="49.61"/>
      <point x="160.42999999999998" y="49.61" type="curve" smooth="yes"/>
      <point x="120.02000000000001" y="49.61"/>
      <point x="94.77" y="78.55000000000001"/>
    </contour>
  </outline>
</glyph>
<glyph name="b" format="2">
  <advance width="420.648"/>
  <unicode hex="0062"/>
  <outline>
    <contour>
      <point x="49.46" y="11.244" type="line"/>
      <point x="103.23" y="-2.754"/>
      <point x="151.13" y="-10.0"/>
      <point x="192.11200000000002" y="-10.0" type="curve" smooth="yes"/>
      <point x="332.378" y="-10.0"/>
      <point x="390.15000000000003" y="71.78599999999999"/>
      <point x="390.15000000000003" y="281.892" type="curve" smooth="yes"/>
      <point x="390.15000000000003" y="454.942"/>
      <point x="339.69" y="546.2"/>
      <point x="245.32000000000002" y="546.2" type="curve" smooth="yes"/>
      <point x="205.732" y="546.2"/>
      <point x="163.15200000000002" y="532.096"/>
      <point x="125.25999999999999" y="506.47999999999996" type="curve"/>
      <point x="125.25999999999999" y="740.0" type="line"/>
      <point x="49.46" y="740.0" type="line"/>
    </contour>
    <contour>
      <point x="125.25999999999999" y="59.38999999999999" type="curve"/>
      <point x="125.25999999999999" y="444.54" type="line"/>
      <point x="162.368" y="469.142"/>
      <point x="188.09199999999998" y="478.2"/>
      <point x="219.93" y="478.2" type="curve" smooth="yes"/>
      <point x="278.824" y="478.2"/>
      <point x="311.374" y="411.55600000000004"/>
      <point x="311.374" y="275.81600000000003" type="curve" smooth="yes"/>
      <point x="311.374" y="106.12200000000001"/>
      <point x="277.238" y="49.436"/>
      <point x="193.506" y="49.436" type="curve" smooth="yes"/>
      <point x="174.336" y="49.436"/>
      <point x="154.29" y="52.339999999999996"/>
    </contour>
  </outline>
</glyph>
<glyph name="c" format="2">
  <advance width="366.482"/>
  <unicode hex="0063"/>
  <anchor x="217.61" y="536.2" name="top"/>
  <anchor x="219.712" y="0.0" name="bottom"/>
  <outline>
    <contour>
      <point x="30.808" y="262.41599999999994" type="curve" smooth="yes"/>
      <point x="30.808" y="74.244"/>
      <point x="93.03399999999999" y="-10.0"/>
      <point x="219.822" y="-10.0" type="curve" smooth="yes"/>
      <point x="262.474" y="-10.0"/>
      <point x="315.256" y="-2.4499999999999993"/>
      <point x="348.58799999999997" y="7.726000000000001" type="curve"/>
      <point x="334.482" y="70.208" type="line"/>
      <point x="303.58200000000005" y="63.31199999999999"/>
      <point x="265.032" y="58.118"/>
      <point x="235.254" y="58.118" type="curve" smooth="yes"/>
      <point x="153.302" y="58.118"/>
      <point x="108.344" y="112.08599999999998"/>
      <point x="108.344" y="261.274" type="curve" smooth="yes"/>
      <point x="108.344" y="421.33799999999997"/>
      <point x="152.806" y="477.83400000000006"/>
      <point x="237.37199999999999" y="477.83400000000006" type="curve" smooth="yes"/>
      <point x="266.73" y="477.83400000000006"/>
      <point x="299.572" y="473.53000000000003"/>
      <point x="328.922" y="466.44000000000005" type="curve"/>
      <point x="340.92" y="531.154" type="line"/>
      <point x="309.84" y="540.7800000000001"/>
      <point x="265.284" y="546.2"/>
      <point x="228.55" y="546.2" type="curve" smooth="yes"/>
      <point x="97.542" y="546.2"/>
      <point x="30.808" y="458.288"/>
    </contour>
  </outline>
</glyph>
<glyph name="d" format="2">
  <advance width="421.02000000000004"/>
  <unicode hex="0064"/>
  <anchor x="210.238" y="275.0" name="center"/>
  <anchor x="209.83099999999996" y="740.0" name="top"/>
  <anchor x="433.92" y="740.0" name="topright"/>
  <anchor x="210.238" y="0.0" name="bottom"/>
  <outline>
    <contour>
      <point x="305.258" y="-0.31" type="line"/>
      <point x="371.71500000000003" y="-0.31" type="line"/>
      <point x="371.71500000000003" y="740.0" type="line"/>
      <point x="295.295" y="740.0" type="line"/>
      <point x="295.295" y="536.987" type="line"/>
      <point x="268.41" y="543.3580000000001"/>
      <point x="241.73799999999997" y="546.2"/>
      <point x="217.686" y="546.2" type="curve" smooth="yes"/>
      <point x="89.076" y="546.2"/>
      <point x="30.404999999999998" y="458.46199999999993"/>
      <point x="30.404999999999998" y="256.571" type="curve" smooth="yes"/>
      <point x="30.404999999999998" y="82.39200000000001"/>
      <point x="81.88199999999999" y="-10.0"/>
      <point x="175.76900000000003" y="-10.0" type="curve" smooth="yes"/>
      <point x="217.62" y="-10.0"/>
      <point x="257.626" y="3.0"/>
      <point x="296.38" y="29.985000000000003" type="curve"/>
    </contour>
    <contour>
      <point x="295.295" y="90.358" type="line"/>
      <point x="258.993" y="66.80999999999999"/>
      <point x="232.64899999999997" y="57.596999999999994"/>
      <point x="200.72400000000002" y="57.596999999999994" type="curve" smooth="yes"/>
      <point x="142.382" y="57.596999999999994"/>
      <point x="109.77" y="124.76"/>
      <point x="109.77" y="264.47599999999994" type="curve" smooth="yes"/>
      <point x="109.77" y="430.078"/>
      <point x="143.68900000000002" y="485.64799999999997"/>
      <point x="226.95600000000005" y="485.64799999999997" type="curve" smooth="yes"/>
      <point x="246.622" y="485.64799999999997"/>
      <point x="266.662" y="482.96100000000007"/>
      <point x="295.295" y="475.19800000000004" type="curve"/>
    </contour>
  </outline>
</glyph>
<glyph name="e" format="2">
  <advance width="407.388"/>
  <unicode hex="0065"/>
  <anchor x="339.534" y="7.018" name="ogonek"/>
  <anchor x="214.73999999999998" y="0.0" name="bottom"/>
  <anchor x="214.14399999999998" y="536.2" name="top"/>
  <outline>
    <contour>
      <point x="213.84599999999998" y="-10.0" type="curve" smooth="yes"/>
      <point x="273.32200000000006" y="-10.0"/>
      <point x="326.89599999999996" y="-0.6139999999999999"/>
      <point x="372.67" y="16.346" type="curve"/>
      <point x="361.856" y="78.20799999999998" type="line"/>
      <point x="320.656" y="65.974"/>
      <point x="272.872" y="57.126000000000005"/>
      <point x="228.71999999999997" y="57.126000000000005" type="curve" smooth="yes"/>
      <point x="146.92600000000002" y="57.126000000000005"/>
      <point x="108.53" y="102.41000000000001"/>
      <point x="108.53" y="238.364" type="curve" smooth="yes"/>
      <point x="108.53" y="244.89000000000001"/>
      <point x="108.60600000000001" y="251.33400000000003"/>
      <point x="108.99200000000002" y="257.784" type="curve"/>
      <point x="226.54999999999998" y="258.714"/>
      <point x="331.592" y="270.024"/>
      <point x="379.342" y="275.796" type="curve"/>
      <point x="379.728" y="286.15400000000005"/>
      <point x="380.652" y="307.29599999999994"/>
      <point x="380.652" y="316.01" type="curve" smooth="yes"/>
      <point x="380.652" y="479.936"/>
      <point x="329.528" y="546.2"/>
      <point x="222.52999999999997" y="546.2" type="curve" smooth="yes"/>
      <point x="109.532" y="546.2"/>
      <point x="30.56" y="476.99399999999997"/>
      <point x="30.56" y="254.574" type="curve" smooth="yes"/>
      <point x="30.56" y="65.118"/>
      <point x="92.714" y="-10.0"/>
    </contour>
    <contour>
      <point x="109.53000000000002" y="313.13599999999997" type="curve"/>
      <point x="118.74" y="454.34"/>
      <point x="166.526" y="486.508"/>
      <point x="218.19" y="486.508" type="curve" smooth="yes"/>
      <point x="276.216" y="486.508"/>
      <point x="304.15599999999995" y="444.45199999999994"/>
      <point x="304.776" y="323.878" type="curve"/>
      <point x="280.17400000000004" y="319.966"/>
      <point x="194.91600000000003" y="313.4459999999999"/>
    </contour>
  </outline>
</glyph>
<glyph name="f" format="2">
  <advance width="289.106"/>
  <unicode hex="0066"/>
  <outline>
    <contour>
      <point x="83.94200000000001" y="0.0" type="line"/>
      <point x="158.502" y="0.0" type="line"/>
      <point x="158.502" y="433.614" type="line"/>
      <point x="275.55" y="433.614" type="line"/>
      <point x="275.55" y="495.15999999999997" type="line"/>
      <point x="158.75000000000003" y="495.15999999999997" type="line"/>
      <point x="158.75000000000003" y="518.1859999999999" type="line" smooth="yes"/>
      <point x="158.75000000000003" y="636.634"/>
      <point x="189.806" y="684.748"/>
      <point x="253.72" y="684.748" type="curve" smooth="yes"/>
      <point x="275.178" y="684.748"/>
      <point x="296.834" y="681.5479999999999"/>
      <point x="322.512" y="673.706" type="curve"/>
      <point x="334.09" y="732.3439999999999" type="line"/>
      <point x="298.702" y="745.064"/>
      <point x="268.902" y="750.138"/>
      <point x="236.738" y="750.138" type="curve" smooth="yes"/>
      <point x="136.432" y="750.138"/>
      <point x="83.94200000000001" y="678.472"/>
      <point x="83.94200000000001" y="519.054" type="curve" smooth="yes"/>
      <point x="83.94200000000001" y="495.15999999999997" type="line"/>
      <point x="14.39" y="488.18199999999996" type="line"/>
      <point x="14.39" y="433.614" type="line"/>
      <point x="83.94200000000001" y="433.614" type="line"/>
    </contour>
  </outline>
</glyph>
<glyph name="g" format="2">
  <advance width="423.862"/>
  <unicode hex="0067"/>
  <anchor x="208.464" y="536.2" name="top"/>
  <anchor x="211.65200000000002" y="-212.0" name="bottom"/>
  <outline>
    <contour>
      <point x="204.19400000000002" y="-220.0" type="curve" smooth="yes"/>
      <point x="337.29800000000006" y="-220.0"/>
      <point x="411.224" y="-157.262"/>
      <point x="411.224" y="-52.558" type="curve" smooth="yes"/>
      <point x="411.224" y="35.87"/>
      <point x="364.106" y="85.53200000000001"/>
      <point x="275.812" y="85.53200000000001" type="curve" smooth="yes"/>
      <point x="170.752" y="85.53200000000001" type="line" smooth="yes"/>
      <point x="122.84799999999998" y="85.53200000000001"/>
      <point x="102.47399999999999" y="106.004"/>
      <point x="102.47399999999999" y="139.33" type="curve" smooth="yes"/>
      <point x="102.47399999999999" y="171.50400000000002"/>
      <point x="118.44999999999999" y="193.572"/>
      <point x="148.572" y="213.15" type="curve"/>
      <point x="105.96399999999998" y="231.368" type="line"/>
      <point x="65.03999999999999" y="203.45600000000002"/>
      <point x="41.548" y="167.93"/>
      <point x="41.548" y="120.122" type="curve" smooth="yes"/>
      <point x="41.548" y="57.056000000000004"/>
      <point x="83.49799999999999" y="16.546"/>
      <point x="166.184" y="16.546" type="curve" smooth="yes"/>
      <point x="257.826" y="16.546" type="line" smooth="yes"/>
      <point x="313.532" y="16.546"/>
      <point x="339.764" y="-10.288"/>
      <point x="339.764" y="-59.846" type="curve" smooth="yes"/>
      <point x="339.764" y="-121.76599999999999"/>
      <point x="294.134" y="-157.834"/>
      <point x="209.154" y="-157.834" type="curve" smooth="yes"/>
      <point x="126.882" y="-157.834"/>
      <point x="86.346" y="-126.14"/>
      <point x="86.346" y="-62.378" type="curve" smooth="yes"/>
      <point x="86.346" y="-21.462"/>
      <point x="102.88399999999999" y="7.518000000000002"/>
      <point x="138.72400000000002" y="30.546000000000003" type="curve"/>
      <point x="90.95799999999998" y="47.699999999999996" type="line"/>
      <point x="43.122" y="18.648000000000003"/>
      <point x="21.395999999999997" y="-22.561999999999998"/>
      <point x="21.395999999999997" y="-77.644" type="curve" smooth="yes"/>
      <point x="21.395999999999997" y="-171.62"/>
      <point x="84.9" y="-220.0"/>
    </contour>
    <contour>
      <point x="207.494" y="194.13799999999998" type="curve" smooth="yes"/>
      <point x="312.994" y="194.13799999999998"/>
      <point x="366.762" y="253.16799999999998"/>
      <point x="366.762" y="369.9" type="curve" smooth="yes"/>
      <point x="366.762" y="486.942"/>
      <point x="312.994" y="546.2"/>
      <point x="207.494" y="546.2" type="curve" smooth="yes"/>
      <point x="101.68399999999998" y="546.2"/>
      <point x="47.916000000000004" y="486.942"/>
      <point x="47.916000000000004" y="369.9" type="curve" smooth="yes"/>
      <point x="47.916000000000004" y="253.16799999999998"/>
      <point x="101.68399999999998" y="194.13799999999998"/>
    </contour>
    <contour>
      <point x="207.494" y="252.508" type="curve" smooth="yes"/>
      <point x="149.024" y="252.508"/>
      <point x="121.54599999999999" y="287.11400000000003"/>
      <point x="121.54599999999999" y="369.9" type="curve" smooth="yes"/>
      <point x="121.54599999999999" y="453.61"/>
      <point x="149.024" y="488.14"/>
      <point x="207.494" y="488.14" type="curve" smooth="yes"/>
      <point x="265.964" y="488.14"/>
      <point x="293.132" y="453.61"/>
      <point x="293.132" y="369.9" type="curve" smooth="yes"/>
      <point x="293.132" y="287.11400000000003"/>
      <point x="265.964" y="252.508"/>
    </contour>
    <contour>
      <point x="331.026" y="456.176" type="line"/>
      <point x="344.546" y="483.98199999999997"/>
      <point x="362.066" y="496.19800000000004"/>
      <point x="384.878" y="496.19800000000004" type="curve" smooth="yes"/>
      <point x="394.11800000000005" y="496.19800000000004"/>
      <point x="400.674" y="495.502"/>
      <point x="407.3" y="493.72999999999996" type="curve"/>
      <point x="416.436" y="558.37" type="line"/>
      <point x="407.10800000000006" y="561.692"/>
      <point x="397.37" y="563.318"/>
      <point x="384.878" y="563.318" type="curve" smooth="yes"/>
      <point x="346.228" y="563.318"/>
      <point x="315.83" y="543.312"/>
      <point x="300.344" y="506.27" type="curve"/>
    </contour>
  </outline>
</glyph>
<glyph name="h" format="2">
  <advance width="426.057"/>
  <unicode hex="0068"/>
  <anchor x="212.52100000000002" y="395.0" name="center"/>
  <anchor x="213.141" y="0.0" name="bottom"/>
  <anchor x="216.83700000000002" y="740.0" name="top"/>
  <outline>
    <contour>
      <point x="49.305" y="0.0" type="line"/>
      <point x="125.57" y="0.0" type="line"/>
      <point x="125.57" y="444.9" type="line"/>
      <point x="158.73200000000003" y="464.01"/>
      <point x="193.18900000000002" y="477.053"/>
      <point x="228.108" y="477.053" type="curve" smooth="yes"/>
      <point x="276.374" y="477.053"/>
      <point x="300.642" y="450.046"/>
      <point x="300.642" y="399.127" type="curve" smooth="yes"/>
      <point x="300.642" y="0.0" type="line"/>
      <point x="377.06200000000007" y="0.0" type="line"/>
      <point x="377.06200000000007" y="418.347" type="line" smooth="yes"/>
      <point x="377.06200000000007" y="507.012"/>
      <point x="331.43300000000005" y="546.2"/>
      <point x="259.996" y="546.2" type="curve" smooth="yes"/>
      <point x="211.71299999999997" y="546.2"/>
      <point x="167.87400000000002" y="530.209"/>
      <point x="125.57" y="503.56500000000005" type="curve"/>
      <point x="125.57" y="740.0" type="line"/>
      <point x="49.305" y="740.0" type="line"/>
    </contour>
  </outline>
</glyph>
<glyph name="i" format="2">
  <advance width="174.72"/>
  <unicode hex="0069"/>
  <anchor x="125.122" y="0.0" name="ogonek"/>
  <anchor x="87.48400000000001" y="0.0" name="bottom"/>
  <outline>
    <contour>
      <point x="87.48400000000001" y="643.582" type="curve" smooth="yes"/>
      <point x="121.35200000000002" y="643.582"/>
      <point x="133.022" y="655.804"/>
      <point x="133.022" y="689.412" type="curve" smooth="yes"/>
      <point x="133.022" y="723.516"/>
      <point x="120.85600000000001" y="735.49"/>
      <point x="87.48400000000001" y="735.49" type="curve" smooth="yes"/>
      <point x="53.864000000000004" y="735.49"/>
      <point x="41.69799999999999" y="723.516"/>
      <point x="41.69799999999999" y="689.412" type="curve" smooth="yes"/>
      <point x="41.69799999999999" y="655.556"/>
      <point x="54.554" y="643.582"/>
    </contour>
    <contour>
      <point x="49.46" y="0.0" type="line"/>
      <point x="125.25999999999999" y="0.0" type="line"/>
      <point x="125.25999999999999" y="536.2" type="line"/>
      <point x="49.46" y="536.2" type="line"/>
    </contour>
  </outline>
</glyph>
<glyph name="j" format="2">
  <advance width="176.18"/>
  <unicode hex="006A"/>
  <outline>
    <contour>
      <point x="126.858" y="536.2" type="line"/>
      <point x="51.058" y="536.2" type="line"/>
      <point x="51.058" y="20.138" type="line" smooth="yes"/>
      <point x="51.058" y="-61.948"/>
      <point x="33.31" y="-109.758"/>
      <point x="-2.4439999999999995" y="-131.83800000000002" type="curve" smooth="yes"/>
      <point x="-9.870000000000001" y="-135.426"/>
      <point x="-16.799999999999997" y="-137.58"/>
      <point x="-25.66" y="-138.548" type="curve"/>
      <point x="-26.628" y="-207.222" type="line"/>
      <point x="-9.768" y="-207.01"/>
      <point x="7.222" y="-204.54399999999998"/>
      <point x="21.704" y="-200.404" type="curve" smooth="yes"/>
      <point x="94.87599999999999" y="-175.15"/>
      <point x="126.858" y="-105.376"/>
      <point x="126.858" y="15.736" type="curve" smooth="yes"/>
    </contour>
    <contour>
      <point x="88.806" y="643.582" type="curve" smooth="yes"/>
      <point x="122.122" y="643.582"/>
      <point x="134.344" y="655.804"/>
      <point x="134.344" y="689.412" type="curve" smooth="yes"/>
      <point x="134.344" y="723.516"/>
      <point x="121.626" y="735.49"/>
      <point x="88.806" y="735.49" type="curve" smooth="yes"/>
      <point x="55.186" y="735.49"/>
      <point x="43.019999999999996" y="723.516"/>
      <point x="43.019999999999996" y="689.412" type="curve" smooth="yes"/>
      <point x="43.019999999999996" y="655.556"/>
      <point x="55.876000000000005" y="643.582"/>
    </contour>
  </outline>
</glyph>
<glyph name="k" format="2">
  <advance width="397.14000000000004"/>
  <unicode hex="006B"/>
  <anchor x="85.81" y="740.0" name="top"/>
  <anchor x="213.6" y="0.0" name="bottom"/>
  <outline>
    <contour>
      <point x="372.28000000000003" y="-7.930000000000001" type="curve" smooth="yes"/>
      <point x="381.5" y="-7.930000000000001"/>
      <point x="389.98" y="-6.55"/>
      <point x="397.89" y="-4.430000000000001" type="curve"/>
      <point x="396.01" y="76.14" type="line"/>
      <point x="391.51" y="75.76"/>
      <point x="386.82" y="74.76"/>
      <point x="383.32" y="74.76" type="curve" smooth="yes"/>
      <point x="358.41" y="74.76"/>
      <point x="337.5" y="89.61999999999999"/>
      <point x="258.53000000000003" y="193.89" type="curve" smooth="yes"/>
      <point x="122.16" y="375.15" type="line"/>
      <point x="122.16" y="740.0" type="line"/>
      <point x="49.46" y="740.0" type="line"/>
      <point x="49.46" y="0.0" type="line"/>
      <point x="122.16" y="0.0" type="line"/>
      <point x="122.16" y="257.38000000000005" type="line"/>
      <point x="236.79999999999998" y="107.64" type="line" smooth="yes"/>
      <point x="316.21000000000004" y="3.4800000000000004"/>
      <point x="336.34" y="-7.930000000000001"/>
    </contour>
    <contour>
      <point x="197.04" y="235.3" type="line"/>
      <point x="264.69" y="313.78999999999996"/>
      <point x="347.46999999999997" y="416.76"/>
      <point x="375.96000000000004" y="536.89" type="curve"/>
      <point x="301.42" y="545.2" type="line"/>
      <point x="275.53" y="426.46000000000004"/>
      <point x="209.34" y="350.73"/>
      <point x="143.76" y="278.03" type="curve"/>
    </contour>
  </outline>
</glyph>
<glyph name="l" format="2">
  <advance width="213.76600000000002"/>
  <unicode hex="006C"/>
  <anchor x="107.29" y="395.0" name="center"/>
  <anchor x="87.48400000000001" y="740.0" name="top"/>
  <anchor x="187.62" y="740.0" name="topright"/>
  <anchor x="131.13" y="0.0" name="bottom"/>
  <outline>
    <contour>
      <point x="125.25999999999999" y="740.0" type="line"/>
      <point x="49.46" y="740.0" type="line"/>
      <point x="49.46" y="127.33399999999999" type="line" smooth="yes"/>
      <point x="49.46" y="20.09"/>
      <point x="84.086" y="-10.0"/>
      <point x="148.814" y="-10.0" type="curve" smooth="yes"/>
      <point x="172.438" y="-10.0"/>
      <point x="195.472" y="-3.5900000000000003"/>
      <point x="213.43400000000003" y="4.6899999999999995" type="curve"/>
      <point x="206.086" y="67.97200000000001" type="line"/>
      <point x="190.684" y="63.164"/>
      <point x="178.614" y="61.088"/>
      <point x="168.592" y="61.088" type="curve" smooth="yes"/>
      <point x="143.036" y="61.088"/>
      <point x="125.25999999999999" y="73.042"/>
      <point x="125.25999999999999" y="134.898" type="curve" smooth="yes"/>
    </contour>
  </outline>
</glyph>
<glyph name="m" format="2">
  <advance width="645.778"/>
  <unicode hex="006D"/>
  <outline>
    <contour>
      <point x="49.46" y="0.0" type="line"/>
      <point x="125.508" y="0.0" type="line"/>
      <point x="125.508" y="446.266" type="line"/>
      <point x="154.428" y="464.362"/>
      <point x="185.29399999999998" y="476.518"/>
      <point x="216.76" y="476.518" type="curve" smooth="yes"/>
      <point x="268.676" y="476.518"/>
      <point x="285.458" y="440.856"/>
      <point x="285.458" y="398.592" type="curve" smooth="yes"/>
      <point x="285.458" y="0.0" type="line"/>
      <point x="361.506" y="0.0" type="line"/>
      <point x="361.506" y="402.68399999999997" type="line" smooth="yes"/>
      <point x="361.506" y="417.614"/>
      <point x="359.57399999999996" y="432.026"/>
      <point x="355.234" y="444.61" type="curve"/>
      <point x="381.814" y="462.002"/>
      <point x="416.144" y="477.27"/>
      <point x="451.76399999999995" y="477.27" type="curve" smooth="yes"/>
      <point x="504.17" y="477.27"/>
      <point x="520.7660000000001" y="441.532"/>
      <point x="520.7660000000001" y="399.144" type="curve" smooth="yes"/>
      <point x="520.7660000000001" y="0.0" type="line"/>
      <point x="596.814" y="0.0" type="line"/>
      <point x="596.814" y="419.48" type="line" smooth="yes"/>
      <point x="596.814" y="495.802"/>
      <point x="560.75" y="546.2"/>
      <point x="484.76800000000003" y="546.2" type="curve" smooth="yes"/>
      <point x="427.09999999999997" y="546.2"/>
      <point x="379.74600000000004" y="524.16"/>
      <point x="341.77799999999996" y="497.67199999999997" type="curve"/>
      <point x="324.152" y="527.938"/>
      <point x="294.14000000000004" y="545.51"/>
      <point x="249.08200000000002" y="545.51" type="curve" smooth="yes"/>
      <point x="202.76999999999998" y="545.51"/>
      <point x="160.406" y="530.1220000000001"/>
      <point x="119.37" y="503.708" type="curve"/>
      <point x="119.37" y="536.2" type="line"/>
      <point x="49.46" y="536.2" type="line"/>
    </contour>
  </outline>
</glyph>
<glyph name="n" format="2">
  <advance width="426.026"/>
  <unicode hex="006E"/>
  <anchor x="215.76000000000002" y="536.2" name="top"/>
  <anchor x="217.14000000000001" y="0.0" name="bottom"/>
  <outline>
    <contour>
      <point x="49.46" y="0.0" type="line"/>
      <point x="125.508" y="0.0" type="line"/>
      <point x="125.508" y="445.024" type="line"/>
      <point x="158.54600000000002" y="464.072"/>
      <point x="193.282" y="477.518"/>
      <point x="228.41800000000003" y="477.518" type="curve" smooth="yes"/>
      <point x="276.68399999999997" y="477.518"/>
      <point x="301.014" y="450.294"/>
      <point x="301.014" y="399.282" type="curve" smooth="yes"/>
      <point x="301.014" y="0.0" type="line"/>
      <point x="377.062" y="0.0" type="line"/>
      <point x="377.062" y="419.618" type="line" smooth="yes"/>
      <point x="377.062" y="504.53200000000004"/>
      <point x="333.32399999999996" y="546.2"/>
      <point x="259.996" y="546.2" type="curve" smooth="yes"/>
      <point x="209.822" y="546.2"/>
      <point x="165.31799999999998" y="530.612"/>
      <point x="119.37" y="502.60400000000004" type="curve"/>
      <point x="119.37" y="536.2" type="line"/>
      <point x="49.46" y="536.2" type="line"/>
    </contour>
  </outline>
</glyph>
<glyph name="o" format="2">
  <advance width="424.32800000000003"/>
  <unicode hex="006F"/>
  <anchor x="269.996" y="2.6039999999999996" name="ogonek"/>
  <anchor x="212.16400000000002" y="536.2" name="top"/>
  <anchor x="306.60800000000006" y="527.58" name="topright"/>
  <anchor x="212.16400000000002" y="0.0" name="bottom"/>
  <outline>
    <contour>
      <point x="30.56" y="268.748" type="curve" smooth="yes"/>
      <point x="30.56" y="70.848"/>
      <point x="77.97200000000001" y="-10.0"/>
      <point x="212.16400000000002" y="-10.0" type="curve" smooth="yes"/>
      <point x="346.35600000000005" y="-10.0"/>
      <point x="393.76800000000003" y="70.848"/>
      <point x="393.76800000000003" y="268.748" type="curve" smooth="yes"/>
      <point x="393.76800000000003" y="464.048"/>
      <point x="349.75600000000003" y="546.2"/>
      <point x="212.16400000000002" y="546.2" type="curve" smooth="yes"/>
      <point x="74.448" y="546.2"/>
      <point x="30.56" y="464.048"/>
    </contour>
    <contour>
      <point x="108.84" y="268.748" type="curve" smooth="yes"/>
      <point x="108.84" y="433.664"/>
      <point x="135.56000000000003" y="480.68"/>
      <point x="212.16400000000002" y="480.68" type="curve" smooth="yes"/>
      <point x="288.52" y="480.68"/>
      <point x="315.364" y="433.664"/>
      <point x="315.364" y="268.748" type="curve" smooth="yes"/>
      <point x="315.364" y="101.95599999999999"/>
      <point x="285.86400000000003" y="55.768"/>
      <point x="212.16400000000002" y="55.768" type="curve" smooth="yes"/>
      <point x="138.21600000000004" y="55.768"/>
      <point x="108.84" y="101.95599999999999"/>
    </contour>
  </outline>
</glyph>
<glyph name="p" format="2">
  <advance width="420.896"/>
  <unicode hex="0070"/>
  <outline>
    <contour>
      <point x="49.46" y="-210.0" type="line"/>
      <point x="125.57" y="-210.0" type="line"/>
      <point x="125.57" y="-0.4319999999999995" type="line"/>
      <point x="154.852" y="-7.096"/>
      <point x="180.496" y="-10.0"/>
      <point x="203.024" y="-10.0" type="curve" smooth="yes"/>
      <point x="331.634" y="-10.0"/>
      <point x="390.398" y="77.98599999999999"/>
      <point x="390.398" y="279.908" type="curve" smooth="yes"/>
      <point x="390.398" y="452.462"/>
      <point x="339.442" y="546.2"/>
      <point x="247.056" y="546.2" type="curve" smooth="yes"/>
      <point x="204.678" y="546.2"/>
      <point x="162.84199999999998" y="532.468"/>
      <point x="122.346" y="505.116" type="curve"/>
      <point x="119.37" y="541.72" type="line"/>
      <point x="49.46" y="541.72" type="line"/>
    </contour>
    <contour>
      <point x="193.75400000000002" y="50.428" type="curve" smooth="yes"/>
      <point x="174.336" y="50.428"/>
      <point x="154.29" y="53.57999999999999"/>
      <point x="125.508" y="61.126" type="curve"/>
      <point x="125.508" y="446.27599999999995" type="line"/>
      <point x="162.12" y="470.382"/>
      <point x="188.09199999999998" y="479.192"/>
      <point x="219.68200000000002" y="479.192" type="curve" smooth="yes"/>
      <point x="278.824" y="479.192"/>
      <point x="311.374" y="412.05199999999996"/>
      <point x="311.374" y="271.848" type="curve" smooth="yes"/>
      <point x="311.374" y="106.618"/>
      <point x="277.238" y="50.428"/>
    </contour>
  </outline>
</glyph>
<glyph name="q" format="2">
  <advance width="421.14399999999995"/>
  <unicode hex="0071"/>
  <outline>
    <contour>
      <point x="371.68399999999997" y="526.5" type="line"/>
      <point x="318.242" y="540.002"/>
      <point x="271.75" y="546.2"/>
      <point x="229.032" y="546.2" type="curve" smooth="yes"/>
      <point x="91.24600000000001" y="546.2"/>
      <point x="30.497999999999998" y="462.678"/>
      <point x="30.497999999999998" y="261.252" type="curve" smooth="yes"/>
      <point x="30.497999999999998" y="83.05"/>
      <point x="81.26200000000001" y="-10.0"/>
      <point x="175.824" y="-10.0" type="curve" smooth="yes"/>
      <point x="215.90800000000002" y="-10.0"/>
      <point x="258.488" y="4.104000000000001"/>
      <point x="295.884" y="29.472000000000005" type="curve"/>
      <point x="295.884" y="-210.0" type="line"/>
      <point x="371.68399999999997" y="-210.0" type="line"/>
    </contour>
    <contour>
      <point x="295.636" y="475.762" type="curve"/>
      <point x="295.636" y="91.16399999999999" type="line"/>
      <point x="259.024" y="66.81"/>
      <point x="233.052" y="57.504"/>
      <point x="201.21399999999997" y="57.504" type="curve" smooth="yes"/>
      <point x="142.87199999999999" y="57.504"/>
      <point x="109.77" y="125.252"/>
      <point x="109.77" y="259.888" type="curve" smooth="yes"/>
      <point x="109.77" y="429.58200000000005"/>
      <point x="143.906" y="486.26800000000003"/>
      <point x="227.63800000000003" y="486.26800000000003" type="curve" smooth="yes"/>
      <point x="246.07000000000002" y="486.26800000000003"/>
      <point x="266.85400000000004" y="483.364"/>
    </contour>
  </outline>
</glyph>
<glyph name="r" format="2">
  <advance width="303.296"/>
  <unicode hex="0072"/>
  <anchor x="170.57600000000002" y="536.2" name="top"/>
  <anchor x="87.236" y="0.0" name="bottom"/>
  <outline>
    <contour>
      <point x="119.122" y="536.2" type="line"/>
      <point x="49.46" y="536.2" type="line"/>
      <point x="49.46" y="0.0" type="line"/>
      <point x="125.01200000000001" y="0.0" type="line"/>
      <point x="125.01200000000001" y="418.81600000000003" type="line"/>
      <point x="163.84" y="457.05"/>
      <point x="198.476" y="471.442"/>
      <point x="234.284" y="471.442" type="curve" smooth="yes"/>
      <point x="250.68599999999998" y="471.442"/>
      <point x="270.7" y="468.86199999999997"/>
      <point x="289.148" y="463.724" type="curve"/>
      <point x="302.62800000000004" y="536.814" type="line"/>
      <point x="283.61600000000004" y="543.296"/>
      <point x="263.152" y="546.2"/>
      <point x="243.40400000000002" y="546.2" type="curve" smooth="yes"/>
      <point x="196.984" y="546.2"/>
      <point x="159.128" y="526.716"/>
      <point x="119.122" y="484.718" type="curve"/>
    </contour>
  </outline>
</glyph>
<glyph name="s" format="2">
  <advance width="347.67"/>
  <unicode hex="0073"/>
  <anchor x="173.84" y="536.2" name="top"/>
  <anchor x="173.07999999999998" y="0.0" name="bottom"/>
  <outline>
    <contour>
      <point x="14.12" y="17.049999999999997" type="line"/>
      <point x="53.8" y="-0.9999999999999998"/>
      <point x="105.36999999999999" y="-10.0"/>
      <point x="158.38000000000002" y="-10.0" type="curve" smooth="yes"/>
      <point x="260.35" y="-10.0"/>
      <point x="330.01000000000005" y="38.34"/>
      <point x="330.01000000000005" y="138.07999999999998" type="curve" smooth="yes"/>
      <point x="330.01000000000005" y="234.48"/>
      <point x="274.22" y="270.76"/>
      <point x="199.98" y="304.18" type="curve" smooth="yes"/>
      <point x="142.41" y="330.66999999999996"/>
      <point x="99.5" y="354.27"/>
      <point x="99.5" y="407.41" type="curve" smooth="yes"/>
      <point x="99.5" y="452.84000000000003"/>
      <point x="131.53" y="480.01"/>
      <point x="190.04999999999998" y="480.01" type="curve" smooth="yes"/>
      <point x="229.56" y="480.01"/>
      <point x="263.92" y="472.2"/>
      <point x="294.24" y="461.84000000000003" type="curve"/>
      <point x="307.01000000000005" y="524.79" type="line"/>
      <point x="276.43" y="537.46"/>
      <point x="232.99" y="546.2"/>
      <point x="189.12" y="546.2" type="curve" smooth="yes"/>
      <point x="83.36" y="546.2"/>
      <point x="26.490000000000002" y="490.62"/>
      <point x="26.490000000000002" y="400.59000000000003" type="curve" smooth="yes"/>
      <point x="26.490000000000002" y="319.66"/>
      <point x="75.19" y="276.06"/>
      <point x="145.15" y="244.70999999999998" type="curve" smooth="yes"/>
      <point x="213.74" y="214.96"/>
      <point x="256.07" y="188.69"/>
      <point x="256.07" y="133.12" type="curve" smooth="yes"/>
      <point x="256.07" y="82.72"/>
      <point x="219.95" y="54.95"/>
      <point x="157.76" y="54.95" type="curve" smooth="yes"/>
      <point x="114.33" y="54.95"/>
      <point x="59.63" y="64.07"/>
      <point x="26.529999999999998" y="78.25999999999999" type="curve"/>
    </contour>
  </outline>
</glyph>
<glyph name="t" format="2">
  <advance width="303.986"/>
  <unicode hex="0074"/>
  <anchor x="150.388" y="275.0" name="center"/>
  <anchor x="121.004" y="662.272" name="top"/>
  <anchor x="245.802" y="756.89" name="topright"/>
  <anchor x="180.63200000000003" y="0.0" name="bottom"/>
  <outline>
    <contour>
      <point x="200.408" y="-10.0" type="curve" smooth="yes"/>
      <point x="229.318" y="-10.0"/>
      <point x="264.648" y="-5.5520000000000005"/>
      <point x="301.896" y="7.706000000000001" type="curve"/>
      <point x="290.304" y="69.42999999999999" type="line"/>
      <point x="267.474" y="62.379999999999995"/>
      <point x="245.76000000000002" y="58.800000000000004"/>
      <point x="224.148" y="58.800000000000004" type="curve" smooth="yes"/>
      <point x="174.298" y="58.800000000000004"/>
      <point x="153.19" y="84.864"/>
      <point x="153.19" y="151.532" type="curve" smooth="yes"/>
      <point x="153.19" y="474.65400000000005" type="line"/>
      <point x="288.06600000000003" y="474.65400000000005" type="line"/>
      <point x="288.06600000000003" y="536.2" type="line"/>
      <point x="153.19" y="536.2" type="line"/>
      <point x="153.19" y="662.272" type="line"/>
      <point x="88.26599999999999" y="662.272" type="line"/>
      <point x="77.39" y="536.2" type="line"/>
      <point x="7.5600000000000005" y="529.4700000000001" type="line"/>
      <point x="7.5600000000000005" y="474.902" type="line"/>
      <point x="77.39" y="474.902" type="line"/>
      <point x="77.39" y="145.208" type="line" smooth="yes"/>
      <point x="77.39" y="45.762"/>
      <point x="111.6" y="-10.0"/>
    </contour>
  </outline>
</glyph>
<glyph name="u" format="2">
  <advance width="432.724"/>
  <unicode hex="0075"/>
  <anchor x="430.986" y="5.324" name="ogonek"/>
  <anchor x="210.204" y="536.2" name="top"/>
  <anchor x="370.384" y="536.2" name="topright"/>
  <anchor x="216.82399999999998" y="0.0" name="bottom"/>
  <outline>
    <contour>
      <point x="166.054" y="-10.0" type="curve" smooth="yes"/>
      <point x="216.83200000000002" y="-10.0"/>
      <point x="260.618" y="7.324000000000001"/>
      <point x="303.646" y="33.846" type="curve"/>
      <point x="313.86" y="5.798"/>
      <point x="338.04999999999995" y="-10.0"/>
      <point x="369.468" y="-10.0" type="curve" smooth="yes"/>
      <point x="392.49600000000004" y="-10.0"/>
      <point x="412.728" y="-4.204000000000001"/>
      <point x="430.986" y="5.324" type="curve"/>
      <point x="422.07800000000003" y="66.764" type="line"/>
      <point x="413.73799999999994" y="62.81799999999999"/>
      <point x="405.054" y="60.99"/>
      <point x="396.88" y="60.99" type="curve" smooth="yes"/>
      <point x="380.904" y="60.99"/>
      <point x="370.384" y="71.02"/>
      <point x="370.384" y="101.128" type="curve" smooth="yes"/>
      <point x="370.384" y="536.2" type="line"/>
      <point x="294.584" y="536.2" type="line"/>
      <point x="294.584" y="90.666" type="line"/>
      <point x="262.89200000000005" y="71.46"/>
      <point x="229.14200000000002" y="58.434"/>
      <point x="195.586" y="58.434" type="curve" smooth="yes"/>
      <point x="149.404" y="58.434"/>
      <point x="125.01200000000001" y="84.96799999999999"/>
      <point x="125.01200000000001" y="133.29000000000002" type="curve" smooth="yes"/>
      <point x="125.01200000000001" y="536.2" type="line"/>
      <point x="48.964000000000006" y="536.2" type="line"/>
      <point x="48.964000000000006" y="120.022" type="line" smooth="yes"/>
      <point x="48.964000000000006" y="28.32"/>
      <point x="97.344" y="-10.0"/>
    </contour>
  </outline>
</glyph>
<glyph name="v" format="2">
  <advance width="400.6410000000001"/>
  <unicode hex="0076"/>
  <outline>
    <contour>
      <point x="156.076" y="0.0" type="line"/>
      <point x="243.80700000000002" y="0.0" type="line"/>
      <point x="390.344" y="534.2680000000001" type="line"/>
      <point x="310.75600000000003" y="538.132" type="line"/>
      <point x="201.39700000000002" y="82.67800000000001" type="line"/>
      <point x="90.34999999999998" y="538.132" type="line"/>
      <point x="10.142" y="534.2680000000001" type="line"/>
    </contour>
  </outline>
</glyph>
<glyph name="w" format="2">
  <advance width="584.0939999999999"/>
  <unicode hex="0077"/>
  <anchor x="291.828" y="536.2" name="top"/>
  <anchor x="291.828" y="0.0" name="bottom"/>
  <outline>
    <contour>
      <point x="118.468" y="0.0" type="line"/>
      <point x="207.136" y="0.0" type="line"/>
      <point x="291.642" y="434.982" type="line"/>
      <point x="377.086" y="0.0" type="line"/>
      <point x="464.514" y="0.0" type="line"/>
      <point x="574.206" y="533.754" type="line"/>
      <point x="498.96799999999996" y="537.6419999999999" type="line"/>
      <point x="418.264" y="84.92" type="line"/>
      <point x="332.022" y="536.2" type="line"/>
      <point x="251.57200000000003" y="536.2" type="line"/>
      <point x="166.71" y="84.606" type="line"/>
      <point x="85.994" y="537.6419999999999" type="line"/>
      <point x="9.388" y="533.754" type="line"/>
    </contour>
  </outline>
</glyph>
<glyph name="x" format="2">
  <advance width="415.51000000000005"/>
  <unicode hex="0078"/>
  <outline>
    <contour>
      <point x="7.71" y="-2.0700000000000003" type="line"/>
      <point x="91.705" y="-6.4" type="line"/>
      <point x="207.47" y="222.73999999999998" type="line"/>
      <point x="324.61499999999995" y="-6.4" type="line"/>
      <point x="408.645" y="-2.0700000000000003" type="line"/>
      <point x="257.635" y="273.36" type="line"/>
      <point x="397.815" y="534.13" type="line"/>
      <point x="317.35" y="538.7700000000001" type="line"/>
      <point x="210.21" y="321.985" type="line"/>
      <point x="102.68999999999998" y="539.115" type="line"/>
      <point x="19.28" y="533.5949999999999" type="line"/>
      <point x="159.115" y="274.12000000000006" type="line"/>
    </contour>
  </outline>
</glyph>
<glyph name="y" format="2">
  <advance width="402.08099999999996"/>
  <unicode hex="0079"/>
  <anchor x="197.607" y="536.2" name="top"/>
  <anchor x="332.30500000000006" y="0.0" name="bottom"/>
  <outline>
    <contour>
      <point x="126.984" y="-208.268" type="line"/>
      <point x="206.098" y="-212.656" type="line"/>
      <point x="391.08299999999997" y="535.0200000000001" type="line"/>
      <point x="311.281" y="538.6080000000001" type="line"/>
      <point x="209.67600000000002" y="75.61199999999998" type="line"/>
      <point x="92.886" y="538.6840000000001" type="line"/>
      <point x="10.694" y="534.82" type="line"/>
      <point x="164.393" y="0.0" type="line"/>
      <point x="178.844" y="0.0" type="line"/>
    </contour>
  </outline>
</glyph>
<glyph name="z" format="2">
  <advance width="376.501"/>
  <unicode hex="007A"/>
  <anchor x="190.752" y="536.2" name="top"/>
  <outline>
    <contour>
      <point x="21.909000000000002" y="0.0" type="line"/>
      <point x="359.4220000000001" y="0.0" type="line"/>
      <point x="359.4220000000001" y="65.57600000000001" type="line"/>
      <point x="110.38600000000001" y="65.57600000000001" type="line"/>
      <point x="343.9140000000001" y="477.745" type="line"/>
      <point x="343.9140000000001" y="536.2" type="line"/>
      <point x="32.493" y="536.2" type="line"/>
      <point x="32.493" y="471.244" type="line"/>
      <point x="257.13599999999997" y="471.244" type="line"/>
      <point x="21.909000000000002" y="59.23" type="line"/>
    </contour>
  </outline>
</glyph>
<glyph name="braceleft" format="2">
  <advance width="261.668"/>
  <unicode hex="007B"/>
  <outline>
    <contour>
      <point x="76.042" y="-60.296" type="curve" smooth="yes"/>
      <point x="76.042" y="-150.55200000000002"/>
      <point x="115.418" y="-210.248"/>
      <point x="188.35999999999999" y="-210.248" type="curve" smooth="yes"/>
      <point x="233.592" y="-210.248" type="line"/>
      <point x="233.592" y="-149.948" type="line"/>
      <point x="204.48000000000002" y="-149.948" type="line" smooth="yes"/>
      <point x="157.78" y="-149.948"/>
      <point x="141.426" y="-105.832"/>
      <point x="141.426" y="-52.54600000000001" type="curve" smooth="yes"/>
      <point x="141.426" y="18.605999999999998"/>
      <point x="172.31799999999998" y="77.648"/>
      <point x="172.31799999999998" y="154.212" type="curve" smooth="yes"/>
      <point x="172.31799999999998" y="193.104"/>
      <point x="161.35399999999998" y="242.884"/>
      <point x="122.914" y="265.0" type="curve"/>
      <point x="161.216" y="289.808"/>
      <point x="172.31799999999998" y="336.372"/>
      <point x="172.31799999999998" y="375.264" type="curve" smooth="yes"/>
      <point x="172.31799999999998" y="448.516"/>
      <point x="141.426" y="506.86799999999994"/>
      <point x="141.426" y="582.0219999999999" type="curve" smooth="yes"/>
      <point x="141.426" y="635.308"/>
      <point x="157.78" y="679.7"/>
      <point x="204.48000000000002" y="679.7" type="curve" smooth="yes"/>
      <point x="233.592" y="679.7" type="line"/>
      <point x="233.592" y="740.0" type="line"/>
      <point x="188.35999999999999" y="740.0" type="line" smooth="yes"/>
      <point x="115.418" y="740.0"/>
      <point x="76.042" y="680.028"/>
      <point x="76.042" y="589.7719999999999" type="curve" smooth="yes"/>
      <point x="76.042" y="497.39"/>
      <point x="109.414" y="441.79799999999994"/>
      <point x="109.414" y="372.47400000000005" type="curve" smooth="yes"/>
      <point x="109.414" y="335.92"/>
      <point x="99.978" y="296.08"/>
      <point x="72.32199999999999" y="296.08" type="curve" smooth="yes"/>
      <point x="52.748000000000005" y="296.08" type="line"/>
      <point x="52.748000000000005" y="233.67200000000003" type="line"/>
      <point x="72.32199999999999" y="233.67200000000003" type="line" smooth="yes"/>
      <point x="99.978" y="233.67200000000003"/>
      <point x="109.414" y="194.108"/>
      <point x="109.414" y="157.00199999999998" type="curve" smooth="yes"/>
      <point x="109.414" y="86.29800000000002"/>
      <point x="76.042" y="27.945999999999998"/>
    </contour>
  </outline>
</glyph>
<glyph name="braceright" format="2">
  <advance width="261.668"/>
  <unicode hex="007D"/>
  <outline>
    <contour>
      <point x="28.076" y="-149.948" type="line"/>
      <point x="28.076" y="-210.248" type="line"/>
      <point x="73.86000000000001" y="-210.248" type="line" smooth="yes"/>
      <point x="146.802" y="-210.248"/>
      <point x="186.178" y="-150.55200000000002"/>
      <point x="186.178" y="-60.296" type="curve" smooth="yes"/>
      <point x="186.178" y="27.945999999999998"/>
      <point x="152.806" y="86.29800000000002"/>
      <point x="152.806" y="157.00199999999998" type="curve" smooth="yes"/>
      <point x="152.806" y="194.108"/>
      <point x="162.242" y="233.67200000000003"/>
      <point x="189.89800000000002" y="233.67200000000003" type="curve" smooth="yes"/>
      <point x="208.92000000000002" y="233.67200000000003" type="line"/>
      <point x="208.92000000000002" y="296.08" type="line"/>
      <point x="189.89800000000002" y="296.08" type="line" smooth="yes"/>
      <point x="161.69" y="296.08"/>
      <point x="152.806" y="335.92"/>
      <point x="152.806" y="372.47400000000005" type="curve" smooth="yes"/>
      <point x="152.806" y="441.79799999999994"/>
      <point x="186.178" y="497.39"/>
      <point x="186.178" y="589.7719999999999" type="curve" smooth="yes"/>
      <point x="186.178" y="680.028"/>
      <point x="146.802" y="740.0"/>
      <point x="73.86000000000001" y="740.0" type="curve" smooth="yes"/>
      <point x="28.076" y="740.0" type="line"/>
      <point x="28.076" y="679.7" type="line"/>
      <point x="53.524" y="679.7" type="line" smooth="yes"/>
      <point x="99.672" y="679.7"/>
      <point x="116.57799999999999" y="635.308"/>
      <point x="116.57799999999999" y="582.0219999999999" type="curve" smooth="yes"/>
      <point x="116.57799999999999" y="506.86799999999994"/>
      <point x="85.68599999999999" y="448.516"/>
      <point x="85.68599999999999" y="375.264" type="curve" smooth="yes"/>
      <point x="85.68599999999999" y="336.372"/>
      <point x="96.236" y="289.808"/>
      <point x="135.08999999999997" y="265.0" type="curve"/>
      <point x="96.098" y="242.884"/>
      <point x="85.68599999999999" y="193.104"/>
      <point x="85.68599999999999" y="154.212" type="curve" smooth="yes"/>
      <point x="85.68599999999999" y="77.648"/>
      <point x="116.57799999999999" y="18.605999999999998"/>
      <point x="116.57799999999999" y="-52.54600000000001" type="curve" smooth="yes"/>
      <point x="116.57799999999999" y="-105.832"/>
      <point x="99.672" y="-149.948"/>
      <point x="53.524" y="-149.948" type="curve" smooth="yes"/>
    </contour>
  </outline>
</glyph>
<glyph name="asciitilde" format="2">
  <advance width="434.164"/>
  <unicode hex="007E"/>
  <outline>
    <contour>
      <point x="377.39000000000004" y="248.118" type="curve"/>
      <point x="377.39000000000004" y="316.69" type="line"/>
      <point x="355.986" y="291.828"/>
      <point x="335.708" y="279.24"/>
      <point x="307.966" y="279.24" type="curve" smooth="yes"/>
      <point x="237.098" y="279.24"/>
      <point x="200.676" y="381.188"/>
      <point x="128.858" y="381.188" type="curve" smooth="yes"/>
      <point x="94.798" y="381.188"/>
      <point x="71.164" y="364.81399999999996"/>
      <point x="57.388" y="347.32599999999996" type="curve"/>
      <point x="57.388" y="278.616" type="line"/>
      <point x="73.52799999999999" y="298.614"/>
      <point x="96.128" y="315.68"/>
      <point x="127.9" y="315.68" type="curve" smooth="yes"/>
      <point x="193.224" y="315.68"/>
      <point x="230.942" y="213.67000000000002"/>
      <point x="307.75199999999995" y="213.67000000000002" type="curve" smooth="yes"/>
      <point x="337.04" y="213.67000000000002"/>
      <point x="357.676" y="225.298"/>
    </contour>
  </outline>
</glyph>
<glyph name="exclamdown" format="2">
  <advance width="183.076"/>
  <unicode hex="00A1"/>
  <outline>
    <contour>
      <point x="125.532" y="273.688" type="line"/>
      <point x="58.474000000000004" y="273.688" type="line"/>
      <point x="53.266000000000005" y="-203.86200000000002" type="line"/>
      <point x="129.996" y="-203.86200000000002" type="line"/>
    </contour>
    <contour>
      <point x="134.782" y="491.486" type="curve" smooth="yes"/>
      <point x="134.782" y="526.52"/>
      <point x="124.91000000000001" y="539.3"/>
      <point x="91.538" y="539.3" type="curve" smooth="yes"/>
      <point x="58.85600000000001" y="539.3"/>
      <point x="48.294" y="526.52"/>
      <point x="48.294" y="491.486" type="curve" smooth="yes"/>
      <point x="48.294" y="456.142"/>
      <point x="58.16600000000001" y="443.362"/>
      <point x="91.538" y="443.362" type="curve" smooth="yes"/>
      <point x="124.91000000000001" y="443.362"/>
      <point x="134.782" y="456.142"/>
    </contour>
  </outline>
</glyph>
<glyph name="cent" format="2">
  <advance width="449.952"/>
  <unicode hex="00A2"/>
  <outline>
    <contour>
      <point x="250.66400000000002" y="-10.248000000000001" type="curve" smooth="yes"/>
      <point x="291.98400000000004" y="-10.248000000000001"/>
      <point x="337.988" y="-3.85"/>
      <point x="373.444" y="7.450000000000001" type="curve"/>
      <point x="359.71000000000004" y="74.34000000000002" type="line"/>
      <point x="328.73999999999995" y="66.644"/>
      <point x="296.144" y="62.76800000000001"/>
      <point x="267.012" y="62.76800000000001" type="curve" smooth="yes"/>
      <point x="193.31599999999997" y="62.76800000000001"/>
      <point x="156.456" y="125.44000000000001"/>
      <point x="156.456" y="259.16599999999994" type="curve" smooth="yes"/>
      <point x="156.456" y="406.088"/>
      <point x="196.70600000000002" y="472.874"/>
      <point x="271.27" y="472.874" type="curve" smooth="yes"/>
      <point x="301.152" y="472.874"/>
      <point x="324.86" y="469.03999999999996"/>
      <point x="353.34999999999997" y="461.722" type="curve"/>
      <point x="366.148" y="531.154" type="line"/>
      <point x="334.85400000000004" y="540.292"/>
      <point x="298.44399999999996" y="546.696"/>
      <point x="257.50600000000003" y="546.696" type="curve" smooth="yes"/>
      <point x="130.368" y="546.696"/>
      <point x="78.548" y="437.89"/>
      <point x="78.548" y="257.306" type="curve" smooth="yes"/>
      <point x="78.548" y="77.55600000000001"/>
      <point x="133.834" y="-10.248000000000001"/>
    </contour>
    <contour>
      <point x="208.924" y="-105.248" type="line"/>
      <point x="275.11400000000003" y="-105.248" type="line"/>
      <point x="275.11400000000003" y="0.6559999999999997" type="line"/>
      <point x="208.924" y="4.7780000000000005" type="line"/>
    </contour>
    <contour>
      <point x="208.924" y="529.926" type="line"/>
      <point x="275.11400000000003" y="536.488" type="line"/>
      <point x="275.11400000000003" y="640.952" type="line"/>
      <point x="208.924" y="640.952" type="line"/>
    </contour>
  </outline>
</glyph>
<glyph name="sterling" format="2">
  <advance width="450.324"/>
  <unicode hex="00A3"/>
  <outline>
    <contour>
      <point x="63.468" y="0.0" type="line"/>
      <point x="404.72600000000006" y="0.0" type="line"/>
      <point x="404.72600000000006" y="66.19" type="line"/>
      <point x="148.23999999999998" y="66.19" type="line"/>
      <point x="195.48400000000004" y="128.89999999999998"/>
      <point x="225.41400000000002" y="175.092"/>
      <point x="225.41400000000002" y="251.166" type="curve" smooth="yes"/>
      <point x="225.41400000000002" y="343.988"/>
      <point x="166.082" y="405.0"/>
      <point x="166.082" y="500.996" type="curve" smooth="yes"/>
      <point x="166.082" y="599.84"/>
      <point x="216.168" y="638.23"/>
      <point x="282.674" y="638.23" type="curve" smooth="yes"/>
      <point x="314.14799999999997" y="638.23"/>
      <point x="351.27" y="632.4639999999999"/>
      <point x="379.87199999999996" y="623.926" type="curve"/>
      <point x="392.84999999999997" y="686.42" type="line"/>
      <point x="360.574" y="701.298"/>
      <point x="310.568" y="710.0"/>
      <point x="270.274" y="710.0" type="curve" smooth="yes"/>
      <point x="150.932" y="710.0"/>
      <point x="87.18200000000002" y="633.8480000000001"/>
      <point x="87.18200000000002" y="521.38" type="curve" smooth="yes"/>
      <point x="87.18200000000002" y="397.568"/>
      <point x="152.40400000000002" y="348.2"/>
      <point x="152.40400000000002" y="245.43400000000003" type="curve" smooth="yes"/>
      <point x="152.40400000000002" y="174.612"/>
      <point x="125.17" y="130.97400000000002"/>
      <point x="63.468" y="53.78999999999999" type="curve"/>
    </contour>
    <contour>
      <point x="50.269999999999996" y="336.24" type="line"/>
      <point x="349.26" y="336.24" type="line"/>
      <point x="349.26" y="391.27" type="line"/>
      <point x="50.269999999999996" y="391.27" type="line"/>
    </contour>
  </outline>
</glyph>
<glyph name="currency" format="2">
  <advance width="434.47"/>
  <unicode hex="00A4"/>
  <outline>
    <contour>
      <point x="33.396" y="430.664" type="line"/>
      <point x="98.964" y="364.096" type="line"/>
      <point x="84.92399999999999" y="344.25800000000004"/>
      <point x="76.14800000000001" y="319.528"/>
      <point x="76.14800000000001" y="291.914" type="curve" smooth="yes"/>
      <point x="76.14800000000001" y="263.99"/>
      <point x="84.92399999999999" y="238.70200000000003"/>
      <point x="99.964" y="218.616" type="curve"/>
      <point x="33.396" y="152.048" type="line"/>
      <point x="78.27199999999999" y="107.172" type="line"/>
      <point x="147.816" y="176.654" type="line"/>
      <point x="166.724" y="162.234"/>
      <point x="191.02" y="154.644"/>
      <point x="217.448" y="154.644" type="curve" smooth="yes"/>
      <point x="243.504" y="154.644"/>
      <point x="267.808" y="162.29600000000002"/>
      <point x="286.592" y="176.468" type="curve"/>
      <point x="356.198" y="107.172" type="line"/>
      <point x="401.074" y="152.048" type="line"/>
      <point x="335.188" y="217.686" type="line"/>
      <point x="350.352" y="238.20600000000002"/>
      <point x="359.37600000000003" y="263.618"/>
      <point x="359.37600000000003" y="291.914" type="curve" smooth="yes"/>
      <point x="359.37600000000003" y="319.65200000000004"/>
      <point x="350.414" y="344.75399999999996"/>
      <point x="335.43600000000004" y="365.026" type="curve"/>
      <point x="401.074" y="430.664" type="line"/>
      <point x="356.198" y="475.53999999999996" type="line"/>
      <point x="287.584" y="406.926" type="line"/>
      <point x="268.552" y="421.16"/>
      <point x="244.44199999999998" y="429.75"/>
      <point x="217.448" y="429.75" type="curve" smooth="yes"/>
      <point x="189.834" y="429.75"/>
      <point x="165.53799999999998" y="420.912"/>
      <point x="146.134" y="406.74" type="curve"/>
      <point x="78.27199999999999" y="475.53999999999996" type="line"/>
    </contour>
    <contour>
      <point x="217.38600000000002" y="205.024" type="curve" smooth="yes"/>
      <point x="168.654" y="205.024"/>
      <point x="130.744" y="242.87199999999999"/>
      <point x="130.744" y="291.666" type="curve" smooth="yes"/>
      <point x="130.744" y="340.468"/>
      <point x="168.59199999999998" y="379.122"/>
      <point x="217.38600000000002" y="379.122" type="curve" smooth="yes"/>
      <point x="266.87" y="379.122"/>
      <point x="304.78" y="340.468"/>
      <point x="304.78" y="291.666" type="curve" smooth="yes"/>
      <point x="304.78" y="242.87199999999999"/>
      <point x="266.80800000000005" y="205.024"/>
    </contour>
  </outline>
</glyph>
<glyph name="yen" format="2">
  <advance width="450.4"/>
  <unicode hex="00A5"/>
  <outline>
    <contour>
      <point x="63.9" y="335.62" type="line"/>
      <point x="189.13" y="335.62" type="line"/>
      <point x="189.13" y="244.13000000000002" type="line"/>
      <point x="63.9" y="244.13000000000002" type="line"/>
      <point x="63.9" y="194.37" type="line"/>
      <point x="189.13" y="194.37" type="line"/>
      <point x="189.13" y="0.0" type="line"/>
      <point x="267.1" y="0.0" type="line"/>
      <point x="267.1" y="194.37" type="line"/>
      <point x="392.95" y="194.37" type="line"/>
      <point x="392.95" y="244.13000000000002" type="line"/>
      <point x="267.1" y="244.13000000000002" type="line"/>
      <point x="267.1" y="335.62" type="line"/>
      <point x="392.95" y="335.62" type="line"/>
      <point x="392.95" y="385.07" type="line"/>
      <point x="267.1" y="385.07" type="line"/>
      <point x="412.68" y="697.24" type="line"/>
      <point x="330.2" y="703.07" type="line"/>
      <point x="227.95999999999998" y="442.07" type="line"/>
      <point x="120.51" y="703.07" type="line"/>
      <point x="38.03" y="697.24" type="line"/>
      <point x="189.13" y="385.07" type="line"/>
      <point x="63.9" y="385.07" type="line"/>
    </contour>
  </outline>
</glyph>
<glyph name="brokenbar" format="2">
  <advance width="165.8"/>
  <unicode hex="00A6"/>
  <outline>
    <contour>
      <point x="115.406" y="391.0" type="line"/>
      <point x="115.406" y="790.2479999999999" type="line"/>
      <point x="50.394000000000005" y="790.2479999999999" type="line"/>
      <point x="50.394000000000005" y="391.0" type="line"/>
    </contour>
    <contour>
      <point x="50.394000000000005" y="190.248" type="line"/>
      <point x="50.394000000000005" y="-210.0" type="line"/>
      <point x="115.406" y="-210.0" type="line"/>
      <point x="115.406" y="190.248" type="line"/>
    </contour>
  </outline>
</glyph>
<glyph name="section" format="2">
  <advance width="425.153"/>
  <unicode hex="00A7"/>
  <outline>
    <contour>
      <point x="174.70000000000002" y="-220.465" type="curve" smooth="yes"/>
      <point x="304.62" y="-220.465"/>
      <point x="394.64" y="-103.833"/>
      <point x="394.64" y="56.361000000000004" type="curve" smooth="yes"/>
      <point x="394.64" y="139.623"/>
      <point x="374.254" y="223.65599999999998"/>
      <point x="308.761" y="390.881" type="curve" smooth="yes"/>
      <point x="256.32599999999996" y="528.2660000000001"/>
      <point x="243.99200000000002" y="559.852"/>
      <point x="243.99200000000002" y="598.1260000000001" type="curve" smooth="yes"/>
      <point x="243.99200000000002" y="644.607"/>
      <point x="268.272" y="672.2669999999999"/>
      <point x="308.929" y="672.2669999999999" type="curve" smooth="yes"/>
      <point x="324.29999999999995" y="672.2669999999999"/>
      <point x="339.51900000000006" y="669.577"/>
      <point x="359.41900000000004" y="661.121" type="curve"/>
      <point x="375.79200000000003" y="729.5139999999999" type="line"/>
      <point x="345.081" y="742.9879999999999"/>
      <point x="309.103" y="749.5409999999999"/>
      <point x="272.818" y="749.5409999999999" type="curve" smooth="yes"/>
      <point x="128.291" y="749.5409999999999"/>
      <point x="39.28000000000001" y="647.7539999999999"/>
      <point x="40.449999999999996" y="480.593" type="curve" smooth="yes"/>
      <point x="41.225" y="392.56499999999994"/>
      <point x="59.35" y="309.30300000000005"/>
      <point x="126.19800000000001" y="146.545" type="curve" smooth="yes"/>
      <point x="173.645" y="22.343000000000004"/>
      <point x="192.885" y="-24.855"/>
      <point x="192.96099999999998" y="-69.67600000000002" type="curve" smooth="yes"/>
      <point x="193.037" y="-116.008"/>
      <point x="167.44100000000003" y="-142.197"/>
      <point x="126.69599999999998" y="-142.197" type="curve" smooth="yes"/>
      <point x="100.644" y="-142.197"/>
      <point x="77.96900000000001" y="-133.28799999999998"/>
      <point x="47.321" y="-108.56400000000001" type="curve"/>
      <point x="28.653" y="-175.416" type="line"/>
      <point x="73.88700000000001" y="-207.611"/>
      <point x="116.737" y="-220.465"/>
    </contour>
    <contour>
      <point x="172.82799999999997" y="-172.75400000000002" type="curve" smooth="yes"/>
      <point x="151.37199999999999" y="-172.75400000000002"/>
      <point x="135.04700000000003" y="-169.593"/>
      <point x="120.023" y="-163.113" type="curve"/>
      <point x="144.86100000000002" y="-180.304" type="line"/>
      <point x="207.99400000000003" y="-179.915"/>
      <point x="249.01200000000003" y="-134.025"/>
      <point x="249.01200000000003" y="-69.205" type="curve" smooth="yes"/>
      <point x="249.01200000000003" y="-20.110999999999997"/>
      <point x="234.003" y="35.846000000000004"/>
      <point x="180.55" y="171.37" type="curve" smooth="yes"/>
      <point x="116.97200000000001" y="334.64900000000006"/>
      <point x="98.121" y="401.704"/>
      <point x="98.121" y="489.273" type="curve" smooth="yes"/>
      <point x="98.121" y="613.2360000000001"/>
      <point x="156.563" y="690.688"/>
      <point x="239.869" y="690.688" type="curve" smooth="yes"/>
      <point x="251.83200000000002" y="690.688"/>
      <point x="260.002" y="689.217"/>
      <point x="272.181" y="684.8860000000001" type="curve"/>
      <point x="257.063" y="702.253" type="line"/>
      <point x="213.47" y="693.952"/>
      <point x="186.55800000000002" y="649.913"/>
      <point x="186.172" y="601.229" type="curve" smooth="yes"/>
      <point x="186.172" y="552.5880000000001"/>
      <point x="199.09900000000002" y="506.63100000000003"/>
      <point x="252.86499999999998" y="371.475" type="curve" smooth="yes"/>
      <point x="320.37300000000005" y="195.72799999999998"/>
      <point x="338.66800000000006" y="126.238"/>
      <point x="338.66800000000006" y="49.231" type="curve" smooth="yes"/>
      <point x="338.744" y="-76.999"/>
      <point x="278.184" y="-172.67799999999997"/>
    </contour>
  </outline>
</glyph>
<glyph name="copyright" format="2">
  <advance width="545.716"/>
  <unicode hex="00A9"/>
  <outline>
    <contour>
      <point x="272.92" y="22.728" type="curve" smooth="yes"/>
      <point x="146.73600000000002" y="22.728"/>
      <point x="73.48" y="115.684"/>
      <point x="73.48" y="350.124" type="curve" smooth="yes"/>
      <point x="73.48" y="585.24"/>
      <point x="146.86" y="677.2719999999999"/>
      <point x="272.92" y="677.2719999999999" type="curve" smooth="yes"/>
      <point x="399.6" y="677.2719999999999"/>
      <point x="471.98800000000006" y="585.24"/>
      <point x="471.98800000000006" y="350.124" type="curve" smooth="yes"/>
      <point x="471.98800000000006" y="115.684"/>
      <point x="399.724" y="22.728"/>
    </contour>
    <contour>
      <point x="272.92" y="710.0" type="curve" smooth="yes"/>
      <point x="125.22800000000001" y="710.0"/>
      <point x="39.14" y="605.208"/>
      <point x="39.14" y="350.124" type="curve" smooth="yes"/>
      <point x="39.14" y="95.84"/>
      <point x="125.104" y="-10.0"/>
      <point x="272.92" y="-10.0" type="curve" smooth="yes"/>
      <point x="420.612" y="-10.0"/>
      <point x="506.576" y="95.84"/>
      <point x="506.576" y="350.124" type="curve" smooth="yes"/>
      <point x="506.576" y="605.208"/>
      <point x="420.612" y="710.0"/>
    </contour>
    <contour>
      <point x="158.85999999999999" y="341.18" type="curve" smooth="yes"/>
      <point x="158.85999999999999" y="214.224"/>
      <point x="202.96" y="154.836"/>
      <point x="280.168" y="154.836" type="curve" smooth="yes"/>
      <point x="310.668" y="154.836"/>
      <point x="341.91200000000003" y="159.76"/>
      <point x="364.82800000000003" y="168.12" type="curve"/>
      <point x="355.468" y="217.644" type="line"/>
      <point x="337.356" y="212.432"/>
      <point x="311.32" y="208.26000000000002"/>
      <point x="286.988" y="208.26000000000002" type="curve" smooth="yes"/>
      <point x="237.256" y="208.26000000000002"/>
      <point x="218.044" y="253.5"/>
      <point x="218.044" y="339.94" type="curve" smooth="yes"/>
      <point x="218.044" y="447.75199999999995"/>
      <point x="243.47199999999998" y="484.97200000000004"/>
      <point x="293.376" y="484.97200000000004" type="curve" smooth="yes"/>
      <point x="311.97599999999994" y="484.97200000000004"/>
      <point x="332.948" y="481.86400000000003"/>
      <point x="350.92" y="476.664" type="curve"/>
      <point x="361.272" y="525.6920000000001" type="line"/>
      <point x="339.02799999999996" y="534.86"/>
      <point x="311.756" y="538.5200000000001"/>
      <point x="285.68800000000005" y="538.5200000000001" type="curve" smooth="yes"/>
      <point x="209.84400000000002" y="538.5200000000001"/>
      <point x="158.85999999999999" y="487.952"/>
    </contour>
  </outline>
</glyph>
<glyph name="ordfeminine" format="2">
  <advance width="288.998"/>
  <unicode hex="00AA"/>
  <outline>
    <contour>
      <point x="33.428" y="273.164" type="line"/>
      <point x="262.00399999999996" y="273.164" type="line"/>
      <point x="262.00399999999996" y="316.184" type="line"/>
      <point x="33.428" y="316.184" type="line"/>
    </contour>
    <component base="a.superior" xOffset="11.174"/>
  </outline>
</glyph>
<glyph name="logicalnot" format="2">
  <advance width="434.164"/>
  <unicode hex="00AC"/>
  <outline>
    <contour>
      <point x="46.565999999999995" y="353.558" type="line"/>
      <point x="321.96000000000004" y="353.558" type="line"/>
      <point x="321.96000000000004" y="175.946" type="line"/>
      <point x="388.15000000000003" y="175.946" type="line"/>
      <point x="388.15000000000003" y="419.748" type="line"/>
      <point x="46.565999999999995" y="419.748" type="line"/>
    </contour>
  </outline>
</glyph>
<glyph name="registered" format="2">
  <advance width="522.6970000000001"/>
  <unicode hex="00AE"/>
  <outline>
    <contour>
      <point x="260.586" y="207.92099999999996" type="curve" smooth="yes"/>
      <point x="402.044" y="207.92099999999996"/>
      <point x="483.557" y="308.118"/>
      <point x="483.557" y="550.293" type="curve" smooth="yes"/>
      <point x="483.557" y="792.7410000000001"/>
      <point x="402.106" y="892.355"/>
      <point x="260.586" y="892.355" type="curve" smooth="yes"/>
      <point x="120.46099999999998" y="892.355"/>
      <point x="39.14" y="792.7410000000001"/>
      <point x="39.14" y="550.293" type="curve" smooth="yes"/>
      <point x="39.14" y="308.76899999999995"/>
      <point x="120.24399999999999" y="207.92099999999996"/>
    </contour>
    <contour>
      <point x="260.586" y="238.874" type="curve" smooth="yes"/>
      <point x="140.69000000000003" y="238.874"/>
      <point x="72.13299999999998" y="327.551"/>
      <point x="72.13299999999998" y="550.293" type="curve" smooth="yes"/>
      <point x="72.13299999999998" y="773.742"/>
      <point x="140.62800000000001" y="861.278"/>
      <point x="260.586" y="861.278" type="curve" smooth="yes"/>
      <point x="382.528" y="861.278"/>
      <point x="450.806" y="773.804"/>
      <point x="450.806" y="550.293" type="curve" smooth="yes"/>
      <point x="450.806" y="327.334"/>
      <point x="382.37300000000005" y="238.874"/>
    </contour>
    <contour>
      <point x="371.021" y="382.561" type="curve" smooth="yes"/>
      <point x="374.734" y="382.561"/>
      <point x="378.166" y="382.561"/>
      <point x="382.82800000000003" y="383.268" type="curve"/>
      <point x="381.17199999999997" y="435.94" type="line"/>
      <point x="379.389" y="435.388"/>
      <point x="377.72399999999993" y="435.388"/>
      <point x="375.724" y="435.388" type="curve" smooth="yes"/>
      <point x="354.351" y="435.481"/>
      <point x="336.28100000000006" y="465.285"/>
      <point x="311.921" y="529.745" type="curve"/>
      <point x="349.80000000000007" y="544.072"/>
      <point x="364.26900000000006" y="581.232"/>
      <point x="364.26900000000006" y="631.668" type="curve" smooth="yes"/>
      <point x="364.26900000000006" y="702.692"/>
      <point x="331.499" y="731.895"/>
      <point x="257.243" y="731.895" type="curve" smooth="yes"/>
      <point x="229.76099999999997" y="731.895"/>
      <point x="202.28599999999997" y="729.954"/>
      <point x="167.546" y="726.309" type="curve"/>
      <point x="167.546" y="385.508" type="line"/>
      <point x="219.313" y="385.508" type="line"/>
      <point x="219.313" y="514.872" type="line"/>
      <point x="230.747" y="514.244"/>
      <point x="240.36200000000002" y="513.492"/>
      <point x="250.326" y="513.492" type="curve" smooth="yes"/>
      <point x="254.644" y="513.492"/>
      <point x="258.55899999999997" y="513.492"/>
      <point x="262.72200000000004" y="514.044" type="curve"/>
      <point x="302.089" y="402.4289999999999"/>
      <point x="333.38000000000005" y="382.716"/>
    </contour>
    <contour>
      <point x="253.01600000000005" y="551.47" type="curve" smooth="yes"/>
      <point x="242.33299999999997" y="551.47"/>
      <point x="232.526" y="551.6080000000001"/>
      <point x="219.313" y="552.546" type="curve"/>
      <point x="219.313" y="683.2459999999999" type="line"/>
      <point x="236.27000000000004" y="685.3839999999998"/>
      <point x="244.14000000000001" y="686.012"/>
      <point x="257.64" y="686.012" type="curve" smooth="yes"/>
      <point x="304.41200000000003" y="686.012"/>
      <point x="311.2" y="662.577"/>
      <point x="311.2" y="624.2399999999999" type="curve" smooth="yes"/>
      <point x="311.2" y="577.3500000000001"/>
      <point x="299.954" y="551.47"/>
    </contour>
  </outline>
</glyph>
<glyph name="degree" format="2">
  <advance width="267.68"/>
  <unicode hex="00B0"/>
  <outline>
    <contour>
      <point x="133.21200000000002" y="470.4" type="curve" smooth="yes"/>
      <point x="202.952" y="470.4"/>
      <point x="239.664" y="526.692"/>
      <point x="239.664" y="595.72" type="curve" smooth="yes"/>
      <point x="239.664" y="662.64"/>
      <point x="204.936" y="722.42"/>
      <point x="133.21200000000002" y="722.42" type="curve" smooth="yes"/>
      <point x="61.364000000000004" y="722.42"/>
      <point x="28.016" y="662.64"/>
      <point x="28.016" y="595.72" type="curve" smooth="yes"/>
      <point x="28.016" y="526.692"/>
      <point x="63.472" y="470.4"/>
    </contour>
    <contour>
      <point x="133.21200000000002" y="525.368" type="curve" smooth="yes"/>
      <point x="98.9" y="525.368"/>
      <point x="81.124" y="555.796"/>
      <point x="81.124" y="595.472" type="curve" smooth="yes"/>
      <point x="81.124" y="634.4040000000001"/>
      <point x="98.52799999999999" y="666.336"/>
      <point x="133.21200000000002" y="666.336" type="curve" smooth="yes"/>
      <point x="167.772" y="666.336"/>
      <point x="186.68000000000004" y="634.4040000000001"/>
      <point x="186.68000000000004" y="595.472" type="curve" smooth="yes"/>
      <point x="186.68000000000004" y="555.796"/>
      <point x="167.524" y="525.368"/>
    </contour>
  </outline>
</glyph>
<glyph name="plusminus" format="2">
  <advance width="451.82800000000003"/>
  <unicode hex="00B1"/>
  <outline>
    <contour>
      <point x="44.358000000000004" y="49.618" type="line"/>
      <point x="407.46999999999997" y="49.618" type="line"/>
      <point x="407.46999999999997" y="115.80799999999999" type="line"/>
      <point x="260.218" y="115.80799999999999" type="line"/>
      <point x="260.218" y="284.546" type="line"/>
      <point x="407.46999999999997" y="284.546" type="line"/>
      <point x="407.46999999999997" y="350.736" type="line"/>
      <point x="260.218" y="350.736" type="line"/>
      <point x="260.218" y="510.63000000000005" type="line"/>
      <point x="191.548" y="510.63000000000005" type="line"/>
      <point x="191.548" y="350.736" type="line"/>
      <point x="44.358000000000004" y="350.736" type="line"/>
      <point x="44.358000000000004" y="284.546" type="line"/>
      <point x="191.548" y="284.546" type="line"/>
      <point x="191.548" y="115.80799999999999" type="line"/>
      <point x="44.358000000000004" y="115.80799999999999" type="line"/>
    </contour>
  </outline>
</glyph>
<glyph name="uni00B2" format="2">
  <advance width="315.708"/>
  <unicode hex="00B2"/>
  <outline>
    <contour>
      <point x="51.272000000000006" y="370.0" type="line"/>
      <point x="271.174" y="370.0" type="line"/>
      <point x="271.174" y="411.358" type="line"/>
      <point x="118.476" y="411.358" type="line"/>
      <point x="215.812" y="536.458"/>
      <point x="243.264" y="598.898"/>
      <point x="243.264" y="661.0860000000001" type="curve" smooth="yes"/>
      <point x="243.264" y="733.534"/>
      <point x="206.9" y="774.738"/>
      <point x="143.85" y="774.738" type="curve" smooth="yes"/>
      <point x="109.34" y="774.738"/>
      <point x="74.91199999999999" y="764.9540000000001"/>
      <point x="46.442" y="741.0300000000001" type="curve"/>
      <point x="64.644" y="698.6080000000001" type="line"/>
      <point x="88.118" y="718.1700000000001"/>
      <point x="109.438" y="723.1700000000001"/>
      <point x="133.164" y="723.1700000000001" type="curve" smooth="yes"/>
      <point x="167.73600000000002" y="723.1700000000001"/>
      <point x="188.28400000000002" y="694.0600000000001"/>
      <point x="188.28400000000002" y="649.482" type="curve" smooth="yes"/>
      <point x="188.28400000000002" y="597.356"/>
      <point x="148.516" y="522.926"/>
      <point x="49.202000000000005" y="407.06399999999996" type="curve"/>
    </contour>
  </outline>
</glyph>
<glyph name="uni00B3" format="2">
  <advance width="312.624"/>
  <unicode hex="00B3"/>
  <outline>
    <contour>
      <point x="35.089999999999996" y="390.91600000000005" type="line"/>
      <point x="67.848" y="370.28200000000004"/>
      <point x="100.51400000000001" y="361.67400000000004"/>
      <point x="143.78" y="361.67400000000004" type="curve" smooth="yes"/>
      <point x="223.342" y="361.67400000000004"/>
      <point x="272.224" y="406.392"/>
      <point x="272.224" y="483.48" type="curve" smooth="yes"/>
      <point x="272.224" y="533.1800000000001"/>
      <point x="250.14799999999997" y="568.036"/>
      <point x="206.67800000000003" y="580.0319999999999" type="curve"/>
      <point x="239.94" y="593.684"/>
      <point x="259.028" y="628.174"/>
      <point x="259.028" y="670.9079999999999" type="curve" smooth="yes"/>
      <point x="259.028" y="734.364"/>
      <point x="217.16400000000002" y="774.406"/>
      <point x="144.536" y="774.406" type="curve" smooth="yes"/>
      <point x="102.26800000000001" y="774.406"/>
      <point x="67.46199999999999" y="764.986"/>
      <point x="45.192" y="750.196" type="curve"/>
      <point x="60.748000000000005" y="712.128" type="line"/>
      <point x="75.372" y="720.378"/>
      <point x="96.598" y="726.888"/>
      <point x="132.568" y="726.888" type="curve" smooth="yes"/>
      <point x="178.478" y="726.888"/>
      <point x="206.77" y="701.39"/>
      <point x="206.77" y="658.5900000000001" type="curve" smooth="yes"/>
      <point x="206.77" y="621.8539999999999"/>
      <point x="188.87" y="594.334"/>
      <point x="147.89600000000002" y="594.334" type="curve" smooth="yes"/>
      <point x="96.596" y="594.334" type="line"/>
      <point x="96.596" y="555.346" type="line"/>
      <point x="146.456" y="555.346" type="line" smooth="yes"/>
      <point x="199.58200000000002" y="555.346"/>
      <point x="217.93200000000002" y="529.876"/>
      <point x="217.93200000000002" y="487.2" type="curve" smooth="yes"/>
      <point x="217.93200000000002" y="436.542"/>
      <point x="188.57400000000004" y="406.684"/>
      <point x="137.462" y="406.684" type="curve" smooth="yes"/>
      <point x="99.47600000000001" y="406.684"/>
      <point x="76.44600000000001" y="413.444"/>
      <point x="53.217999999999996" y="428.95" type="curve"/>
    </contour>
  </outline>
</glyph>
<glyph name="uni00B5" format="2">
  <advance width="433.21999999999997"/>
  <unicode hex="00B5"/>
  <outline>
    <contour>
      <point x="49.46" y="-210.0" type="line"/>
      <point x="123.02799999999999" y="-210.0" type="line"/>
      <point x="123.02799999999999" y="20.468" type="line"/>
      <point x="137.018" y="-0.528"/>
      <point x="159.922" y="-9.504000000000001"/>
      <point x="189.428" y="-9.504000000000001" type="curve" smooth="yes"/>
      <point x="232.45600000000002" y="-9.504000000000001"/>
      <point x="270.97200000000004" y="7.324000000000001"/>
      <point x="306.87" y="30.869999999999997" type="curve"/>
      <point x="316.836" y="4.558"/>
      <point x="336.562" y="-10.0"/>
      <point x="369.964" y="-10.0" type="curve" smooth="yes"/>
      <point x="392.992" y="-10.0"/>
      <point x="413.224" y="-4.204000000000001"/>
      <point x="431.482" y="5.324" type="curve"/>
      <point x="422.57400000000007" y="64.036" type="line"/>
      <point x="414.234" y="60.089999999999996"/>
      <point x="405.55" y="58.262"/>
      <point x="397.376" y="58.262" type="curve" smooth="yes"/>
      <point x="381.40000000000003" y="58.262"/>
      <point x="370.88000000000005" y="68.292"/>
      <point x="370.88000000000005" y="98.4" type="curve" smooth="yes"/>
      <point x="370.88000000000005" y="536.2" type="line"/>
      <point x="295.08000000000004" y="536.2" type="line"/>
      <point x="295.08000000000004" y="89.426" type="line"/>
      <point x="263.38800000000003" y="70.22"/>
      <point x="229.63800000000003" y="57.193999999999996"/>
      <point x="196.08200000000002" y="57.193999999999996" type="curve" smooth="yes"/>
      <point x="149.9" y="57.193999999999996"/>
      <point x="125.508" y="83.728"/>
      <point x="125.508" y="132.05" type="curve" smooth="yes"/>
      <point x="125.508" y="536.2" type="line"/>
      <point x="49.46" y="536.2" type="line"/>
    </contour>
  </outline>
</glyph>
<glyph name="paragraph" format="2">
  <advance width="516.282"/>
  <unicode hex="00B6"/>
  <outline>
    <contour>
      <point x="400.624" y="-210.0" type="line"/>
      <point x="462.41200000000003" y="-210.0" type="line"/>
      <point x="462.41200000000003" y="740.0" type="line"/>
      <point x="400.624" y="740.0" type="line"/>
    </contour>
    <contour>
      <point x="212.674" y="250.458" type="line"/>
      <point x="136.06599999999997" y="265.014"/>
      <point x="97.07399999999998" y="344.45399999999995"/>
      <point x="97.07399999999998" y="464.62000000000006" type="curve" smooth="yes"/>
      <point x="97.07399999999998" y="586.1840000000001"/>
      <point x="145.05999999999997" y="671.2439999999999"/>
      <point x="253.26800000000003" y="674.418" type="curve"/>
      <point x="253.26800000000003" y="-210.0" type="line"/>
      <point x="315.056" y="-210.0" type="line"/>
      <point x="315.056" y="740.0" type="line"/>
      <point x="273.61" y="740.0" type="line" smooth="yes"/>
      <point x="95.736" y="740.0"/>
      <point x="29.148" y="621.4039999999999"/>
      <point x="29.148" y="467.968" type="curve" smooth="yes"/>
      <point x="29.148" y="322.324"/>
      <point x="83.378" y="221.03"/>
      <point x="205.15" y="198.40399999999997" type="curve"/>
    </contour>
  </outline>
</glyph>
<glyph name="periodcentered" format="2">
  <advance width="154.20600000000002"/>
  <unicode hex="00B7"/>
  <outline>
    <contour>
      <point x="33.618" y="299.09" type="curve" smooth="yes"/>
      <point x="33.618" y="263.87"/>
      <point x="44.61400000000001" y="251.09"/>
      <point x="77.296" y="251.09" type="curve" smooth="yes"/>
      <point x="110.668" y="251.09"/>
      <point x="120.66399999999999" y="263.87"/>
      <point x="120.66399999999999" y="299.09" type="curve" smooth="yes"/>
      <point x="120.66399999999999" y="334.62"/>
      <point x="110.668" y="347.4"/>
      <point x="77.296" y="347.4" type="curve" smooth="yes"/>
      <point x="43.61400000000001" y="347.4"/>
      <point x="33.618" y="334.62"/>
    </contour>
  </outline>
</glyph>
<glyph name="uni00B9" format="2">
  <advance width="290.39599999999996"/>
  <unicode hex="00B9"/>
  <outline>
    <contour>
      <point x="31.46" y="370.0" type="line"/>
      <point x="266.29400000000004" y="370.0" type="line"/>
      <point x="266.29400000000004" y="412.22" type="line"/>
      <point x="182.75799999999998" y="412.22" type="line"/>
      <point x="182.75799999999998" y="769.104" type="line"/>
      <point x="154.76399999999998" y="769.104" type="line"/>
      <point x="25.204" y="702.0219999999999" type="line"/>
      <point x="38.260000000000005" y="656.7520000000001" type="line"/>
      <point x="127.48799999999999" y="707.198" type="line"/>
      <point x="127.48799999999999" y="412.22" type="line"/>
      <point x="31.46" y="412.22" type="line"/>
    </contour>
  </outline>
</glyph>
<glyph name="ordmasculine" format="2">
  <advance width="304.884"/>
  <unicode hex="00BA"/>
  <outline>
    <contour>
      <point x="39.826" y="273.30199999999996" type="line"/>
      <point x="269.506" y="273.30199999999996" type="line"/>
      <point x="269.506" y="316.322" type="line"/>
      <point x="39.826" y="316.322" type="line"/>
    </contour>
    <component base="o.superior" xOffset="14.624"/>
  </outline>
</glyph>
<glyph name="questiondown" format="2">
  <advance width="360.572"/>
  <unicode hex="00BF"/>
  <outline>
    <contour>
      <point x="241.91" y="271.374" type="line"/>
      <point x="174.60399999999998" y="271.374" type="line"/>
      <point x="174.48" y="198.378" type="line"/>
      <point x="77.54400000000001" y="135.842"/>
      <point x="32.602" y="78.73"/>
      <point x="32.602" y="-28.999999999999996" type="curve" smooth="yes"/>
      <point x="32.602" y="-158.7"/>
      <point x="111.024" y="-216.342"/>
      <point x="204.96599999999998" y="-216.342" type="curve" smooth="yes"/>
      <point x="261.56" y="-216.342"/>
      <point x="320.56600000000003" y="-194.18400000000003"/>
      <point x="362.522" y="-158.56199999999998" type="curve"/>
      <point x="334.74" y="-95.644" type="line"/>
      <point x="293.822" y="-128.62800000000001"/>
      <point x="252.946" y="-141.466"/>
      <point x="215.32" y="-141.466" type="curve" smooth="yes"/>
      <point x="158.49" y="-141.466"/>
      <point x="111.434" y="-97.98400000000001"/>
      <point x="111.434" y="-19.874" type="curve" smooth="yes"/>
      <point x="111.434" y="51.776"/>
      <point x="139.47" y="102.826"/>
      <point x="243.336" y="163.674" type="curve"/>
    </contour>
    <contour>
      <point x="251.05599999999998" y="488.758" type="curve" smooth="yes"/>
      <point x="251.05599999999998" y="523.792"/>
      <point x="239.638" y="536.572"/>
      <point x="207.26000000000002" y="536.572" type="curve" smooth="yes"/>
      <point x="174.68800000000002" y="536.572"/>
      <point x="164.01600000000002" y="523.792"/>
      <point x="164.01600000000002" y="488.758" type="curve" smooth="yes"/>
      <point x="164.01600000000002" y="453.414"/>
      <point x="174.68800000000002" y="440.63399999999996"/>
      <point x="207.26000000000002" y="440.63399999999996" type="curve" smooth="yes"/>
      <point x="240.88000000000002" y="440.63399999999996"/>
      <point x="251.05599999999998" y="453.414"/>
    </contour>
  </outline>
</glyph>
<glyph name="AE" format="2">
  <advance width="716.736"/>
  <unicode hex="00C6"/>
  <anchor x="389.05100000000004" y="700.0" name="top"/>
  <outline>
    <contour>
      <point x="11.425999999999998" y="0.0" type="line"/>
      <point x="97.90899999999999" y="-0.7689999999999999" type="line"/>
      <point x="207.733" y="257.113" type="line"/>
      <point x="354.57" y="257.113" type="line"/>
      <point x="354.57" y="0.0" type="line"/>
      <point x="697.739" y="0.0" type="line"/>
      <point x="697.739" y="73.00999999999999" type="line"/>
      <point x="431.14500000000004" y="73.00999999999999" type="line"/>
      <point x="431.14500000000004" y="302.68899999999996" type="line"/>
      <point x="663.6479999999999" y="302.68899999999996" type="line"/>
      <point x="663.6479999999999" y="373.839" type="line"/>
      <point x="431.14500000000004" y="373.839" type="line"/>
      <point x="431.14500000000004" y="626.215" type="line"/>
      <point x="683.97" y="626.215" type="line"/>
      <point x="683.97" y="700.0" type="line"/>
      <point x="307.85" y="700.0" type="line"/>
    </contour>
    <contour>
      <point x="231.619" y="326.719" type="line"/>
      <point x="353.95000000000005" y="640.6270000000001" type="line"/>
      <point x="353.95000000000005" y="326.719" type="line"/>
    </contour>
  </outline>
</glyph>
<glyph name="multiply" format="2">
  <advance width="416.924"/>
  <unicode hex="00D7"/>
  <outline>
    <contour>
      <point x="97.98799999999999" y="96.13" type="line"/>
      <point x="208.048" y="253.272" type="line"/>
      <point x="318.798" y="97.09599999999999" type="line"/>
      <point x="366.688" y="141.94" type="line"/>
      <point x="254.734" y="303.004" type="line"/>
      <point x="366.412" y="465.51" type="line"/>
      <point x="318.52200000000005" y="510.354" type="line"/>
      <point x="208.048" y="353.28799999999995" type="line"/>
      <point x="97.85" y="510.62999999999994" type="line"/>
      <point x="49.959999999999994" y="465.78599999999994" type="line"/>
      <point x="161.852" y="303.004" type="line"/>
      <point x="50.098" y="140.974" type="line"/>
    </contour>
  </outline>
</glyph>
<glyph name="Oslash" format="2">
  <advance width="514.5600000000001"/>
  <unicode hex="00D8"/>
  <anchor x="256.21000000000004" y="700.0" name="top"/>
  <outline>
    <contour>
      <point x="94.17" y="-10.62" type="line"/>
      <point x="135.31" y="64.26" type="line"/>
      <point x="140.6" y="65.85" type="line"/>
      <point x="411.74" y="593.38" type="line"/>
      <point x="416.72" y="594.85" type="line"/>
      <point x="479.14" y="713.1" type="line"/>
      <point x="419.13" y="713.1" type="line"/>
      <point x="376.82" y="633.6400000000001" type="line"/>
      <point x="371.34" y="631.86" type="line"/>
      <point x="104.42" y="113.32" type="line"/>
      <point x="99.94" y="112.61" type="line"/>
      <point x="34.66" y="-10.62" type="line"/>
    </contour>
    <contour>
      <point x="256.21000000000004" y="54.690000000000005" type="curve" smooth="yes"/>
      <point x="169.71" y="54.690000000000005"/>
      <point x="108.97999999999999" y="112.65"/>
      <point x="108.97999999999999" y="349.31" type="curve" smooth="yes"/>
      <point x="108.97999999999999" y="588.92"/>
      <point x="169.71" y="645.3100000000001"/>
      <point x="256.21000000000004" y="645.3100000000001" type="curve" smooth="yes"/>
      <point x="343.4" y="645.3100000000001"/>
      <point x="404.63" y="589.42"/>
      <point x="404.63" y="349.62" type="curve" smooth="yes"/>
      <point x="404.63" y="111.2"/>
      <point x="343.4" y="54.690000000000005"/>
    </contour>
    <contour>
      <point x="256.21000000000004" y="-10.0" type="curve" smooth="yes"/>
      <point x="395.59999999999997" y="-10.0"/>
      <point x="481.24" y="66.55999999999999"/>
      <point x="481.24" y="350.93" type="curve" smooth="yes"/>
      <point x="481.24" y="633.4399999999999"/>
      <point x="395.58" y="710.0"/>
      <point x="256.21000000000004" y="710.0" type="curve" smooth="yes"/>
      <point x="116.84000000000002" y="710.0"/>
      <point x="32.56" y="632.63"/>
      <point x="32.56" y="349.31" type="curve" smooth="yes"/>
      <point x="32.56" y="68.51"/>
      <point x="118.08000000000001" y="-10.0"/>
    </contour>
  </outline>
</glyph>
<glyph name="Thorn" format="2">
  <advance width="460.948"/>
  <unicode hex="00DE"/>
  <outline>
    <contour>
      <point x="53.43800000000001" y="0.0" type="line"/>
      <point x="130.726" y="0.0" type="line"/>
      <point x="130.726" y="156.306" type="line"/>
      <point x="175.528" y="153.96200000000002"/>
      <point x="192.43800000000002" y="153.824"/>
      <point x="234.52999999999997" y="153.824" type="curve" smooth="yes"/>
      <point x="376.41400000000004" y="153.824"/>
      <point x="436.268" y="223.358"/>
      <point x="436.268" y="394.73400000000004" type="curve" smooth="yes"/>
      <point x="436.268" y="558.0600000000001"/>
      <point x="388.586" y="619.676"/>
      <point x="217.29800000000003" y="619.676" type="curve" smooth="yes"/>
      <point x="197.852" y="619.676"/>
      <point x="173.228" y="618.7860000000001"/>
      <point x="130.974" y="616.516" type="curve"/>
      <point x="130.974" y="700.0" type="line"/>
      <point x="53.43800000000001" y="700.0" type="line"/>
    </contour>
    <contour>
      <point x="218.156" y="223.92" type="curve" smooth="yes"/>
      <point x="185.518" y="223.92"/>
      <point x="165.774" y="224.396"/>
      <point x="130.974" y="226.106" type="curve"/>
      <point x="130.974" y="548.026" type="line"/>
      <point x="177.906" y="551.7779999999999"/>
      <point x="199.898" y="552.606"/>
      <point x="222.5" y="552.606" type="curve" smooth="yes"/>
      <point x="332.222" y="552.606"/>
      <point x="358.546" y="507.63199999999995"/>
      <point x="358.546" y="395.99199999999996" type="curve" smooth="yes"/>
      <point x="358.546" y="277.21799999999996"/>
      <point x="324.676" y="223.92"/>
    </contour>
  </outline>
</glyph>
<glyph name="germandbls" format="2">
  <advance width="514.636"/>
  <unicode hex="00DF"/>
  <outline>
    <contour>
      <point x="83.456" y="0.0" type="line"/>
      <point x="159.008" y="0.0" type="line"/>
      <point x="159.008" y="526.928" type="line" smooth="yes"/>
      <point x="159.008" y="633.008"/>
      <point x="201.16" y="683.756"/>
      <point x="289.48" y="683.756" type="curve" smooth="yes"/>
      <point x="356.26800000000003" y="683.756"/>
      <point x="384.96" y="660.592"/>
      <point x="384.96" y="614.504" type="curve" smooth="yes"/>
      <point x="384.96" y="576.904"/>
      <point x="369.772" y="558.116"/>
      <point x="315.468" y="526.072" type="curve" smooth="yes"/>
      <point x="257.748" y="493.812"/>
      <point x="228.016" y="454.43600000000004"/>
      <point x="228.016" y="396.752" type="curve" smooth="yes"/>
      <point x="228.016" y="322.124"/>
      <point x="256.712" y="287.268"/>
      <point x="347.78" y="242.06" type="curve" smooth="yes"/>
      <point x="417.888" y="203.18"/>
      <point x="439.412" y="180.724"/>
      <point x="439.412" y="135.74" type="curve" smooth="yes"/>
      <point x="439.412" y="84.356"/>
      <point x="398.564" y="54.268"/>
      <point x="336.496" y="54.268" type="curve" smooth="yes"/>
      <point x="291.03200000000004" y="54.268"/>
      <point x="251.256" y="64.012"/>
      <point x="213.288" y="77.268" type="curve"/>
      <point x="198.956" y="16.492" type="line"/>
      <point x="239.66400000000002" y="-0.8719999999999999"/>
      <point x="289.76" y="-10.0"/>
      <point x="339.844" y="-10.0" type="curve" smooth="yes"/>
      <point x="437.356" y="-10.0"/>
      <point x="510.12800000000004" y="41.1"/>
      <point x="510.12800000000004" y="140.204" type="curve" smooth="yes"/>
      <point x="510.12800000000004" y="215.61599999999999"/>
      <point x="475.29999999999995" y="257.85200000000003"/>
      <point x="383.484" y="302.192" type="curve" smooth="yes"/>
      <point x="316.00800000000004" y="338.32800000000003"/>
      <point x="298.98" y="361.488"/>
      <point x="298.98" y="401.34" type="curve" smooth="yes"/>
      <point x="298.98" y="437.296"/>
      <point x="319.764" y="458.14"/>
      <point x="362.68399999999997" y="483.432" type="curve" smooth="yes"/>
      <point x="431.384" y="522.672"/>
      <point x="460.88399999999996" y="555.4159999999999"/>
      <point x="460.88399999999996" y="615.62" type="curve" smooth="yes"/>
      <point x="460.88399999999996" y="703.34"/>
      <point x="400.62" y="750.0"/>
      <point x="287.252" y="750.0" type="curve" smooth="yes"/>
      <point x="153.19600000000003" y="750.0"/>
      <point x="83.584" y="676.048"/>
      <point x="83.456" y="540.536" type="curve" smooth="yes"/>
      <point x="83.456" y="495.412" type="line"/>
      <point x="14.652000000000001" y="488.048" type="line"/>
      <point x="14.652000000000001" y="433.376" type="line"/>
      <point x="83.456" y="433.376" type="line"/>
    </contour>
  </outline>
</glyph>
<glyph name="ae" format="2">
  <advance width="638.6750000000001"/>
  <unicode hex="00E6"/>
  <anchor x="323.54499999999996" y="536.2" name="top"/>
  <outline>
    <contour>
      <point x="137.73" y="-10.0" type="curve" smooth="yes"/>
      <point x="203.195" y="-10.0"/>
      <point x="256.09499999999997" y="22.335"/>
      <point x="304.505" y="72.32" type="curve"/>
      <point x="305.81499999999994" y="72.32" type="line"/>
      <point x="336.09999999999997" y="15.554999999999998"/>
      <point x="381.40500000000003" y="-10.0"/>
      <point x="454.9" y="-10.0" type="curve" smooth="yes"/>
      <point x="513.825" y="-10.0"/>
      <point x="560.765" y="-0.95"/>
      <point x="604.925" y="15.770000000000001" type="curve"/>
      <point x="593.76" y="79.685" type="line"/>
      <point x="554.7149999999999" y="67.72"/>
      <point x="508.58500000000004" y="59.41"/>
      <point x="465.35499999999996" y="59.41" type="curve" smooth="yes"/>
      <point x="383.77500000000003" y="59.41"/>
      <point x="347.59499999999997" y="99.99499999999999"/>
      <point x="346.975" y="241.935" type="curve" smooth="yes"/>
      <point x="346.665" y="247.35000000000002"/>
      <point x="346.665" y="254.37"/>
      <point x="347.165" y="258.785" type="curve"/>
      <point x="468.66499999999996" y="260.49"/>
      <point x="565.865" y="273.715"/>
      <point x="610.86" y="279.21500000000003" type="curve"/>
      <point x="611.0150000000001" y="288.485"/>
      <point x="612.0150000000001" y="300.735"/>
      <point x="612.0150000000001" y="315.32" type="curve" smooth="yes"/>
      <point x="612.0150000000001" y="475.27"/>
      <point x="557.8299999999999" y="546.2"/>
      <point x="448.09499999999997" y="546.2" type="curve" smooth="yes"/>
      <point x="389.145" y="546.2"/>
      <point x="340.72499999999997" y="516.985"/>
      <point x="314.79999999999995" y="450.86" type="curve"/>
      <point x="313.8" y="450.86" type="line"/>
      <point x="299.30000000000007" y="513.24"/>
      <point x="257.16" y="546.2"/>
      <point x="183.84500000000003" y="546.2" type="curve" smooth="yes"/>
      <point x="142.335" y="546.2"/>
      <point x="91.4" y="537.22"/>
      <point x="46.94" y="521.86" type="curve"/>
      <point x="62.24" y="456.12" type="line"/>
      <point x="107.63" y="470.51500000000004"/>
      <point x="148.125" y="474.89500000000004"/>
      <point x="178.765" y="474.89500000000004" type="curve" smooth="yes"/>
      <point x="239.19000000000003" y="474.89500000000004"/>
      <point x="269.54" y="444.575"/>
      <point x="269.54" y="388.435" type="curve" smooth="yes"/>
      <point x="269.54" y="311.19" type="line"/>
      <point x="94.855" y="284.285"/>
      <point x="18.505" y="241.57999999999998"/>
      <point x="18.505" y="126.05000000000001" type="curve" smooth="yes"/>
      <point x="18.505" y="39.285000000000004"/>
      <point x="63.964999999999996" y="-10.0"/>
    </contour>
    <contour>
      <point x="160.27499999999998" y="48.68000000000001" type="curve" smooth="yes"/>
      <point x="120.02000000000001" y="48.68000000000001"/>
      <point x="94.30499999999999" y="78.74000000000001"/>
      <point x="94.30499999999999" y="134.30499999999998" type="curve" smooth="yes"/>
      <point x="94.30499999999999" y="212.39499999999998"/>
      <point x="157.815" y="244.37"/>
      <point x="269.505" y="262.89500000000004" type="curve"/>
      <point x="269.505" y="253.43"/>
      <point x="269.505" y="243.345"/>
      <point x="269.505" y="233.57" type="curve" smooth="yes"/>
      <point x="269.505" y="184.95000000000002"/>
      <point x="273.3" y="146.025"/>
      <point x="278.97499999999997" y="116.07000000000001" type="curve"/>
      <point x="248.79" y="78.83"/>
      <point x="202.01500000000001" y="48.68000000000001"/>
    </contour>
    <contour>
      <point x="347.045" y="307.66499999999996" type="curve"/>
      <point x="347.2" y="442.025"/>
      <point x="390.70000000000005" y="486.31499999999994"/>
      <point x="443.96000000000004" y="486.31499999999994" type="curve" smooth="yes"/>
      <point x="503.895" y="486.31499999999994"/>
      <point x="534.0450000000001" y="434.315"/>
      <point x="535.5949999999999" y="320.67" type="curve"/>
      <point x="508.31500000000005" y="315.72"/>
      <point x="427.8550000000001" y="307.66499999999996"/>
    </contour>
  </outline>
</glyph>
<glyph name="eth" format="2">
  <advance width="418.25"/>
  <unicode hex="00F0"/>
  <outline>
    <contour>
      <point x="324.14" y="451.43" type="curve"/>
      <point x="327.81" y="508.32" type="line"/>
      <point x="297.76" y="528.48"/>
      <point x="261.62" y="536.43"/>
      <point x="219.22" y="536.43" type="curve" smooth="yes"/>
      <point x="86.89" y="536.43"/>
      <point x="30.25" y="448.71"/>
      <point x="30.25" y="254.52" type="curve" smooth="yes"/>
      <point x="30.25" y="67.41"/>
      <point x="84.31" y="-10.0"/>
      <point x="201.48" y="-10.0" type="curve" smooth="yes"/>
      <point x="339.66" y="-10.0"/>
      <point x="388.24" y="73.64999999999999"/>
      <point x="388.24" y="335.04" type="curve" smooth="yes"/>
      <point x="388.24" y="605.97"/>
      <point x="321.71000000000004" y="723.64"/>
      <point x="155.47" y="723.64" type="curve" smooth="yes"/>
      <point x="113.39" y="723.64"/>
      <point x="77.58999999999999" y="717.16"/>
      <point x="34.61" y="705.11" type="curve"/>
      <point x="44.57" y="652.27" type="line"/>
      <point x="79.88" y="661.5799999999999"/>
      <point x="105.88" y="667.51"/>
      <point x="139.83" y="667.51" type="curve" smooth="yes"/>
      <point x="268.76" y="667.51"/>
      <point x="312.32" y="591.25"/>
      <point x="312.32" y="339.85999999999996" type="curve" smooth="yes"/>
      <point x="312.32" y="109.63"/>
      <point x="284.42999999999995" y="49.42"/>
      <point x="206.94" y="49.42" type="curve" smooth="yes"/>
      <point x="137.92000000000002" y="49.42"/>
      <point x="108.53" y="104.03999999999999"/>
      <point x="108.53" y="255.02" type="curve" smooth="yes"/>
      <point x="108.53" y="421.96999999999997"/>
      <point x="148.48" y="479.37"/>
      <point x="230.31" y="479.37" type="curve" smooth="yes"/>
      <point x="264.32" y="479.37"/>
      <point x="295.59999999999997" y="472.8"/>
    </contour>
    <contour>
      <point x="138.78" y="562.0799999999999" type="line"/>
      <point x="272.35999999999996" y="646.34" type="line"/>
      <point x="276.85999999999996" y="651.87" type="line"/>
      <point x="392.46" y="728.4699999999999" type="line"/>
      <point x="319.53999999999996" y="728.4699999999999" type="line"/>
      <point x="244.71" y="680.18" type="line"/>
      <point x="242.14" y="676.2" type="line"/>
      <point x="65.36" y="562.0799999999999" type="line"/>
    </contour>
  </outline>
</glyph>
<glyph name="divide" format="2">
  <advance width="434.34999999999997"/>
  <unicode hex="00F7"/>
  <outline>
    <contour>
      <point x="177.062" y="116.824" type="curve" smooth="yes"/>
      <point x="177.062" y="87.49400000000001"/>
      <point x="186.824" y="77.504"/>
      <point x="217.32999999999998" y="77.504" type="curve" smooth="yes"/>
      <point x="247.912" y="77.504"/>
      <point x="257.598" y="87.49400000000001"/>
      <point x="257.598" y="116.824" type="curve" smooth="yes"/>
      <point x="257.598" y="145.84400000000002"/>
      <point x="247.60799999999998" y="156.144"/>
      <point x="217.32999999999998" y="156.144" type="curve" smooth="yes"/>
      <point x="186.438" y="156.144"/>
      <point x="177.062" y="145.84400000000002"/>
    </contour>
    <contour>
      <point x="177.062" y="485.356" type="curve" smooth="yes"/>
      <point x="177.062" y="456.33599999999996"/>
      <point x="187.128" y="446.346"/>
      <point x="217.32999999999998" y="446.346" type="curve" smooth="yes"/>
      <point x="247.912" y="446.346"/>
      <point x="257.598" y="456.33599999999996"/>
      <point x="257.598" y="485.356" type="curve" smooth="yes"/>
      <point x="257.598" y="514.996"/>
      <point x="247.912" y="524.986"/>
      <point x="217.32999999999998" y="524.986" type="curve" smooth="yes"/>
      <point x="186.438" y="524.986"/>
      <point x="177.062" y="514.996"/>
    </contour>
    <contour>
      <point x="44.544000000000004" y="268.15" type="line"/>
      <point x="390.116" y="268.15" type="line"/>
      <point x="390.116" y="334.65000000000003" type="line"/>
      <point x="44.544000000000004" y="334.65000000000003" type="line"/>
    </contour>
  </outline>
</glyph>
<glyph name="oslash" format="2">
  <advance width="424.49"/>
  <unicode hex="00F8"/>
  <anchor x="211.22" y="536.2" name="top"/>
  <outline>
    <contour>
      <point x="211.22" y="-10.0" type="curve" smooth="yes"/>
      <point x="77.18" y="-10.0"/>
      <point x="29.94" y="71.22"/>
      <point x="29.94" y="268.91" type="curve" smooth="yes"/>
      <point x="29.94" y="463.90999999999997"/>
      <point x="73.37" y="546.2"/>
      <point x="211.22" y="546.2" type="curve" smooth="yes"/>
      <point x="348.95" y="546.2"/>
      <point x="393.0" y="463.90999999999997"/>
      <point x="393.0" y="268.91" type="curve" smooth="yes"/>
      <point x="393.0" y="71.22"/>
      <point x="345.45" y="-10.0"/>
    </contour>
    <contour>
      <point x="211.53" y="51.279999999999994" type="curve" smooth="yes"/>
      <point x="287.81" y="51.279999999999994"/>
      <point x="317.51" y="97.95"/>
      <point x="317.51" y="268.91" type="curve" smooth="yes"/>
      <point x="317.51" y="437.68"/>
      <point x="290.38" y="485.23"/>
      <point x="211.53" y="485.23" type="curve" smooth="yes"/>
      <point x="132.25" y="485.23"/>
      <point x="105.42999999999999" y="437.68"/>
      <point x="105.42999999999999" y="268.91" type="curve" smooth="yes"/>
      <point x="105.42999999999999" y="97.95"/>
      <point x="135.13" y="51.279999999999994"/>
    </contour>
    <contour>
      <point x="28.75" y="-7.5200000000000005" type="line"/>
      <point x="86.66000000000001" y="97.98000000000002" type="line"/>
      <point x="89.39999999999999" y="97.05" type="line"/>
      <point x="302.08" y="488.81" type="line"/>
      <point x="305.43999999999994" y="487.88" type="line"/>
      <point x="338.52" y="546.2" type="line"/>
      <point x="394.19" y="546.2" type="line"/>
      <point x="337.83" y="446.4" type="line"/>
      <point x="334.78000000000003" y="447.33" type="line"/>
      <point x="121.98" y="53.97" type="line"/>
      <point x="118.62" y="54.900000000000006" type="line"/>
      <point x="83.8" y="-7.5200000000000005" type="line"/>
    </contour>
  </outline>
</glyph>
<glyph name="thorn" format="2">
  <advance width="420.648"/>
  <unicode hex="00FE"/>
  <outline>
    <contour>
      <point x="49.46" y="-210.0" type="line"/>
      <point x="124.82600000000001" y="-210.0" type="line"/>
      <point x="124.82600000000001" y="-1.8100000000000003" type="line"/>
      <point x="149.944" y="-7.591999999999999"/>
      <point x="173.634" y="-10.0"/>
      <point x="195.08800000000002" y="-10.0" type="curve" smooth="yes"/>
      <point x="334.502" y="-10.0"/>
      <point x="390.15000000000003" y="70.10199999999999"/>
      <point x="390.15000000000003" y="279.132" type="curve" smooth="yes"/>
      <point x="390.15000000000003" y="454.80400000000003"/>
      <point x="336.24" y="546.2"/>
      <point x="232.762" y="546.2" type="curve" smooth="yes"/>
      <point x="198.148" y="546.2"/>
      <point x="157.12800000000001" y="535.898"/>
      <point x="125.322" y="521.0939999999999" type="curve"/>
      <point x="125.322" y="740.0" type="line"/>
      <point x="49.46" y="740.0" type="line"/>
    </contour>
    <contour>
      <point x="193.506" y="49.436" type="curve" smooth="yes"/>
      <point x="174.584" y="49.436"/>
      <point x="154.538" y="52.339999999999996"/>
      <point x="125.508" y="59.38999999999999" type="curve"/>
      <point x="125.508" y="459.16800000000006" type="line"/>
      <point x="155.85399999999998" y="473.144"/>
      <point x="180.11599999999999" y="478.338"/>
      <point x="206.406" y="478.338" type="curve" smooth="yes"/>
      <point x="275.926" y="478.338"/>
      <point x="311.374" y="412.10800000000006"/>
      <point x="311.374" y="273.056" type="curve" smooth="yes"/>
      <point x="311.374" y="104.19"/>
      <point x="278.618" y="49.436"/>
    </contour>
  </outline>
</glyph>
<glyph name="Dcroat" format="2">
  <advance width="500.41299999999995"/>
  <unicode hex="0110"/>
  <outline>
    <contour>
      <point x="3.69" y="323.96" type="line"/>
      <point x="241.42899999999997" y="323.96" type="line"/>
      <point x="241.42899999999997" y="389.995" type="line"/>
      <point x="3.69" y="389.995" type="line"/>
    </contour>
    <component base="D" xOffset="4.143"/>
  </outline>
</glyph>
<glyph name="dcroat" format="2">
  <advance width="423.655"/>
  <unicode hex="0111"/>
  <outline>
    <contour>
      <point x="180.936" y="612.575" type="line"/>
      <point x="427.98300000000006" y="612.575" type="line"/>
      <point x="427.98300000000006" y="660.645" type="line"/>
      <point x="180.936" y="660.645" type="line"/>
    </contour>
    <component base="d"/>
  </outline>
</glyph>
<glyph name="Hbar" format="2">
  <advance width="512.596"/>
  <unicode hex="0126"/>
  <outline>
    <contour>
      <point x="13.84" y="500.98" type="line"/>
      <point x="53.50000000000001" y="500.98" type="line"/>
      <point x="53.50000000000001" y="0.0" type="line"/>
      <point x="130.54" y="0.0" type="line"/>
      <point x="130.54" y="270.34000000000003" type="line"/>
      <point x="382.676" y="270.34000000000003" type="line"/>
      <point x="382.676" y="0.0" type="line"/>
      <point x="459.09599999999995" y="0.0" type="line"/>
      <point x="459.09599999999995" y="500.98" type="line"/>
      <point x="498.75600000000003" y="500.98" type="line"/>
      <point x="498.75600000000003" y="559.8720000000001" type="line"/>
      <point x="459.09599999999995" y="559.8720000000001" type="line"/>
      <point x="459.09599999999995" y="700.0" type="line"/>
      <point x="382.676" y="700.0" type="line"/>
      <point x="382.676" y="559.8720000000001" type="line"/>
      <point x="130.54" y="559.8720000000001" type="line"/>
      <point x="130.54" y="700.0" type="line"/>
      <point x="53.50000000000001" y="700.0" type="line"/>
      <point x="53.50000000000001" y="559.8720000000001" type="line"/>
      <point x="13.84" y="559.8720000000001" type="line"/>
    </contour>
    <contour>
      <point x="130.54" y="344.348" type="line"/>
      <point x="130.54" y="500.98" type="line"/>
      <point x="382.676" y="500.98" type="line"/>
      <point x="382.676" y="344.348" type="line"/>
    </contour>
  </outline>
</glyph>
<glyph name="hbar" format="2">
  <advance width="426.057"/>
  <unicode hex="0127"/>
  <outline>
    <contour>
      <point x="-2.9390000000000005" y="612.575" type="line"/>
      <point x="247.273" y="612.575" type="line"/>
      <point x="247.273" y="660.645" type="line"/>
      <point x="-2.9390000000000005" y="660.645" type="line"/>
    </contour>
    <component base="h"/>
  </outline>
</glyph>
<glyph name="Idotaccent" format="2">
  <advance width="183.916"/>
  <unicode hex="0130"/>
  <outline>
    <contour>
      <point x="92.33" y="783.922" type="curve" smooth="yes"/>
      <point x="126.198" y="783.922"/>
      <point x="137.86800000000002" y="796.144"/>
      <point x="137.86800000000002" y="829.752" type="curve" smooth="yes"/>
      <point x="137.86800000000002" y="863.856"/>
      <point x="125.702" y="875.83"/>
      <point x="92.33" y="875.83" type="curve" smooth="yes"/>
      <point x="58.71" y="875.83"/>
      <point x="46.544000000000004" y="863.856"/>
      <point x="46.544000000000004" y="829.752" type="curve" smooth="yes"/>
      <point x="46.544000000000004" y="795.8960000000001"/>
      <point x="59.4" y="783.922"/>
    </contour>
    <component base="I"/>
  </outline>
</glyph>
<glyph name="dotlessi" format="2">
  <advance width="175.464"/>
  <unicode hex="0131"/>
  <anchor x="123.01400000000001" y="3.1" name="ogonek"/>
  <anchor x="88.228" y="0.0" name="bottom"/>
  <anchor x="87.732" y="536.2" name="top"/>
  <outline>
    <contour>
      <point x="49.46" y="0.0" type="line"/>
      <point x="126.00399999999999" y="0.0" type="line"/>
      <point x="126.00399999999999" y="536.2" type="line"/>
      <point x="49.46" y="536.2" type="line"/>
    </contour>
  </outline>
</glyph>
<glyph name="kgreenlandic" format="2">
  <advance width="397.14000000000004"/>
  <unicode hex="0138"/>
  <anchor x="204.08" y="536.2" name="top"/>
  <anchor x="204.08" y="0.0" name="bottom"/>
  <outline>
    <contour>
      <point x="372.28000000000003" y="-7.930000000000001" type="curve" smooth="yes"/>
      <point x="381.5" y="-7.930000000000001"/>
      <point x="389.98" y="-6.55"/>
      <point x="397.89" y="-4.430000000000001" type="curve"/>
      <point x="396.01" y="76.14" type="line"/>
      <point x="391.51" y="75.76"/>
      <point x="386.82" y="74.76"/>
      <point x="383.32" y="74.76" type="curve" smooth="yes"/>
      <point x="358.41" y="74.76"/>
      <point x="337.81000000000006" y="89.61999999999999"/>
      <point x="258.53000000000003" y="193.89" type="curve" smooth="yes"/>
      <point x="122.16" y="373.6" type="line"/>
      <point x="122.16" y="536.2" type="line"/>
      <point x="49.46" y="536.2" type="line"/>
      <point x="49.46" y="0.0" type="line"/>
      <point x="122.16" y="0.0" type="line"/>
      <point x="122.16" y="257.38000000000005" type="line"/>
      <point x="236.79999999999998" y="107.64" type="line" smooth="yes"/>
      <point x="316.21000000000004" y="3.4800000000000004"/>
      <point x="336.34" y="-7.930000000000001"/>
    </contour>
    <contour>
      <point x="197.04" y="235.3" type="line"/>
      <point x="264.69" y="313.78999999999996"/>
      <point x="347.46999999999997" y="412.59"/>
      <point x="375.96000000000004" y="532.72" type="curve"/>
      <point x="301.42" y="541.03" type="line"/>
      <point x="275.53" y="422.29"/>
      <point x="209.15" y="350.73"/>
      <point x="143.57" y="278.03" type="curve"/>
    </contour>
  </outline>
</glyph>
<glyph name="Ldot" format="2">
  <advance width="380.19"/>
  <unicode hex="013F"/>
  <outline>
    <contour>
      <point x="246.44800000000004" y="374.52799999999996" type="curve" smooth="yes"/>
      <point x="246.44800000000004" y="346.438"/>
      <point x="254.53" y="337.13"/>
      <point x="281.26" y="337.13" type="curve" smooth="yes"/>
      <point x="308.92800000000005" y="337.13"/>
      <point x="316.32" y="346.438"/>
      <point x="316.32" y="374.52799999999996" type="curve" smooth="yes"/>
      <point x="316.32" y="402.928"/>
      <point x="308.92800000000005" y="412.236"/>
      <point x="281.26" y="412.236" type="curve" smooth="yes"/>
      <point x="253.84" y="412.236"/>
      <point x="246.44800000000004" y="402.928"/>
    </contour>
    <component base="L"/>
  </outline>
</glyph>
<glyph name="ldot" format="2">
  <advance width="247.32999999999998"/>
  <unicode hex="0140"/>
  <outline>
    <contour>
      <point x="212.61" y="330.12800000000004" type="curve" smooth="yes"/>
      <point x="235.38" y="330.12800000000004"/>
      <point x="242.83400000000003" y="338.196"/>
      <point x="242.83400000000003" y="365.914" type="curve" smooth="yes"/>
      <point x="242.83400000000003" y="393.88000000000005"/>
      <point x="235.38" y="401.94800000000004"/>
      <point x="212.61" y="401.94800000000004" type="curve" smooth="yes"/>
      <point x="190.08799999999997" y="401.94800000000004"/>
      <point x="182.634" y="393.88000000000005"/>
      <point x="182.634" y="365.914" type="curve" smooth="yes"/>
      <point x="182.634" y="338.196"/>
      <point x="190.77799999999996" y="330.12800000000004"/>
    </contour>
    <component base="l"/>
  </outline>
</glyph>
<glyph name="Lslash" format="2">
  <advance width="397.65400000000005"/>
  <unicode hex="0141"/>
  <outline>
    <contour>
      <point x="18.2" y="203.5" type="line"/>
      <point x="70.90199999999999" y="243.73" type="line"/>
      <point x="70.90199999999999" y="0.0" type="line"/>
      <point x="386.79400000000004" y="0.0" type="line"/>
      <point x="386.79400000000004" y="72.27199999999999" type="line"/>
      <point x="148.19" y="72.27199999999999" type="line"/>
      <point x="148.19" y="286.184" type="line"/>
      <point x="304.686" y="401.3" type="line"/>
      <point x="304.686" y="476.25199999999995" type="line"/>
      <point x="148.19" y="361.688" type="line"/>
      <point x="148.19" y="700.0" type="line"/>
      <point x="70.90199999999999" y="700.0" type="line"/>
      <point x="70.90199999999999" y="319.23400000000004" type="line"/>
      <point x="18.2" y="279.00399999999996" type="line"/>
    </contour>
  </outline>
</glyph>
<glyph name="lslash" format="2">
  <advance width="223.026"/>
  <unicode hex="0142"/>
  <outline>
    <contour>
      <point x="151.558" y="-10.0" type="curve" smooth="yes"/>
      <point x="176.416" y="-10.0"/>
      <point x="201.786" y="-3.452"/>
      <point x="221.278" y="4.5520000000000005" type="curve"/>
      <point x="213.93" y="73.228" type="line"/>
      <point x="197.308" y="68.69600000000001"/>
      <point x="184.066" y="66.482"/>
      <point x="173.19600000000003" y="66.482" type="curve" smooth="yes"/>
      <point x="147.38400000000001" y="66.482"/>
      <point x="129.10399999999998" y="79.326"/>
      <point x="129.10399999999998" y="157.12199999999999" type="curve" smooth="yes"/>
      <point x="129.10399999999998" y="297.43999999999994" type="line"/>
      <point x="208.54" y="370.062" type="line"/>
      <point x="208.54" y="437.94" type="line"/>
      <point x="129.10399999999998" y="365.318" type="line"/>
      <point x="129.10399999999998" y="740.0" type="line"/>
      <point x="53.304" y="740.0" type="line"/>
      <point x="53.304" y="305.148" type="line"/>
      <point x="5.616000000000001" y="261.622" type="line"/>
      <point x="5.616000000000001" y="194.29600000000002" type="line"/>
      <point x="53.428000000000004" y="237.332" type="line"/>
      <point x="53.552" y="140.196" type="line" smooth="yes"/>
      <point x="54.606" y="19.864"/>
      <point x="88.62" y="-10.0"/>
    </contour>
  </outline>
</glyph>
<glyph name="Eng" format="2">
  <advance width="509.64000000000004"/>
  <unicode hex="014A"/>
  <outline>
    <contour>
      <point x="53.545" y="0.0" type="line"/>
      <point x="123.3" y="0.0" type="line"/>
      <point x="123.3" y="540.3950000000001" type="line"/>
      <point x="381.84499999999997" y="2.14" type="line"/>
      <point x="381.84499999999997" y="-10.52" type="line" smooth="yes"/>
      <point x="381.155" y="-72.16499999999999"/>
      <point x="345.22999999999996" y="-96.31"/>
      <point x="284.315" y="-96.31" type="curve" smooth="yes"/>
      <point x="267.96999999999997" y="-96.31"/>
      <point x="248.59" y="-94.275"/>
      <point x="231.025" y="-89.75999999999999" type="curve"/>
      <point x="219.48499999999999" y="-155.88" type="line"/>
      <point x="240.46" y="-163.375"/>
      <point x="267.15999999999997" y="-169.285"/>
      <point x="297.49" y="-169.285" type="curve" smooth="yes"/>
      <point x="406.40000000000003" y="-169.285"/>
      <point x="456.09499999999997" y="-111.29"/>
      <point x="456.09499999999997" y="-11.549999999999999" type="curve" smooth="yes"/>
      <point x="456.09499999999997" y="700.0" type="line"/>
      <point x="386.65" y="700.0" type="line"/>
      <point x="386.65" y="154.165" type="line"/>
      <point x="129.20499999999998" y="701.38" type="line"/>
      <point x="53.545" y="701.38" type="line"/>
    </contour>
  </outline>
</glyph>
<glyph name="eng" format="2">
  <advance width="426.026"/>
  <unicode hex="014B"/>
  <outline>
    <contour>
      <point x="377.062" y="16.650000000000002" type="curve"/>
      <point x="377.062" y="420.858" type="line" smooth="yes"/>
      <point x="377.062" y="503.78799999999995"/>
      <point x="333.572" y="546.2"/>
      <point x="259.996" y="546.2" type="curve" smooth="yes"/>
      <point x="207.838" y="546.2"/>
      <point x="163.08599999999998" y="528.876"/>
      <point x="119.37" y="502.60400000000004" type="curve"/>
      <point x="119.37" y="536.2" type="line"/>
      <point x="49.46" y="536.2" type="line"/>
      <point x="49.46" y="0.0" type="line"/>
      <point x="125.508" y="0.0" type="line"/>
      <point x="125.508" y="445.024" type="line"/>
      <point x="158.298" y="463.824"/>
      <point x="193.03400000000002" y="477.518"/>
      <point x="228.41800000000003" y="477.518" type="curve" smooth="yes"/>
      <point x="277.42800000000005" y="477.518"/>
      <point x="301.014" y="449.55"/>
      <point x="301.014" y="399.282" type="curve" smooth="yes"/>
      <point x="301.014" y="14.857999999999999" type="line" smooth="yes"/>
      <point x="301.014" y="-59.55799999999999"/>
      <point x="284.678" y="-105.61800000000001"/>
      <point x="254.518" y="-127.698" type="curve" smooth="yes"/>
      <point x="248.828" y="-131.28600000000003"/>
      <point x="242.146" y="-133.812"/>
      <point x="235.766" y="-135.64799999999997" type="curve"/>
      <point x="238.952" y="-209.70200000000003" type="line"/>
      <point x="251.78199999999998" y="-208.002"/>
      <point x="264.432" y="-204.54399999999998"/>
      <point x="277.922" y="-200.404" type="curve" smooth="yes"/>
      <point x="340.80199999999996" y="-175.15"/>
      <point x="377.062" y="-101.65599999999999"/>
    </contour>
  </outline>
</glyph>
<glyph name="OE" format="2">
  <advance width="729.9420000000001"/>
  <unicode hex="0152"/>
  <outline>
    <contour>
      <point x="710.945" y="0.0" type="line"/>
      <point x="710.945" y="73.00999999999999" type="line"/>
      <point x="443.26599999999996" y="73.00999999999999" type="line"/>
      <point x="443.26599999999996" y="325.845" type="line"/>
      <point x="676.544" y="325.845" type="line"/>
      <point x="676.544" y="396.995" type="line"/>
      <point x="443.26599999999996" y="396.995" type="line"/>
      <point x="443.26599999999996" y="626.5250000000001" type="line"/>
      <point x="696.8659999999999" y="626.5250000000001" type="line"/>
      <point x="696.8659999999999" y="700.0" type="line"/>
      <point x="430.711" y="700.0" type="line"/>
      <point x="379.122" y="704.471"/>
      <point x="325.478" y="706.6260000000001"/>
      <point x="275.56100000000004" y="706.6260000000001" type="curve" smooth="yes"/>
      <point x="123.424" y="706.6260000000001"/>
      <point x="32.708999999999996" y="631.5219999999999"/>
      <point x="32.708999999999996" y="352.31600000000003" type="curve" smooth="yes"/>
      <point x="32.708999999999996" y="64.434"/>
      <point x="129.843" y="-7.854000000000001"/>
      <point x="277.63100000000003" y="-7.854000000000001" type="curve" smooth="yes"/>
      <point x="328.861" y="-7.854000000000001"/>
      <point x="382.48900000000003" y="-5.395"/>
      <point x="443.11100000000005" y="0.0" type="curve"/>
    </contour>
    <contour>
      <point x="365.606" y="64.509" type="line"/>
      <point x="344.10100000000006" y="62.50899999999999"/>
      <point x="309.30999999999995" y="60.202"/>
      <point x="278.565" y="60.202" type="curve" smooth="yes"/>
      <point x="182.90299999999996" y="60.202"/>
      <point x="113.07400000000001" y="108.12899999999999"/>
      <point x="113.07400000000001" y="351.0" type="curve" smooth="yes"/>
      <point x="113.07400000000001" y="593.725"/>
      <point x="183.66" y="639.0289999999999"/>
      <point x="277.489" y="639.0289999999999" type="curve" smooth="yes"/>
      <point x="298.501" y="639.0289999999999"/>
      <point x="345.749" y="636.26"/>
      <point x="365.606" y="634.412" type="curve"/>
    </contour>
  </outline>
</glyph>
<glyph name="oe" format="2">
  <advance width="694.456"/>
  <unicode hex="0153"/>
  <outline>
    <contour>
      <point x="30.497999999999998" y="268.848" type="curve" smooth="yes"/>
      <point x="30.497999999999998" y="70.848"/>
      <point x="77.862" y="-10.0"/>
      <point x="212.21599999999998" y="-10.0" type="curve" smooth="yes"/>
      <point x="291.796" y="-10.0"/>
      <point x="331.338" y="24.502000000000002"/>
      <point x="354.17" y="95.75200000000001" type="curve"/>
      <point x="380.168" y="26.192"/>
      <point x="427.42" y="-10.0"/>
      <point x="505.188" y="-10.0" type="curve" smooth="yes"/>
      <point x="562.306" y="-10.0"/>
      <point x="616.596" y="-0.07000000000000006"/>
      <point x="659.9" y="15.836" type="curve"/>
      <point x="649.014" y="79.84400000000001" type="line"/>
      <point x="604.28" y="66.97999999999999"/>
      <point x="552.8080000000001" y="58.786"/>
      <point x="512.934" y="58.786" type="curve" smooth="yes"/>
      <point x="441.994" y="58.786"/>
      <point x="393.124" y="97.906"/>
      <point x="393.124" y="226.344" type="curve" smooth="yes"/>
      <point x="393.124" y="237.19"/>
      <point x="393.062" y="250.416"/>
      <point x="393.5" y="262.262" type="curve"/>
      <point x="516.178" y="263.812"/>
      <point x="622.696" y="275.184"/>
      <point x="666.3620000000001" y="280.06" type="curve"/>
      <point x="666.672" y="288.834"/>
      <point x="667.672" y="301.142"/>
      <point x="667.672" y="316.134" type="curve" smooth="yes"/>
      <point x="667.672" y="475.33399999999995"/>
      <point x="614.432" y="546.2"/>
      <point x="500.764" y="546.2" type="curve" smooth="yes"/>
      <point x="431.072" y="546.2"/>
      <point x="384.998" y="508.454"/>
      <point x="358.472" y="434.70000000000005" type="curve"/>
      <point x="334.03200000000004" y="509.75200000000007"/>
      <point x="294.374" y="546.2"/>
      <point x="212.21599999999998" y="546.2" type="curve" smooth="yes"/>
      <point x="74.3" y="546.2"/>
      <point x="30.497999999999998" y="463.848"/>
    </contour>
    <contour>
      <point x="108.344" y="268.786" type="curve" smooth="yes"/>
      <point x="108.344" y="434.45599999999996"/>
      <point x="134.85399999999998" y="481.758"/>
      <point x="212.154" y="481.758" type="curve" smooth="yes"/>
      <point x="288.76800000000003" y="481.758"/>
      <point x="315.464" y="434.45599999999996"/>
      <point x="315.464" y="268.786" type="curve" smooth="yes"/>
      <point x="315.464" y="100.926"/>
      <point x="286.45000000000005" y="54.69"/>
      <point x="212.154" y="54.69" type="curve" smooth="yes"/>
      <point x="137.60999999999999" y="54.69"/>
      <point x="108.344" y="100.926"/>
    </contour>
    <contour>
      <point x="393.814" y="310.084" type="curve"/>
      <point x="403.086" y="456.882"/>
      <point x="447.652" y="486.71799999999996"/>
      <point x="499.33799999999997" y="486.71799999999996" type="curve" smooth="yes"/>
      <point x="556.9280000000001" y="486.71799999999996"/>
      <point x="590.7560000000001" y="443.994"/>
      <point x="591.686" y="320.926" type="curve"/>
      <point x="566.2939999999999" y="316.728"/>
      <point x="480.69" y="310.146"/>
    </contour>
  </outline>
</glyph>
